<?xml version="1.0" encoding="UTF-8"?>
<!-- Do not edit this file with editors other than draw.io -->
<!DOCTYPE svg PUBLIC "-//W3C//DTD SVG 1.1//EN" "http://www.w3.org/Graphics/SVG/1.1/DTD/svg11.dtd">
<svg xmlns="http://www.w3.org/2000/svg" style="background: transparent; background-color: transparent; color-scheme: light;" xmlns:xlink="http://www.w3.org/1999/xlink" version="1.1" width="120px" height="125px" viewBox="0 0 120 125" content="&lt;mxfile host=&quot;app.diagrams.net&quot; agent=&quot;Mozilla/5.0 (X11; Linux x86_64; rv:144.0) Gecko/20100101 Firefox/144.0&quot; version=&quot;28.2.8&quot; scale=&quot;1&quot; border=&quot;0&quot;&gt;&#xA;  &lt;diagram name=&quot;Page-1&quot; id=&quot;Xd-ZenHp51tGBhw-5Uhw&quot;&gt;&#xA;    &lt;mxGraphModel dx=&quot;553&quot; dy=&quot;286&quot; grid=&quot;1&quot; gridSize=&quot;10&quot; guides=&quot;1&quot; tooltips=&quot;1&quot; connect=&quot;1&quot; arrows=&quot;1&quot; fold=&quot;1&quot; page=&quot;1&quot; pageScale=&quot;1&quot; pageWidth=&quot;600&quot; pageHeight=&quot;550&quot; math=&quot;0&quot; shadow=&quot;0&quot;&gt;&#xA;      &lt;root&gt;&#xA;        &lt;mxCell id=&quot;0&quot; /&gt;&#xA;        &lt;mxCell id=&quot;1&quot; parent=&quot;0&quot; /&gt;&#xA;        &lt;mxCell id=&quot;2&quot; value=&quot;&quot; style=&quot;whiteSpace=wrap;html=1;aspect=fixed;fillColor=none;strokeColor=none;&quot; vertex=&quot;1&quot; parent=&quot;1&quot;&gt;&#xA;          &lt;mxGeometry x=&quot;80&quot; y=&quot;240&quot; width=&quot;120&quot; height=&quot;120&quot; as=&quot;geometry&quot; /&gt;&#xA;        &lt;/mxCell&gt;&#xA;        &lt;mxCell id=&quot;3&quot; value=&quot;&quot; style=&quot;endArrow=none;dashed=1;html=1;strokeWidth=4;rounded=0;strokeColor=#5E81AC;entryX=0.5;entryY=0;entryDx=0;entryDy=0;exitX=0.5;exitY=1;exitDx=0;exitDy=0;dashPattern=1 1;&quot; edge=&quot;1&quot; source=&quot;2&quot; target=&quot;2&quot; parent=&quot;1&quot;&gt;&#xA;          &lt;mxGeometry width=&quot;50&quot; height=&quot;50&quot; relative=&quot;1&quot; as=&quot;geometry&quot;&gt;&#xA;            &lt;mxPoint x=&quot;160&quot; y=&quot;320&quot; as=&quot;sourcePoint&quot; /&gt;&#xA;            &lt;mxPoint x=&quot;210&quot; y=&quot;270&quot; as=&quot;targetPoint&quot; /&gt;&#xA;          &lt;/mxGeometry&gt;&#xA;        &lt;/mxCell&gt;&#xA;        &lt;mxCell id=&quot;4&quot; value=&quot;&quot; style=&quot;html=1;shadow=0;dashed=0;align=center;verticalAlign=middle;shape=mxgraph.arrows2.twoWayArrow;dy=0.6;dx=35;sketch=1;curveFitting=1;jiggle=2;fillStyle=solid;fillColor=#EBCB8B;strokeColor=#2E3440;strokeWidth=3;&quot; vertex=&quot;1&quot; parent=&quot;1&quot;&gt;&#xA;          &lt;mxGeometry x=&quot;85&quot; y=&quot;270&quot; width=&quot;110&quot; height=&quot;60&quot; as=&quot;geometry&quot; /&gt;&#xA;        &lt;/mxCell&gt;&#xA;      &lt;/root&gt;&#xA;    &lt;/mxGraphModel&gt;&#xA;  &lt;/diagram&gt;&#xA;&lt;/mxfile&gt;&#xA;"><defs/><g><g data-cell-id="0"><g data-cell-id="1"><g data-cell-id="vfndzH383yozpPz_Wz0S-29"><g><rect x="0" y="2" width="120" height="120" fill="none" stroke="none" pointer-events="all"/></g></g><g data-cell-id="vfndzH383yozpPz_Wz0S-26"/><g data-cell-id="vfndzH383yozpPz_Wz0S-17"/><g data-cell-id="vfndzH383yozpPz_Wz0S-16"/><g data-cell-id="vfndzH383yozpPz_Wz0S-14"/><g data-cell-id="vfndzH383yozpPz_Wz0S-21"/><g data-cell-id="vfndzH383yozpPz_Wz0S-25"/><g data-cell-id="vfndzH383yozpPz_Wz0S-27"/><g data-cell-id="vfndzH383yozpPz_Wz0S-28"/><g data-cell-id="vfndzH383yozpPz_Wz0S-30"/><g data-cell-id="vfndzH383yozpPz_Wz0S-31"/><g data-cell-id="vfndzH383yozpPz_Wz0S-32"/><g data-cell-id="vfndzH383yozpPz_Wz0S-33"/><g data-cell-id="vfndzH383yozpPz_Wz0S-34"/><g data-cell-id="vfndzH383yozpPz_Wz0S-36"><g><path d="M 60 122 L 60 2" fill="none" stroke="#5e81ac" style="stroke: rgb(94, 129, 172);" stroke-width="4" stroke-miterlimit="10" stroke-dasharray="4 4" pointer-events="stroke"/></g></g><g data-cell-id="vfndzH383yozpPz_Wz0S-35"/><g data-cell-id="vfndzH383yozpPz_Wz0S-13"><g><path d="M 40 50 L 80 50 L 80 32 L 115 62 L 80 92 L 80 74 L 40 74 L 40 92 L 5 62 L 40 32 Z" fill="none" stroke="none" pointer-events="all"/><path d="M 40 50 C 45.55 50.65 60.8 47.14 80 50 C 82.27 40.26 78.46 33.82 80 32 C 92.82 44.11 104.53 50.76 115 62 C 99.95 70.47 96.43 81.47 80 92 C 84.04 87.32 76.53 85.56 80 74 C 74.43 79.47 56.65 75.24 40 74 C 41.26 80.95 36.26 81.12 40 92 C 26.01 85.06 18.01 71.56 5 62 C 13.13 50.07 31.07 43.45 40 32 C 38.89 37.05 36.15 47.15 40 50" fill="#ebcb8b" style="fill: rgb(235, 203, 139);" stroke="none" pointer-events="all"/><path d="M 40 50 C 57.31 46.53 68.31 47.41 80 50 M 40 50 C 49.25 47.72 60.56 49.91 80 50 M 80 50 C 79.75 41.67 80.25 37.57 80 32 M 80 50 C 82 47.78 80.22 40.71 80 32 M 80 32 C 88.72 42.96 98.15 46.82 115 62 M 80 32 C 87.61 41.11 95.68 48.1 115 62 M 115 62 C 105.04 69.42 97.75 74.54 80 92 M 115 62 C 99.99 74.07 85.95 85.86 80 92 M 80 92 C 78.02 83.24 77.95 79.03 80 74 M 80 92 C 81.31 87.37 78.2 83.61 80 74 M 80 74 C 69.75 71.57 60.59 75.5 40 74 M 80 74 C 66.63 74.78 50.54 72.94 40 74 M 40 74 C 39.3 79.42 43.11 89.28 40 92 M 40 74 C 38.26 78.58 39.69 84.51 40 92 M 40 92 C 26.81 83.73 23.92 71.06 5 62 M 40 92 C 24.92 81.13 14.04 67.27 5 62 M 5 62 C 16.06 48.8 26.38 40.91 40 32 M 5 62 C 13.46 56.47 20.62 47.96 40 32 M 40 32 C 42.35 38.16 41.44 45.97 40 50 M 40 32 C 41.3 39.42 41.52 47.41 40 50" fill="none" stroke="#2e3440" style="stroke: rgb(46, 52, 64);" stroke-width="3" stroke-linejoin="round" stroke-linecap="round" stroke-miterlimit="10" pointer-events="all"/></g></g></g></g></g></svg>