<?xml version="1.0" encoding="UTF-8"?>
<!-- Do not edit this file with editors other than draw.io -->
<!DOCTYPE svg PUBLIC "-//W3C//DTD SVG 1.1//EN" "http://www.w3.org/Graphics/SVG/1.1/DTD/svg11.dtd">
<svg xmlns="http://www.w3.org/2000/svg" style="background: transparent; background-color: transparent; color-scheme: light;" xmlns:xlink="http://www.w3.org/1999/xlink" version="1.1" width="120px" height="120px" viewBox="0 0 120 120" content="&lt;mxfile host=&quot;app.diagrams.net&quot; agent=&quot;Mozilla/5.0 (X11; Linux x86_64; rv:144.0) Gecko/20100101 Firefox/144.0&quot; version=&quot;28.2.8&quot; scale=&quot;1&quot; border=&quot;0&quot;&gt;&#xA;  &lt;diagram name=&quot;Page-1&quot; id=&quot;8q0n-hSu3tNugF60hKPu&quot;&gt;&#xA;    &lt;mxGraphModel dx=&quot;1383&quot; dy=&quot;714&quot; grid=&quot;1&quot; gridSize=&quot;10&quot; guides=&quot;1&quot; tooltips=&quot;1&quot; connect=&quot;1&quot; arrows=&quot;1&quot; fold=&quot;1&quot; page=&quot;1&quot; pageScale=&quot;1&quot; pageWidth=&quot;600&quot; pageHeight=&quot;550&quot; math=&quot;0&quot; shadow=&quot;0&quot;&gt;&#xA;      &lt;root&gt;&#xA;        &lt;mxCell id=&quot;0&quot; /&gt;&#xA;        &lt;mxCell id=&quot;1&quot; parent=&quot;0&quot; /&gt;&#xA;        &lt;mxCell id=&quot;2&quot; value=&quot;&quot; style=&quot;whiteSpace=wrap;html=1;aspect=fixed;fillColor=none;strokeColor=none;&quot; vertex=&quot;1&quot; parent=&quot;1&quot;&gt;&#xA;          &lt;mxGeometry x=&quot;80&quot; y=&quot;400&quot; width=&quot;120&quot; height=&quot;120&quot; as=&quot;geometry&quot; /&gt;&#xA;        &lt;/mxCell&gt;&#xA;        &lt;mxCell id=&quot;3&quot; value=&quot;&quot; style=&quot;html=1;shadow=0;dashed=0;align=center;verticalAlign=middle;shape=mxgraph.arrows2.uTurnArrow;dy=12.91;arrowHead=55.83;dx2=29.67;flipV=0;flipH=1;direction=south;sketch=1;curveFitting=1;jiggle=2;fillStyle=solid;fillColor=#EBCB8B;strokeWidth=3;strokeColor=#2E3440;&quot; vertex=&quot;1&quot; parent=&quot;1&quot;&gt;&#xA;          &lt;mxGeometry x=&quot;85&quot; y=&quot;420&quot; width=&quot;110&quot; height=&quot;70&quot; as=&quot;geometry&quot; /&gt;&#xA;        &lt;/mxCell&gt;&#xA;      &lt;/root&gt;&#xA;    &lt;/mxGraphModel&gt;&#xA;  &lt;/diagram&gt;&#xA;&lt;/mxfile&gt;&#xA;"><defs/><g><g data-cell-id="0"><g data-cell-id="1"><g data-cell-id="vfndzH383yozpPz_Wz0S-29"/><g data-cell-id="vfndzH383yozpPz_Wz0S-26"/><g data-cell-id="vfndzH383yozpPz_Wz0S-17"/><g data-cell-id="vfndzH383yozpPz_Wz0S-16"><g transform="translate(0.5,0.5)"><rect x="0" y="0" width="120" height="120" fill="none" stroke="none" pointer-events="all"/></g></g><g data-cell-id="vfndzH383yozpPz_Wz0S-13"/><g data-cell-id="vfndzH383yozpPz_Wz0S-14"><g><path d="M 72.5 0 L 102.17 27.91 L 72.5 55.83 L 72.5 40.83 C 60.53 40.83 50.82 50.53 50.82 62.5 C 50.82 74.47 60.53 84.18 72.5 84.18 L 95 84.18 L 95 110 L 72.5 110 C 46.27 110 25 88.73 25 62.5 C 25 36.27 46.27 15 72.5 15 Z" fill="none" stroke="none" transform="translate(0,55)scale(1,-1)translate(0,-55)rotate(-90,60,55)" pointer-events="all"/><path d="M 72.5 0 C 78.54 13.31 92.66 25.96 102.17 27.91 C 90.36 37.01 89.77 45.74 72.5 55.83 C 74.06 56.61 73.81 48.63 72.5 40.83 C 61.99 46.18 47.41 51 50.82 62.5 C 46.88 72.25 59.29 83.4 72.5 84.18 C 77.99 79.67 78.67 88.04 95 84.18 C 93.02 92.83 93.46 95.14 95 110 C 90.85 105.45 76.82 111.47 72.5 110 C 41.53 108.08 24.68 90.38 25 62.5 C 25.17 35.82 51.71 11.82 72.5 15 C 74.77 9.66 68.82 8.25 72.5 0" fill="#ebcb8b" style="fill: rgb(235, 203, 139);" stroke="none" transform="translate(0,55)scale(1,-1)translate(0,-55)rotate(-90,60,55)" pointer-events="all"/><path d="M 72.5 0 C 83.61 13.43 96.36 25.23 102.17 27.91 M 72.5 0 C 83.82 8.17 93.8 17.86 102.17 27.91 M 102.17 27.91 C 90.5 40.2 77.76 50.06 72.5 55.83 M 102.17 27.91 C 90.66 39.94 79.05 50.59 72.5 55.83 M 72.5 55.83 C 71.45 50.44 74.89 46.73 72.5 40.83 M 72.5 55.83 C 71.36 50.39 72.95 47.78 72.5 40.83 M 72.5 40.83 C 62.64 41.02 50.44 52.62 50.82 62.5 M 72.5 40.83 C 61.9 44.6 54.93 52.8 50.82 62.5 M 50.82 62.5 C 54.2 72.35 60.95 85.09 72.5 84.18 M 50.82 62.5 C 51.81 74.44 56.54 88.41 72.5 84.18 M 72.5 84.18 C 82.04 82.36 86.83 84.01 95 84.18 M 72.5 84.18 C 80.26 85.11 89.42 83.27 95 84.18 M 95 84.18 C 95.07 95.26 95.82 95.93 95 110 M 95 84.18 C 93.26 92.3 93.96 99.95 95 110 M 95 110 C 86.59 109.37 78.94 112.91 72.5 110 M 95 110 C 87.76 109.53 79.5 109.13 72.5 110 M 72.5 110 C 46.5 106.93 27.66 88.67 25 62.5 M 72.5 110 C 42.61 112.99 24.98 86.93 25 62.5 M 25 62.5 C 28.59 32.48 46.77 11.68 72.5 15 M 25 62.5 C 20.61 37.77 41.7 11.58 72.5 15 M 72.5 15 C 73.82 8.13 71.37 7.98 72.5 0 M 72.5 15 C 71.83 7.88 71 2.59 72.5 0" fill="none" stroke="#2e3440" style="stroke: rgb(46, 52, 64);" stroke-width="3" stroke-linejoin="round" stroke-linecap="round" stroke-miterlimit="10" transform="translate(0,55)scale(1,-1)translate(0,-55)rotate(-90,60,55)" pointer-events="all"/></g></g><g data-cell-id="vfndzH383yozpPz_Wz0S-21"/><g data-cell-id="vfndzH383yozpPz_Wz0S-25"/><g data-cell-id="vfndzH383yozpPz_Wz0S-27"/><g data-cell-id="vfndzH383yozpPz_Wz0S-28"/><g data-cell-id="vfndzH383yozpPz_Wz0S-30"/><g data-cell-id="vfndzH383yozpPz_Wz0S-31"/><g data-cell-id="vfndzH383yozpPz_Wz0S-32"/><g data-cell-id="vfndzH383yozpPz_Wz0S-33"/><g data-cell-id="vfndzH383yozpPz_Wz0S-34"/><g data-cell-id="vfndzH383yozpPz_Wz0S-35"/></g></g></g></svg>