<?xml version="1.0" encoding="UTF-8"?>
<!-- Do not edit this file with editors other than draw.io -->
<!DOCTYPE svg PUBLIC "-//W3C//DTD SVG 1.1//EN" "http://www.w3.org/Graphics/SVG/1.1/DTD/svg11.dtd">
<svg xmlns="http://www.w3.org/2000/svg" style="background: transparent; background-color: transparent; color-scheme: light;" xmlns:xlink="http://www.w3.org/1999/xlink" version="1.1" width="440px" height="282px" viewBox="0 0 440 282" content="&lt;mxfile host=&quot;app.diagrams.net&quot; agent=&quot;Mozilla/5.0 (X11; Linux x86_64; rv:144.0) Gecko/20100101 Firefox/144.0&quot; version=&quot;28.2.8&quot; scale=&quot;1&quot; border=&quot;0&quot;&gt;&#xA;  &lt;diagram name=&quot;Page-1&quot; id=&quot;7XY3l8dM8YziS3FEnAg6&quot;&gt;&#xA;    &lt;mxGraphModel dx=&quot;553&quot; dy=&quot;286&quot; grid=&quot;1&quot; gridSize=&quot;10&quot; guides=&quot;1&quot; tooltips=&quot;1&quot; connect=&quot;1&quot; arrows=&quot;1&quot; fold=&quot;1&quot; page=&quot;1&quot; pageScale=&quot;1&quot; pageWidth=&quot;600&quot; pageHeight=&quot;550&quot; math=&quot;0&quot; shadow=&quot;0&quot;&gt;&#xA;      &lt;root&gt;&#xA;        &lt;mxCell id=&quot;0&quot; /&gt;&#xA;        &lt;mxCell id=&quot;1&quot; parent=&quot;0&quot; /&gt;&#xA;        &lt;mxCell id=&quot;vfndzH383yozpPz_Wz0S-29&quot; value=&quot;&quot; style=&quot;whiteSpace=wrap;html=1;aspect=fixed;fillColor=none;strokeColor=none;&quot; vertex=&quot;1&quot; parent=&quot;1&quot;&gt;&#xA;          &lt;mxGeometry x=&quot;80&quot; y=&quot;240&quot; width=&quot;120&quot; height=&quot;120&quot; as=&quot;geometry&quot; /&gt;&#xA;        &lt;/mxCell&gt;&#xA;        &lt;mxCell id=&quot;vfndzH383yozpPz_Wz0S-26&quot; value=&quot;&quot; style=&quot;whiteSpace=wrap;html=1;aspect=fixed;fillColor=none;strokeColor=none;&quot; vertex=&quot;1&quot; parent=&quot;1&quot;&gt;&#xA;          &lt;mxGeometry x=&quot;240&quot; y=&quot;400&quot; width=&quot;120&quot; height=&quot;120&quot; as=&quot;geometry&quot; /&gt;&#xA;        &lt;/mxCell&gt;&#xA;        &lt;mxCell id=&quot;vfndzH383yozpPz_Wz0S-17&quot; value=&quot;&quot; style=&quot;whiteSpace=wrap;html=1;aspect=fixed;fillColor=none;strokeColor=none;&quot; vertex=&quot;1&quot; parent=&quot;1&quot;&gt;&#xA;          &lt;mxGeometry x=&quot;400&quot; y=&quot;400&quot; width=&quot;120&quot; height=&quot;120&quot; as=&quot;geometry&quot; /&gt;&#xA;        &lt;/mxCell&gt;&#xA;        &lt;mxCell id=&quot;vfndzH383yozpPz_Wz0S-16&quot; value=&quot;&quot; style=&quot;whiteSpace=wrap;html=1;aspect=fixed;fillColor=none;strokeColor=none;&quot; vertex=&quot;1&quot; parent=&quot;1&quot;&gt;&#xA;          &lt;mxGeometry x=&quot;80&quot; y=&quot;400&quot; width=&quot;120&quot; height=&quot;120&quot; as=&quot;geometry&quot; /&gt;&#xA;        &lt;/mxCell&gt;&#xA;        &lt;mxCell id=&quot;vfndzH383yozpPz_Wz0S-14&quot; value=&quot;&quot; style=&quot;html=1;shadow=0;dashed=0;align=center;verticalAlign=middle;shape=mxgraph.arrows2.uTurnArrow;dy=12.91;arrowHead=55.83;dx2=29.67;flipV=0;flipH=1;direction=south;sketch=1;curveFitting=1;jiggle=2;fillStyle=solid;fillColor=#EBCB8B;strokeWidth=3;strokeColor=#2E3440;&quot; vertex=&quot;1&quot; parent=&quot;1&quot;&gt;&#xA;          &lt;mxGeometry x=&quot;85&quot; y=&quot;420&quot; width=&quot;110&quot; height=&quot;70&quot; as=&quot;geometry&quot; /&gt;&#xA;        &lt;/mxCell&gt;&#xA;        &lt;mxCell id=&quot;vfndzH383yozpPz_Wz0S-21&quot; value=&quot;&quot; style=&quot;html=1;shadow=0;dashed=0;align=center;verticalAlign=middle;shape=mxgraph.arrows2.arrow;dy=0.56;dx=38.78;flipH=1;notch=0;sketch=1;curveFitting=1;jiggle=2;fillStyle=solid;fillColor=#EBCB8B;strokeWidth=3;strokeColor=#2E3440;rotation=90;&quot; vertex=&quot;1&quot; parent=&quot;1&quot;&gt;&#xA;          &lt;mxGeometry x=&quot;274&quot; y=&quot;460&quot; width=&quot;51&quot; height=&quot;60&quot; as=&quot;geometry&quot; /&gt;&#xA;        &lt;/mxCell&gt;&#xA;        &lt;mxCell id=&quot;vfndzH383yozpPz_Wz0S-25&quot; value=&quot;&quot; style=&quot;html=1;shadow=0;dashed=0;align=center;verticalAlign=middle;shape=mxgraph.arrows2.arrow;dy=0.56;dx=38.78;flipH=1;notch=0;sketch=1;curveFitting=1;jiggle=2;fillStyle=solid;fillColor=#EBCB8B;strokeWidth=3;strokeColor=#2E3440;rotation=90;direction=west;&quot; vertex=&quot;1&quot; parent=&quot;1&quot;&gt;&#xA;          &lt;mxGeometry x=&quot;273.99999999999994&quot; y=&quot;400&quot; width=&quot;51&quot; height=&quot;60&quot; as=&quot;geometry&quot; /&gt;&#xA;        &lt;/mxCell&gt;&#xA;        &lt;mxCell id=&quot;vfndzH383yozpPz_Wz0S-27&quot; value=&quot;&quot; style=&quot;html=1;shadow=0;dashed=0;align=center;verticalAlign=middle;shape=mxgraph.arrows2.arrow;dy=0.56;dx=38.78;flipH=1;notch=0;sketch=1;curveFitting=1;jiggle=2;fillStyle=solid;fillColor=#EBCB8B;strokeWidth=3;strokeColor=#2E3440;rotation=90;direction=south;&quot; vertex=&quot;1&quot; parent=&quot;1&quot;&gt;&#xA;          &lt;mxGeometry x=&quot;460&quot; y=&quot;434.5&quot; width=&quot;60&quot; height=&quot;51&quot; as=&quot;geometry&quot; /&gt;&#xA;        &lt;/mxCell&gt;&#xA;        &lt;mxCell id=&quot;vfndzH383yozpPz_Wz0S-28&quot; value=&quot;&quot; style=&quot;html=1;shadow=0;dashed=0;align=center;verticalAlign=middle;shape=mxgraph.arrows2.arrow;dy=0.56;dx=38.78;flipH=1;notch=0;sketch=1;curveFitting=1;jiggle=2;fillStyle=solid;fillColor=#EBCB8B;strokeWidth=3;strokeColor=#2E3440;rotation=90;direction=north;&quot; vertex=&quot;1&quot; parent=&quot;1&quot;&gt;&#xA;          &lt;mxGeometry x=&quot;399.99999999999994&quot; y=&quot;434.5&quot; width=&quot;60&quot; height=&quot;51&quot; as=&quot;geometry&quot; /&gt;&#xA;        &lt;/mxCell&gt;&#xA;        &lt;mxCell id=&quot;vfndzH383yozpPz_Wz0S-30&quot; value=&quot;&quot; style=&quot;whiteSpace=wrap;html=1;aspect=fixed;fillColor=none;strokeColor=none;&quot; vertex=&quot;1&quot; parent=&quot;1&quot;&gt;&#xA;          &lt;mxGeometry x=&quot;239.5&quot; y=&quot;240&quot; width=&quot;120&quot; height=&quot;120&quot; as=&quot;geometry&quot; /&gt;&#xA;        &lt;/mxCell&gt;&#xA;        &lt;mxCell id=&quot;vfndzH383yozpPz_Wz0S-31&quot; value=&quot;&quot; style=&quot;html=1;shadow=0;dashed=0;align=center;verticalAlign=middle;shape=mxgraph.arrows2.arrow;dy=0.56;dx=38.78;flipH=0;notch=0;sketch=1;curveFitting=1;jiggle=2;fillStyle=solid;fillColor=#EBCB8B;strokeWidth=3;strokeColor=#2E3440;rotation=90;&quot; vertex=&quot;1&quot; parent=&quot;1&quot;&gt;&#xA;          &lt;mxGeometry x=&quot;273.5&quot; y=&quot;300&quot; width=&quot;51&quot; height=&quot;60&quot; as=&quot;geometry&quot; /&gt;&#xA;        &lt;/mxCell&gt;&#xA;        &lt;mxCell id=&quot;vfndzH383yozpPz_Wz0S-32&quot; value=&quot;&quot; style=&quot;html=1;shadow=0;dashed=0;align=center;verticalAlign=middle;shape=mxgraph.arrows2.arrow;dy=0.56;dx=38.78;flipH=0;notch=0;sketch=1;curveFitting=1;jiggle=2;fillStyle=solid;fillColor=#EBCB8B;strokeWidth=3;strokeColor=#2E3440;rotation=90;direction=west;flipV=0;&quot; vertex=&quot;1&quot; parent=&quot;1&quot;&gt;&#xA;          &lt;mxGeometry x=&quot;273.49999999999994&quot; y=&quot;240&quot; width=&quot;51&quot; height=&quot;60&quot; as=&quot;geometry&quot; /&gt;&#xA;        &lt;/mxCell&gt;&#xA;        &lt;mxCell id=&quot;vfndzH383yozpPz_Wz0S-33&quot; value=&quot;&quot; style=&quot;whiteSpace=wrap;html=1;aspect=fixed;fillColor=none;strokeColor=none;&quot; vertex=&quot;1&quot; parent=&quot;1&quot;&gt;&#xA;          &lt;mxGeometry x=&quot;400&quot; y=&quot;240&quot; width=&quot;120&quot; height=&quot;120&quot; as=&quot;geometry&quot; /&gt;&#xA;        &lt;/mxCell&gt;&#xA;        &lt;mxCell id=&quot;vfndzH383yozpPz_Wz0S-34&quot; value=&quot;&quot; style=&quot;html=1;shadow=0;dashed=0;align=center;verticalAlign=middle;shape=mxgraph.arrows2.arrow;dy=0.56;dx=38.78;flipH=1;notch=0;sketch=1;curveFitting=1;jiggle=2;fillStyle=solid;fillColor=#EBCB8B;strokeWidth=3;strokeColor=#2E3440;rotation=90;direction=south;flipV=1;&quot; vertex=&quot;1&quot; parent=&quot;1&quot;&gt;&#xA;          &lt;mxGeometry x=&quot;460&quot; y=&quot;274.5&quot; width=&quot;60&quot; height=&quot;51&quot; as=&quot;geometry&quot; /&gt;&#xA;        &lt;/mxCell&gt;&#xA;        &lt;mxCell id=&quot;vfndzH383yozpPz_Wz0S-36&quot; value=&quot;&quot; style=&quot;endArrow=none;dashed=1;html=1;strokeWidth=4;rounded=0;strokeColor=#5E81AC;entryX=0.5;entryY=0;entryDx=0;entryDy=0;exitX=0.5;exitY=1;exitDx=0;exitDy=0;dashPattern=1 1;&quot; edge=&quot;1&quot; parent=&quot;1&quot; source=&quot;vfndzH383yozpPz_Wz0S-29&quot; target=&quot;vfndzH383yozpPz_Wz0S-29&quot;&gt;&#xA;          &lt;mxGeometry width=&quot;50&quot; height=&quot;50&quot; relative=&quot;1&quot; as=&quot;geometry&quot;&gt;&#xA;            &lt;mxPoint x=&quot;160&quot; y=&quot;320&quot; as=&quot;sourcePoint&quot; /&gt;&#xA;            &lt;mxPoint x=&quot;210&quot; y=&quot;270&quot; as=&quot;targetPoint&quot; /&gt;&#xA;          &lt;/mxGeometry&gt;&#xA;        &lt;/mxCell&gt;&#xA;        &lt;mxCell id=&quot;vfndzH383yozpPz_Wz0S-35&quot; value=&quot;&quot; style=&quot;html=1;shadow=0;dashed=0;align=center;verticalAlign=middle;shape=mxgraph.arrows2.arrow;dy=0.56;dx=38.78;flipH=1;notch=0;sketch=1;curveFitting=1;jiggle=2;fillStyle=solid;fillColor=#EBCB8B;strokeWidth=3;strokeColor=#2E3440;rotation=90;direction=north;flipV=1;&quot; vertex=&quot;1&quot; parent=&quot;1&quot;&gt;&#xA;          &lt;mxGeometry x=&quot;399.99999999999994&quot; y=&quot;274.5&quot; width=&quot;60&quot; height=&quot;51&quot; as=&quot;geometry&quot; /&gt;&#xA;        &lt;/mxCell&gt;&#xA;        &lt;mxCell id=&quot;vfndzH383yozpPz_Wz0S-13&quot; value=&quot;&quot; style=&quot;html=1;shadow=0;dashed=0;align=center;verticalAlign=middle;shape=mxgraph.arrows2.twoWayArrow;dy=0.6;dx=35;sketch=1;curveFitting=1;jiggle=2;fillStyle=solid;fillColor=#EBCB8B;strokeColor=#2E3440;strokeWidth=3;&quot; vertex=&quot;1&quot; parent=&quot;1&quot;&gt;&#xA;          &lt;mxGeometry x=&quot;85&quot; y=&quot;270&quot; width=&quot;110&quot; height=&quot;60&quot; as=&quot;geometry&quot; /&gt;&#xA;        &lt;/mxCell&gt;&#xA;      &lt;/root&gt;&#xA;    &lt;/mxGraphModel&gt;&#xA;  &lt;/diagram&gt;&#xA;&lt;/mxfile&gt;&#xA;"><defs/><g><g data-cell-id="0"><g data-cell-id="1"><g data-cell-id="vfndzH383yozpPz_Wz0S-29"><g><rect x="0" y="2" width="120" height="120" fill="none" stroke="none" pointer-events="all"/></g></g><g data-cell-id="vfndzH383yozpPz_Wz0S-26"><g><rect x="160" y="162" width="120" height="120" fill="none" stroke="none" pointer-events="all"/></g></g><g data-cell-id="vfndzH383yozpPz_Wz0S-17"><g><rect x="320" y="162" width="120" height="120" fill="none" stroke="none" pointer-events="all"/></g></g><g data-cell-id="vfndzH383yozpPz_Wz0S-16"><g><rect x="0" y="162" width="120" height="120" fill="none" stroke="none" pointer-events="all"/></g></g><g data-cell-id="vfndzH383yozpPz_Wz0S-14"><g><path d="M 72.5 162 L 102.17 189.91 L 72.5 217.83 L 72.5 202.82 C 60.53 202.82 50.82 212.53 50.82 224.5 C 50.82 236.47 60.53 246.18 72.5 246.18 L 95 246.18 L 95 272 L 72.5 272 C 46.27 272 25 250.73 25 224.5 C 25 198.27 46.27 177 72.5 177 Z" fill="none" stroke="none" transform="translate(0,217)scale(1,-1)translate(0,-217)rotate(-90,60,217)" pointer-events="all"/><path d="M 72.5 162 C 78.54 175.31 92.66 187.96 102.17 189.91 C 90.36 199.01 89.77 207.74 72.5 217.83 C 74.06 218.61 73.81 210.63 72.5 202.83 C 61.99 208.18 47.41 213 50.82 224.5 C 46.88 234.25 59.29 245.4 72.5 246.18 C 77.99 241.67 78.67 250.04 95 246.18 C 93.02 254.83 93.46 257.14 95 272 C 90.85 267.45 76.82 273.47 72.5 272 C 41.53 270.08 24.68 252.38 25 224.5 C 25.17 197.82 51.71 173.82 72.5 177 C 74.77 171.66 68.82 170.25 72.5 162" fill="#ebcb8b" style="fill: rgb(235, 203, 139);" stroke="none" transform="translate(0,217)scale(1,-1)translate(0,-217)rotate(-90,60,217)" pointer-events="all"/><path d="M 72.5 162 C 83.61 175.43 96.36 187.23 102.17 189.91 M 72.5 162 C 83.82 170.17 93.8 179.86 102.17 189.91 M 102.17 189.91 C 90.5 202.2 77.76 212.06 72.5 217.83 M 102.17 189.91 C 90.66 201.94 79.05 212.59 72.5 217.83 M 72.5 217.83 C 71.45 212.44 74.89 208.73 72.5 202.83 M 72.5 217.83 C 71.36 212.39 72.95 209.78 72.5 202.83 M 72.5 202.83 C 62.64 203.02 50.44 214.62 50.82 224.5 M 72.5 202.83 C 61.9 206.6 54.93 214.8 50.82 224.5 M 50.82 224.5 C 54.2 234.35 60.95 247.09 72.5 246.18 M 50.82 224.5 C 51.81 236.44 56.54 250.41 72.5 246.18 M 72.5 246.18 C 82.04 244.36 86.83 246.01 95 246.18 M 72.5 246.18 C 80.26 247.11 89.42 245.27 95 246.18 M 95 246.18 C 95.07 257.26 95.82 257.93 95 272 M 95 246.18 C 93.26 254.3 93.96 261.95 95 272 M 95 272 C 86.59 271.37 78.94 274.91 72.5 272 M 95 272 C 87.76 271.53 79.5 271.13 72.5 272 M 72.5 272 C 46.5 268.93 27.66 250.67 25 224.5 M 72.5 272 C 42.61 274.99 24.98 248.93 25 224.5 M 25 224.5 C 28.59 194.48 46.77 173.68 72.5 177 M 25 224.5 C 20.61 199.77 41.7 173.58 72.5 177 M 72.5 177 C 73.82 170.13 71.37 169.98 72.5 162 M 72.5 177 C 71.83 169.88 71 164.59 72.5 162" fill="none" stroke="#2e3440" style="stroke: rgb(46, 52, 64);" stroke-width="3" stroke-linejoin="round" stroke-linecap="round" stroke-miterlimit="10" transform="translate(0,217)scale(1,-1)translate(0,-217)rotate(-90,60,217)" pointer-events="all"/></g></g><g data-cell-id="vfndzH383yozpPz_Wz0S-21"><g><path d="M 194 238.8 L 206.22 238.8 L 206.22 222 L 245 252 L 206.22 282 L 206.22 265.2 L 194 265.2 L 194 252 Z" fill="none" stroke="none" transform="translate(219.5,0)scale(-1,1)translate(-219.5,0)rotate(-90,219.5,252)" pointer-events="all"/><path d="M 194 238.8 C 199.08 237.72 201.85 240.75 206.22 238.8 C 210.84 239.47 210.57 226.98 206.22 222 C 216.37 226.85 228.56 241.04 245 252 C 234.25 267.11 223.49 275.63 206.22 282 C 204.8 279.32 204.93 271.67 206.22 265.2 C 201.79 263.45 202.42 264.44 194 265.2 C 192.4 263.06 194 259.2 194 252 C 196.94 246.37 190.99 245.6 194 238.8" fill="#ebcb8b" style="fill: rgb(235, 203, 139);" stroke="none" transform="translate(219.5,0)scale(-1,1)translate(-219.5,0)rotate(-90,219.5,252)" pointer-events="all"/><path d="M 194 238.8 C 198.58 238.81 202.96 236.62 206.22 238.8 M 194 238.8 C 198.47 237.91 202.99 238.42 206.22 238.8 M 206.22 238.8 C 208.44 235.76 207.16 227.13 206.22 222 M 206.22 238.8 C 207.08 234.13 205.45 228.9 206.22 222 M 206.22 222 C 215.17 228.18 231.49 241.49 245 252 M 206.22 222 C 213.98 231 221.75 237.05 245 252 M 245 252 C 232.96 260.98 220.54 269.36 206.22 282 M 245 252 C 229.47 263.56 215.81 273.94 206.22 282 M 206.22 282 C 207.06 275.13 206.38 269.75 206.22 265.2 M 206.22 282 C 205.98 276.45 206.45 272.48 206.22 265.2 M 206.22 265.2 C 202.56 263.01 197.76 265.17 194 265.2 M 206.22 265.2 C 202.05 265.5 198.5 264.49 194 265.2 M 194 265.2 C 192.68 259.43 192.73 258.42 194 252 M 194 265.2 C 193.3 259.08 192.64 253.97 194 252 M 194 252 C 194.15 249.58 193.4 245.54 194 238.8 M 194 252 C 194.15 247.16 193.96 244.74 194 238.8" fill="none" stroke="#2e3440" style="stroke: rgb(46, 52, 64);" stroke-width="3" stroke-linejoin="round" stroke-linecap="round" stroke-miterlimit="10" transform="translate(219.5,0)scale(-1,1)translate(-219.5,0)rotate(-90,219.5,252)" pointer-events="all"/></g></g><g data-cell-id="vfndzH383yozpPz_Wz0S-25"><g><path d="M 194 178.8 L 206.22 178.8 L 206.22 162 L 245 192 L 206.22 222 L 206.22 205.2 L 194 205.2 L 194 192 Z" fill="none" stroke="none" transform="translate(219.5,0)scale(-1,1)translate(-219.5,0)rotate(-270,219.5,192)" pointer-events="all"/><path d="M 194 178.8 C 194.93 175.3 204.58 176.78 206.22 178.8 C 203.93 170.75 208.08 171.84 206.22 162 C 219.47 170.71 219.18 180.1 245 192 C 231.13 196.12 228.2 199.92 206.22 222 C 205.64 219.32 210.68 210.11 206.22 205.2 C 205.46 203.06 198.99 206.57 194 205.2 C 196.16 201.98 197.27 200.93 194 192 C 197.79 189.36 194.08 183.03 194 178.8" fill="#ebcb8b" style="fill: rgb(235, 203, 139);" stroke="none" transform="translate(219.5,0)scale(-1,1)translate(-219.5,0)rotate(-270,219.5,192)" pointer-events="all"/><path d="M 194 178.8 C 197.88 178.92 201.4 177.71 206.22 178.8 M 194 178.8 C 195.62 178.85 199.13 177.98 206.22 178.8 M 206.22 178.8 C 205.58 171.2 203.36 168.05 206.22 162 M 206.22 178.8 C 205.01 170.87 206.06 165.84 206.22 162 M 206.22 162 C 221.03 171.6 238.95 182.29 245 192 M 206.22 162 C 222.97 172.41 237.28 186.46 245 192 M 245 192 C 238.22 200.17 223.49 205.91 206.22 222 M 245 192 C 230.06 203.58 213.5 216.87 206.22 222 M 206.22 222 C 204.97 215.54 203.06 210.2 206.22 205.2 M 206.22 222 C 205.18 218.02 206.11 213.52 206.22 205.2 M 206.22 205.2 C 200.94 203.64 197.14 203.91 194 205.2 M 206.22 205.2 C 202.44 205.81 198.25 206.5 194 205.2 M 194 205.2 C 192.45 200.33 194.86 196.23 194 192 M 194 205.2 C 192.97 200.99 193.81 195.59 194 192 M 194 192 C 194.75 190.26 194.37 187.47 194 178.8 M 194 192 C 194.9 185.83 193.33 182.98 194 178.8" fill="none" stroke="#2e3440" style="stroke: rgb(46, 52, 64);" stroke-width="3" stroke-linejoin="round" stroke-linecap="round" stroke-miterlimit="10" transform="translate(219.5,0)scale(-1,1)translate(-219.5,0)rotate(-270,219.5,192)" pointer-events="all"/></g></g><g data-cell-id="vfndzH383yozpPz_Wz0S-27"><g><path d="M 384.5 208.8 L 396.72 208.8 L 396.72 192 L 435.5 222 L 396.72 252 L 396.72 235.2 L 384.5 235.2 L 384.5 222 Z" fill="none" stroke="none" transform="translate(0,222)scale(1,-1)translate(0,-222)rotate(-180,410,222)" pointer-events="all"/><path d="M 384.5 208.8 C 388.97 210.93 387.15 208.22 396.72 208.8 C 400.85 205.79 393.1 194.87 396.72 192 C 409.8 201.13 423.95 205.52 435.5 222 C 422.64 235.91 419.75 234.75 396.72 252 C 396.09 249.32 398.88 239.34 396.72 235.2 C 390.95 232.86 391.2 237.63 384.5 235.2 C 385.21 229.06 382.39 227.05 384.5 222 C 380.96 220.85 382.06 215.43 384.5 208.8" fill="#ebcb8b" style="fill: rgb(235, 203, 139);" stroke="none" transform="translate(0,222)scale(1,-1)translate(0,-222)rotate(-180,410,222)" pointer-events="all"/><path d="M 384.5 208.8 C 390.47 211.18 396.01 210.46 396.72 208.8 M 384.5 208.8 C 388.36 209.56 392.59 209.23 396.72 208.8 M 396.72 208.8 C 395.33 200.6 396 198.51 396.72 192 M 396.72 208.8 C 396.84 204.29 397.53 195.98 396.72 192 M 396.72 192 C 405.98 203.54 420.83 209.91 435.5 222 M 396.72 192 C 405.02 199.11 414.83 209.17 435.5 222 M 435.5 222 C 420.08 231.22 412.31 238.63 396.72 252 M 435.5 222 C 422.73 230.59 410.59 240.33 396.72 252 M 396.72 252 C 394.43 245.75 395.25 247.14 396.72 235.2 M 396.72 252 C 395.28 247.12 396.44 242.36 396.72 235.2 M 396.72 235.2 C 395.52 234.19 389.77 235.96 384.5 235.2 M 396.72 235.2 C 394.36 235.48 391.07 234.57 384.5 235.2 M 384.5 235.2 C 382.84 232.09 383.78 225.14 384.5 222 M 384.5 235.2 C 385.15 230.62 385.42 226.4 384.5 222 M 384.5 222 C 385.28 217.96 385.08 213.16 384.5 208.8 M 384.5 222 C 384.2 217.8 384.56 213.41 384.5 208.8" fill="none" stroke="#2e3440" style="stroke: rgb(46, 52, 64);" stroke-width="3" stroke-linejoin="round" stroke-linecap="round" stroke-miterlimit="10" transform="translate(0,222)scale(1,-1)translate(0,-222)rotate(-180,410,222)" pointer-events="all"/></g></g><g data-cell-id="vfndzH383yozpPz_Wz0S-28"><g><path d="M 324.5 208.8 L 336.72 208.8 L 336.72 192 L 375.5 222 L 336.72 252 L 336.72 235.2 L 324.5 235.2 L 324.5 222 Z" fill="none" stroke="none" transform="translate(0,222)scale(1,-1)translate(0,-222)rotate(-360,350,222)" pointer-events="all"/><path d="M 324.5 208.8 C 328.54 207.24 329.06 209.28 336.72 208.8 C 334.65 206.64 335.07 192.72 336.72 192 C 340.24 203.93 352.13 202.83 375.5 222 C 363.14 235.21 354.67 242.77 336.72 252 C 341.23 244.62 333.5 248.36 336.72 235.2 C 335.29 236.18 328.63 238.16 324.5 235.2 C 324.12 232.35 326.72 223.52 324.5 222 C 321.36 217.9 324.86 212.94 324.5 208.8" fill="#ebcb8b" style="fill: rgb(235, 203, 139);" stroke="none" transform="translate(0,222)scale(1,-1)translate(0,-222)rotate(-360,350,222)" pointer-events="all"/><path d="M 324.5 208.8 C 329.08 210.11 333.17 209.63 336.72 208.8 M 324.5 208.8 C 328.26 209.68 330.41 208.39 336.72 208.8 M 336.72 208.8 C 334.27 207.02 339.75 198.74 336.72 192 M 336.72 208.8 C 335.48 204.31 337.68 199.42 336.72 192 M 336.72 192 C 351.2 196.5 360.52 204.72 375.5 222 M 336.72 192 C 349.87 200.46 359.31 209.52 375.5 222 M 375.5 222 C 367.04 229.52 354.63 238.76 336.72 252 M 375.5 222 C 366.41 227.54 356.49 235.51 336.72 252 M 336.72 252 C 337.61 247.53 339.8 243.89 336.72 235.2 M 336.72 252 C 336.75 245 338.04 240.1 336.72 235.2 M 336.72 235.2 C 331.45 236.91 325.95 236.99 324.5 235.2 M 336.72 235.2 C 333.85 235.56 329.78 235.08 324.5 235.2 M 324.5 235.2 C 322.78 234.3 325.63 227.23 324.5 222 M 324.5 235.2 C 324.14 230.44 325.44 228.13 324.5 222 M 324.5 222 C 325.57 219.45 322.81 213.64 324.5 208.8 M 324.5 222 C 323.6 218.79 323.61 213.63 324.5 208.8" fill="none" stroke="#2e3440" style="stroke: rgb(46, 52, 64);" stroke-width="3" stroke-linejoin="round" stroke-linecap="round" stroke-miterlimit="10" transform="translate(0,222)scale(1,-1)translate(0,-222)rotate(-360,350,222)" pointer-events="all"/></g></g><g data-cell-id="vfndzH383yozpPz_Wz0S-30"><g><rect x="159.5" y="2" width="120" height="120" fill="none" stroke="none" pointer-events="all"/></g></g><g data-cell-id="vfndzH383yozpPz_Wz0S-31"><g><path d="M 193.5 78.8 L 205.72 78.8 L 205.72 62 L 244.5 92 L 205.72 122 L 205.72 105.2 L 193.5 105.2 L 193.5 92 Z" fill="none" stroke="none" transform="rotate(90,219,92)" pointer-events="all"/><path d="M 193.5 78.8 C 199.98 77.76 200.72 77.38 205.72 78.8 C 201.68 78.07 209.85 67.71 205.72 62 C 220.87 72.45 237.18 83.02 244.5 92 C 234.98 106.4 216.63 114.87 205.72 122 C 205.84 120.69 208.76 111.72 205.72 105.2 C 198.95 103.8 197.58 107.22 193.5 105.2 C 195.71 98.49 195.39 94.41 193.5 92 C 194.75 88.4 196.9 84.37 193.5 78.8" fill="#ebcb8b" style="fill: rgb(235, 203, 139);" stroke="none" transform="rotate(90,219,92)" pointer-events="all"/><path d="M 193.5 78.8 C 198.78 78.83 202.57 79.32 205.72 78.8 M 193.5 78.8 C 197.24 78.49 203.17 78.72 205.72 78.8 M 205.72 78.8 C 208.29 76.54 208.15 67.52 205.72 62 M 205.72 78.8 C 206.89 74.94 204.95 67.82 205.72 62 M 205.72 62 C 217.6 74.82 228.79 85.28 244.5 92 M 205.72 62 C 217.26 69.55 227.14 80.66 244.5 92 M 244.5 92 C 238.29 97.6 228.26 104.92 205.72 122 M 244.5 92 C 232.13 100.1 220.79 109.53 205.72 122 M 205.72 122 C 208.2 116.64 202.94 109.83 205.72 105.2 M 205.72 122 C 206.98 114.33 204.33 109.63 205.72 105.2 M 205.72 105.2 C 202.97 107.22 201.01 105.75 193.5 105.2 M 205.72 105.2 C 200.32 105.47 197.29 105.42 193.5 105.2 M 193.5 105.2 C 191.44 99.1 192.57 94.64 193.5 92 M 193.5 105.2 C 194.86 101.31 194.57 97.32 193.5 92 M 193.5 92 C 191.29 88.26 196 84.68 193.5 78.8 M 193.5 92 C 193.97 88.71 193.57 83.59 193.5 78.8" fill="none" stroke="#2e3440" style="stroke: rgb(46, 52, 64);" stroke-width="3" stroke-linejoin="round" stroke-linecap="round" stroke-miterlimit="10" transform="rotate(90,219,92)" pointer-events="all"/></g></g><g data-cell-id="vfndzH383yozpPz_Wz0S-32"><g><path d="M 193.5 18.8 L 205.72 18.8 L 205.72 2 L 244.5 32 L 205.72 62 L 205.72 45.2 L 193.5 45.2 L 193.5 32 Z" fill="none" stroke="none" transform="rotate(270,219,32)" pointer-events="all"/><path d="M 193.5 18.8 C 197.11 20.92 197.74 18.44 205.72 18.8 C 204.89 9.5 202.41 5.57 205.72 2 C 222.51 15.26 225.36 20.33 244.5 32 C 235.48 45.7 222.75 51.69 205.72 62 C 201.58 55.98 203.38 51.33 205.72 45.2 C 205.73 47.12 199.9 47.75 193.5 45.2 C 195.35 44.43 193.06 36.16 193.5 32 C 195.15 25.45 192.31 21.87 193.5 18.8" fill="#ebcb8b" style="fill: rgb(235, 203, 139);" stroke="none" transform="rotate(270,219,32)" pointer-events="all"/><path d="M 193.5 18.8 C 197.38 17.76 204.63 18.49 205.72 18.8 M 193.5 18.8 C 197.14 19.09 198.54 18.36 205.72 18.8 M 205.72 18.8 C 207.91 12.88 205.86 7.75 205.72 2 M 205.72 18.8 C 205.53 14.96 205.1 7.9 205.72 2 M 205.72 2 C 214.83 7.79 228.47 20.09 244.5 32 M 205.72 2 C 216.91 10.9 230.42 21.02 244.5 32 M 244.5 32 C 229.49 41.9 215.07 57.06 205.72 62 M 244.5 32 C 234.62 38.61 225.48 46.27 205.72 62 M 205.72 62 C 204.66 58.43 207.48 46.58 205.72 45.2 M 205.72 62 C 205.1 58.92 205.93 54.09 205.72 45.2 M 205.72 45.2 C 203.78 45.05 197.19 46.78 193.5 45.2 M 205.72 45.2 C 202.25 45.55 198.44 45.92 193.5 45.2 M 193.5 45.2 C 191.39 41.31 194.42 36.73 193.5 32 M 193.5 45.2 C 193.85 41.12 194.59 39.04 193.5 32 M 193.5 32 C 191.05 29.75 193.21 25.16 193.5 18.8 M 193.5 32 C 193.37 27.06 192.62 23.81 193.5 18.8" fill="none" stroke="#2e3440" style="stroke: rgb(46, 52, 64);" stroke-width="3" stroke-linejoin="round" stroke-linecap="round" stroke-miterlimit="10" transform="rotate(270,219,32)" pointer-events="all"/></g></g><g data-cell-id="vfndzH383yozpPz_Wz0S-33"><g><rect x="320" y="2" width="120" height="120" fill="none" stroke="none" pointer-events="all"/></g></g><g data-cell-id="vfndzH383yozpPz_Wz0S-34"><g><path d="M 384.5 48.8 L 396.72 48.8 L 396.72 32 L 435.5 62 L 396.72 92 L 396.72 75.2 L 384.5 75.2 L 384.5 62 Z" fill="none" stroke="none" transform="rotate(360,410,62)" pointer-events="all"/><path d="M 384.5 48.8 C 387.25 49.71 392.55 49.88 396.72 48.8 C 391.96 44.55 396.4 38 396.72 32 C 413.34 43.51 419.43 54.78 435.5 62 C 425.81 72.12 401.91 84.35 396.72 92 C 393.47 85.98 393.02 80.55 396.72 75.2 C 391.73 76.24 392.61 78.13 384.5 75.2 C 384.17 68.87 385.33 64.39 384.5 62 C 386.21 56.94 380.79 54.28 384.5 48.8" fill="#ebcb8b" style="fill: rgb(235, 203, 139);" stroke="none" transform="rotate(360,410,62)" pointer-events="all"/><path d="M 384.5 48.8 C 390.48 50.02 394.85 51.23 396.72 48.8 M 384.5 48.8 C 390.38 49.32 394.95 49.12 396.72 48.8 M 396.72 48.8 C 397.48 42.28 398.32 38.21 396.72 32 M 396.72 48.8 C 397.18 45.02 396.4 41.4 396.72 32 M 396.72 32 C 408.28 39.73 410.85 47.71 435.5 62 M 396.72 32 C 404.66 37.6 413.67 43.72 435.5 62 M 435.5 62 C 427.6 68.5 411.9 79.33 396.72 92 M 435.5 62 C 421.23 70.07 408.77 80.18 396.72 92 M 396.72 92 C 394.62 88.63 393.46 83.52 396.72 75.2 M 396.72 92 C 395.69 88.02 396.76 82.93 396.72 75.2 M 396.72 75.2 C 393.98 75.61 390.32 73.95 384.5 75.2 M 396.72 75.2 C 394.67 75.71 389.32 74.48 384.5 75.2 M 384.5 75.2 C 382.27 70.44 383.84 65.64 384.5 62 M 384.5 75.2 C 383.36 70.75 383.54 67.21 384.5 62 M 384.5 62 C 382.61 57.45 384.95 56.13 384.5 48.8 M 384.5 62 C 383.16 59.03 384.36 56.88 384.5 48.8" fill="none" stroke="#2e3440" style="stroke: rgb(46, 52, 64);" stroke-width="3" stroke-linejoin="round" stroke-linecap="round" stroke-miterlimit="10" transform="rotate(360,410,62)" pointer-events="all"/></g></g><g data-cell-id="vfndzH383yozpPz_Wz0S-36"><g><path d="M 60 122 L 60 2" fill="none" stroke="#5e81ac" style="stroke: rgb(94, 129, 172);" stroke-width="4" stroke-miterlimit="10" stroke-dasharray="4 4" pointer-events="stroke"/></g></g><g data-cell-id="vfndzH383yozpPz_Wz0S-35"><g><path d="M 324.5 48.8 L 336.72 48.8 L 336.72 32 L 375.5 62 L 336.72 92 L 336.72 75.2 L 324.5 75.2 L 324.5 62 Z" fill="none" stroke="none" transform="rotate(540,350,62)" pointer-events="all"/><path d="M 324.5 48.8 C 326.82 45.34 334.45 50.25 336.72 48.8 C 335.17 48.75 338.37 42.57 336.72 32 C 343.78 35.11 358.81 52.09 375.5 62 C 362.86 65.41 363.54 69.16 336.72 92 C 337.68 90.69 336.1 80.16 336.72 75.2 C 336.07 72.71 330.04 71.81 324.5 75.2 C 323.81 67.41 323.01 66.14 324.5 62 C 326.61 61.39 323.6 51.79 324.5 48.8" fill="#ebcb8b" style="fill: rgb(235, 203, 139);" stroke="none" transform="rotate(540,350,62)" pointer-events="all"/><path d="M 324.5 48.8 C 329.08 48.46 332.01 49.91 336.72 48.8 M 324.5 48.8 C 327.83 49.92 330.32 48.77 336.72 48.8 M 336.72 48.8 C 337.11 45.34 336.03 38.44 336.72 32 M 336.72 48.8 C 335.83 45.04 336.55 41.48 336.72 32 M 336.72 32 C 353.26 46.69 366.05 54.52 375.5 62 M 336.72 32 C 345.51 38.95 358.16 48.08 375.5 62 M 375.5 62 C 366.56 66.8 362.22 71.47 336.72 92 M 375.5 62 C 363.72 68.57 353.47 80.91 336.72 92 M 336.72 92 C 337.79 87.06 338 86.99 336.72 75.2 M 336.72 92 C 337.17 85.89 338.36 80.67 336.72 75.2 M 336.72 75.2 C 329.91 73.44 326.5 74.98 324.5 75.2 M 336.72 75.2 C 334.15 75.78 330.48 74.98 324.5 75.2 M 324.5 75.2 C 322.21 72.64 325.69 67.73 324.5 62 M 324.5 75.2 C 325.53 70.57 324.09 68.94 324.5 62 M 324.5 62 C 322.36 56.3 322.16 51.34 324.5 48.8 M 324.5 62 C 325.72 60.02 323.94 57.1 324.5 48.8" fill="none" stroke="#2e3440" style="stroke: rgb(46, 52, 64);" stroke-width="3" stroke-linejoin="round" stroke-linecap="round" stroke-miterlimit="10" transform="rotate(540,350,62)" pointer-events="all"/></g></g><g data-cell-id="vfndzH383yozpPz_Wz0S-13"><g><path d="M 40 50 L 80 50 L 80 32 L 115 62 L 80 92 L 80 74 L 40 74 L 40 92 L 5 62 L 40 32 Z" fill="none" stroke="none" pointer-events="all"/><path d="M 40 50 C 45.55 50.65 60.8 47.14 80 50 C 82.27 40.26 78.46 33.82 80 32 C 92.82 44.11 104.53 50.76 115 62 C 99.95 70.47 96.43 81.47 80 92 C 84.04 87.32 76.53 85.56 80 74 C 74.43 79.47 56.65 75.24 40 74 C 41.26 80.95 36.26 81.12 40 92 C 26.01 85.06 18.01 71.56 5 62 C 13.13 50.07 31.07 43.45 40 32 C 38.89 37.05 36.15 47.15 40 50" fill="#ebcb8b" style="fill: rgb(235, 203, 139);" stroke="none" pointer-events="all"/><path d="M 40 50 C 57.31 46.53 68.31 47.41 80 50 M 40 50 C 49.25 47.72 60.56 49.91 80 50 M 80 50 C 79.75 41.67 80.25 37.57 80 32 M 80 50 C 82 47.78 80.22 40.71 80 32 M 80 32 C 88.72 42.96 98.15 46.82 115 62 M 80 32 C 87.61 41.11 95.68 48.1 115 62 M 115 62 C 105.04 69.42 97.75 74.54 80 92 M 115 62 C 99.99 74.07 85.95 85.86 80 92 M 80 92 C 78.02 83.24 77.95 79.03 80 74 M 80 92 C 81.31 87.37 78.2 83.61 80 74 M 80 74 C 69.75 71.57 60.59 75.5 40 74 M 80 74 C 66.63 74.78 50.54 72.94 40 74 M 40 74 C 39.3 79.42 43.11 89.28 40 92 M 40 74 C 38.26 78.58 39.69 84.51 40 92 M 40 92 C 26.81 83.73 23.92 71.06 5 62 M 40 92 C 24.92 81.13 14.04 67.27 5 62 M 5 62 C 16.06 48.8 26.38 40.91 40 32 M 5 62 C 13.46 56.47 20.62 47.96 40 32 M 40 32 C 42.35 38.16 41.44 45.97 40 50 M 40 32 C 41.3 39.42 41.52 47.41 40 50" fill="none" stroke="#2e3440" style="stroke: rgb(46, 52, 64);" stroke-width="3" stroke-linejoin="round" stroke-linecap="round" stroke-miterlimit="10" pointer-events="all"/></g></g></g></g></g></svg>