<?xml version="1.0" encoding="utf-8" standalone="no"?>
<!DOCTYPE svg PUBLIC "-//W3C//DTD SVG 1.1//EN"
  "http://www.w3.org/Graphics/SVG/1.1/DTD/svg11.dtd">
<svg xmlns:xlink="http://www.w3.org/1999/xlink" width="504pt" height="360pt" viewBox="0 0 504 360" xmlns="http://www.w3.org/2000/svg" version="1.1">
 <metadata>
  <rdf:RDF xmlns:dc="http://purl.org/dc/elements/1.1/" xmlns:cc="http://creativecommons.org/ns#" xmlns:rdf="http://www.w3.org/1999/02/22-rdf-syntax-ns#">
   <cc:Work>
    <dc:type rdf:resource="http://purl.org/dc/dcmitype/StillImage"/>
    <dc:date>None</dc:date>
    <dc:format>image/svg+xml</dc:format>
    <dc:creator>
     <cc:Agent>
      <dc:title>Gergő Pintér</dc:title>
     </cc:Agent>
    </dc:creator>
    <dc:rights>
     <cc:Agent>
      <dc:title>CC BY 4.0</dc:title>
     </cc:Agent>
    </dc:rights>
   </cc:Work>
  </rdf:RDF>
 </metadata>
 <defs>
  <style type="text/css">*{stroke-linejoin: round; stroke-linecap: butt}</style>
 </defs>
 <g id="figure_1">
  <g id="patch_1">
   <path d="M 0 360 
L 504 360 
L 504 0 
L 0 0 
L 0 360 
z
" style="fill: none"/>
  </g>
  <g id="axes_1">
   <g id="patch_2">
    <path d="M 60.02524 318.90101 
L 500.99976 318.90101 
L 500.99976 3.00024 
L 60.02524 3.00024 
L 60.02524 318.90101 
z
" style="fill: none"/>
   </g>
   <g id="patch_3">
    <path d="M 80.069536 318.90101 
L 91.205257 318.90101 
L 91.205257 18.043134 
L 80.069536 18.043134 
z
" clip-path="url(#p774171ed7b)" style="fill: #81a1c1; fill-opacity: 0.75; stroke: #2e3440; stroke-width: 0.986364; stroke-linejoin: miter"/>
   </g>
   <g id="patch_4">
    <path d="M 91.205257 318.90101 
L 102.340977 318.90101 
L 102.340977 151.464413 
L 91.205257 151.464413 
z
" clip-path="url(#p774171ed7b)" style="fill: #81a1c1; fill-opacity: 0.75; stroke: #2e3440; stroke-width: 0.986364; stroke-linejoin: miter"/>
   </g>
   <g id="patch_5">
    <path d="M 102.340977 318.90101 
L 113.476697 318.90101 
L 113.476697 318.90101 
L 102.340977 318.90101 
z
" clip-path="url(#p774171ed7b)" style="fill: #81a1c1; fill-opacity: 0.75; stroke: #2e3440; stroke-width: 0.986364; stroke-linejoin: miter"/>
   </g>
   <g id="patch_6">
    <path d="M 113.476697 318.90101 
L 124.612417 318.90101 
L 124.612417 144.356734 
L 113.476697 144.356734 
z
" clip-path="url(#p774171ed7b)" style="fill: #81a1c1; fill-opacity: 0.75; stroke: #2e3440; stroke-width: 0.986364; stroke-linejoin: miter"/>
   </g>
   <g id="patch_7">
    <path d="M 124.612417 318.90101 
L 135.748137 318.90101 
L 135.748137 269.451875 
L 124.612417 269.451875 
z
" clip-path="url(#p774171ed7b)" style="fill: #81a1c1; fill-opacity: 0.75; stroke: #2e3440; stroke-width: 0.986364; stroke-linejoin: miter"/>
   </g>
   <g id="patch_8">
    <path d="M 135.748137 318.90101 
L 146.883858 318.90101 
L 146.883858 214.722751 
L 135.748137 214.722751 
z
" clip-path="url(#p774171ed7b)" style="fill: #81a1c1; fill-opacity: 0.75; stroke: #2e3440; stroke-width: 0.986364; stroke-linejoin: miter"/>
   </g>
   <g id="patch_9">
    <path d="M 146.883858 318.90101 
L 158.019578 318.90101 
L 158.019578 240.005779 
L 146.883858 240.005779 
z
" clip-path="url(#p774171ed7b)" style="fill: #81a1c1; fill-opacity: 0.75; stroke: #2e3440; stroke-width: 0.986364; stroke-linejoin: miter"/>
   </g>
   <g id="patch_10">
    <path d="M 158.019578 318.90101 
L 169.155298 318.90101 
L 169.155298 259.602664 
L 158.019578 259.602664 
z
" clip-path="url(#p774171ed7b)" style="fill: #81a1c1; fill-opacity: 0.75; stroke: #2e3440; stroke-width: 0.986364; stroke-linejoin: miter"/>
   </g>
   <g id="patch_11">
    <path d="M 169.155298 318.90101 
L 180.291018 318.90101 
L 180.291018 259.907279 
L 169.155298 259.907279 
z
" clip-path="url(#p774171ed7b)" style="fill: #81a1c1; fill-opacity: 0.75; stroke: #2e3440; stroke-width: 0.986364; stroke-linejoin: miter"/>
   </g>
   <g id="patch_12">
    <path d="M 180.291018 318.90101 
L 191.426738 318.90101 
L 191.426738 261.125738 
L 180.291018 261.125738 
z
" clip-path="url(#p774171ed7b)" style="fill: #81a1c1; fill-opacity: 0.75; stroke: #2e3440; stroke-width: 0.986364; stroke-linejoin: miter"/>
   </g>
   <g id="patch_13">
    <path d="M 191.426738 318.90101 
L 202.562459 318.90101 
L 202.562459 258.790358 
L 191.426738 258.790358 
z
" clip-path="url(#p774171ed7b)" style="fill: #81a1c1; fill-opacity: 0.75; stroke: #2e3440; stroke-width: 0.986364; stroke-linejoin: miter"/>
   </g>
   <g id="patch_14">
    <path d="M 202.562459 318.90101 
L 213.698179 318.90101 
L 213.698179 250.768835 
L 202.562459 250.768835 
z
" clip-path="url(#p774171ed7b)" style="fill: #81a1c1; fill-opacity: 0.75; stroke: #2e3440; stroke-width: 0.986364; stroke-linejoin: miter"/>
   </g>
   <g id="patch_15">
    <path d="M 213.698179 318.90101 
L 224.833899 318.90101 
L 224.833899 256.150363 
L 213.698179 256.150363 
z
" clip-path="url(#p774171ed7b)" style="fill: #81a1c1; fill-opacity: 0.75; stroke: #2e3440; stroke-width: 0.986364; stroke-linejoin: miter"/>
   </g>
   <g id="patch_16">
    <path d="M 224.833899 318.90101 
L 235.969619 318.90101 
L 235.969619 244.778077 
L 224.833899 244.778077 
z
" clip-path="url(#p774171ed7b)" style="fill: #81a1c1; fill-opacity: 0.75; stroke: #2e3440; stroke-width: 0.986364; stroke-linejoin: miter"/>
   </g>
   <g id="patch_17">
    <path d="M 235.969619 318.90101 
L 247.105339 318.90101 
L 247.105339 241.630391 
L 235.969619 241.630391 
z
" clip-path="url(#p774171ed7b)" style="fill: #81a1c1; fill-opacity: 0.75; stroke: #2e3440; stroke-width: 0.986364; stroke-linejoin: miter"/>
   </g>
   <g id="patch_18">
    <path d="M 247.105339 318.90101 
L 258.24106 318.90101 
L 258.24106 229.648876 
L 247.105339 229.648876 
z
" clip-path="url(#p774171ed7b)" style="fill: #81a1c1; fill-opacity: 0.75; stroke: #2e3440; stroke-width: 0.986364; stroke-linejoin: miter"/>
   </g>
   <g id="patch_19">
    <path d="M 258.24106 318.90101 
L 269.37678 318.90101 
L 269.37678 227.313496 
L 258.24106 227.313496 
z
" clip-path="url(#p774171ed7b)" style="fill: #81a1c1; fill-opacity: 0.75; stroke: #2e3440; stroke-width: 0.986364; stroke-linejoin: miter"/>
   </g>
   <g id="patch_20">
    <path d="M 269.37678 318.90101 
L 280.5125 318.90101 
L 280.5125 212.285833 
L 269.37678 212.285833 
z
" clip-path="url(#p774171ed7b)" style="fill: #81a1c1; fill-opacity: 0.75; stroke: #2e3440; stroke-width: 0.986364; stroke-linejoin: miter"/>
   </g>
   <g id="patch_21">
    <path d="M 280.5125 318.90101 
L 291.64822 318.90101 
L 291.64822 190.25203 
L 280.5125 190.25203 
z
" clip-path="url(#p774171ed7b)" style="fill: #81a1c1; fill-opacity: 0.75; stroke: #2e3440; stroke-width: 0.986364; stroke-linejoin: miter"/>
   </g>
   <g id="patch_22">
    <path d="M 291.64822 318.90101 
L 302.78394 318.90101 
L 302.78394 177.052055 
L 291.64822 177.052055 
z
" clip-path="url(#p774171ed7b)" style="fill: #81a1c1; fill-opacity: 0.75; stroke: #2e3440; stroke-width: 0.986364; stroke-linejoin: miter"/>
   </g>
   <g id="patch_23">
    <path d="M 302.78394 318.90101 
L 313.919661 318.90101 
L 313.919661 150.855183 
L 302.78394 150.855183 
z
" clip-path="url(#p774171ed7b)" style="fill: #81a1c1; fill-opacity: 0.75; stroke: #2e3440; stroke-width: 0.986364; stroke-linejoin: miter"/>
   </g>
   <g id="patch_24">
    <path d="M 313.919661 318.90101 
L 325.055381 318.90101 
L 325.055381 138.670591 
L 313.919661 138.670591 
z
" clip-path="url(#p774171ed7b)" style="fill: #81a1c1; fill-opacity: 0.75; stroke: #2e3440; stroke-width: 0.986364; stroke-linejoin: miter"/>
   </g>
   <g id="patch_25">
    <path d="M 325.055381 318.90101 
L 336.191101 318.90101 
L 336.191101 127.298306 
L 325.055381 127.298306 
z
" clip-path="url(#p774171ed7b)" style="fill: #81a1c1; fill-opacity: 0.75; stroke: #2e3440; stroke-width: 0.986364; stroke-linejoin: miter"/>
   </g>
   <g id="patch_26">
    <path d="M 336.191101 318.90101 
L 347.326821 318.90101 
L 347.326821 113.692178 
L 336.191101 113.692178 
z
" clip-path="url(#p774171ed7b)" style="fill: #81a1c1; fill-opacity: 0.75; stroke: #2e3440; stroke-width: 0.986364; stroke-linejoin: miter"/>
   </g>
   <g id="patch_27">
    <path d="M 347.326821 318.90101 
L 358.462541 318.90101 
L 358.462541 98.664515 
L 347.326821 98.664515 
z
" clip-path="url(#p774171ed7b)" style="fill: #81a1c1; fill-opacity: 0.75; stroke: #2e3440; stroke-width: 0.986364; stroke-linejoin: miter"/>
   </g>
   <g id="patch_28">
    <path d="M 358.462541 318.90101 
L 369.598262 318.90101 
L 369.598262 114.301408 
L 358.462541 114.301408 
z
" clip-path="url(#p774171ed7b)" style="fill: #81a1c1; fill-opacity: 0.75; stroke: #2e3440; stroke-width: 0.986364; stroke-linejoin: miter"/>
   </g>
   <g id="patch_29">
    <path d="M 369.598262 318.90101 
L 380.733982 318.90101 
L 380.733982 143.645966 
L 369.598262 143.645966 
z
" clip-path="url(#p774171ed7b)" style="fill: #81a1c1; fill-opacity: 0.75; stroke: #2e3440; stroke-width: 0.986364; stroke-linejoin: miter"/>
   </g>
   <g id="patch_30">
    <path d="M 380.733982 318.90101 
L 391.869702 318.90101 
L 391.869702 219.698126 
L 380.733982 219.698126 
z
" clip-path="url(#p774171ed7b)" style="fill: #81a1c1; fill-opacity: 0.75; stroke: #2e3440; stroke-width: 0.986364; stroke-linejoin: miter"/>
   </g>
   <g id="patch_31">
    <path d="M 391.869702 318.90101 
L 403.005422 318.90101 
L 403.005422 278.793396 
L 391.869702 278.793396 
z
" clip-path="url(#p774171ed7b)" style="fill: #81a1c1; fill-opacity: 0.75; stroke: #2e3440; stroke-width: 0.986364; stroke-linejoin: miter"/>
   </g>
   <g id="patch_32">
    <path d="M 403.005422 318.90101 
L 414.141142 318.90101 
L 414.141142 305.396421 
L 403.005422 305.396421 
z
" clip-path="url(#p774171ed7b)" style="fill: #81a1c1; fill-opacity: 0.75; stroke: #2e3440; stroke-width: 0.986364; stroke-linejoin: miter"/>
   </g>
   <g id="patch_33">
    <path d="M 414.141142 318.90101 
L 425.276863 318.90101 
L 425.276863 315.651786 
L 414.141142 315.651786 
z
" clip-path="url(#p774171ed7b)" style="fill: #81a1c1; fill-opacity: 0.75; stroke: #2e3440; stroke-width: 0.986364; stroke-linejoin: miter"/>
   </g>
   <g id="patch_34">
    <path d="M 425.276863 318.90101 
L 436.412583 318.90101 
L 436.412583 317.581013 
L 425.276863 317.581013 
z
" clip-path="url(#p774171ed7b)" style="fill: #81a1c1; fill-opacity: 0.75; stroke: #2e3440; stroke-width: 0.986364; stroke-linejoin: miter"/>
   </g>
   <g id="patch_35">
    <path d="M 436.412583 318.90101 
L 447.548303 318.90101 
L 447.548303 318.190242 
L 436.412583 318.190242 
z
" clip-path="url(#p774171ed7b)" style="fill: #81a1c1; fill-opacity: 0.75; stroke: #2e3440; stroke-width: 0.986364; stroke-linejoin: miter"/>
   </g>
   <g id="patch_36">
    <path d="M 447.548303 318.90101 
L 458.684023 318.90101 
L 458.684023 318.596395 
L 447.548303 318.596395 
z
" clip-path="url(#p774171ed7b)" style="fill: #81a1c1; fill-opacity: 0.75; stroke: #2e3440; stroke-width: 0.986364; stroke-linejoin: miter"/>
   </g>
   <g id="patch_37">
    <path d="M 458.684023 318.90101 
L 469.819743 318.90101 
L 469.819743 318.799472 
L 458.684023 318.799472 
z
" clip-path="url(#p774171ed7b)" style="fill: #81a1c1; fill-opacity: 0.75; stroke: #2e3440; stroke-width: 0.986364; stroke-linejoin: miter"/>
   </g>
   <g id="patch_38">
    <path d="M 469.819743 318.90101 
L 480.955464 318.90101 
L 480.955464 318.799472 
L 469.819743 318.799472 
z
" clip-path="url(#p774171ed7b)" style="fill: #81a1c1; fill-opacity: 0.75; stroke: #2e3440; stroke-width: 0.986364; stroke-linejoin: miter"/>
   </g>
   <g id="matplotlib.axis_1">
    <g id="xtick_1">
     <g id="line2d_1">
      <defs>
       <path id="m10a1ea0304" d="M 0 0 
L 0 3.5 
" style="stroke: #2e3440; stroke-width: 0.8"/>
      </defs>
      <g>
       <use xlink:href="#m10a1ea0304" x="80.069536" y="318.90101" style="fill: #2e3440; stroke: #2e3440; stroke-width: 0.8"/>
      </g>
     </g>
     <g id="text_1">
      <!-- $\mathdefault{10^{0}}$ -->
      <g style="fill: #2e3440" transform="translate(69.509536 335.019135) scale(0.12 -0.12)">
       <defs>
        <path id="DejaVuSans-31" d="M 794 531 
L 1825 531 
L 1825 4091 
L 703 3866 
L 703 4441 
L 1819 4666 
L 2450 4666 
L 2450 531 
L 3481 531 
L 3481 0 
L 794 0 
L 794 531 
z
" transform="scale(0.015625)"/>
        <path id="DejaVuSans-30" d="M 2034 4250 
Q 1547 4250 1301 3770 
Q 1056 3291 1056 2328 
Q 1056 1369 1301 889 
Q 1547 409 2034 409 
Q 2525 409 2770 889 
Q 3016 1369 3016 2328 
Q 3016 3291 2770 3770 
Q 2525 4250 2034 4250 
z
M 2034 4750 
Q 2819 4750 3233 4129 
Q 3647 3509 3647 2328 
Q 3647 1150 3233 529 
Q 2819 -91 2034 -91 
Q 1250 -91 836 529 
Q 422 1150 422 2328 
Q 422 3509 836 4129 
Q 1250 4750 2034 4750 
z
" transform="scale(0.015625)"/>
       </defs>
       <use xlink:href="#DejaVuSans-31" transform="translate(0 0.765625)"/>
       <use xlink:href="#DejaVuSans-30" transform="translate(63.623047 0.765625)"/>
       <use xlink:href="#DejaVuSans-30" transform="translate(128.203125 39.046875) scale(0.7)"/>
      </g>
     </g>
    </g>
    <g id="xtick_2">
     <g id="line2d_2">
      <g>
       <use xlink:href="#m10a1ea0304" x="152.219882" y="318.90101" style="fill: #2e3440; stroke: #2e3440; stroke-width: 0.8"/>
      </g>
     </g>
     <g id="text_2">
      <!-- $\mathdefault{10^{1}}$ -->
      <g style="fill: #2e3440" transform="translate(141.659882 335.019135) scale(0.12 -0.12)">
       <use xlink:href="#DejaVuSans-31" transform="translate(0 0.684375)"/>
       <use xlink:href="#DejaVuSans-30" transform="translate(63.623047 0.684375)"/>
       <use xlink:href="#DejaVuSans-31" transform="translate(128.203125 38.965625) scale(0.7)"/>
      </g>
     </g>
    </g>
    <g id="xtick_3">
     <g id="line2d_3">
      <g>
       <use xlink:href="#m10a1ea0304" x="224.370228" y="318.90101" style="fill: #2e3440; stroke: #2e3440; stroke-width: 0.8"/>
      </g>
     </g>
     <g id="text_3">
      <!-- $\mathdefault{10^{2}}$ -->
      <g style="fill: #2e3440" transform="translate(213.810228 335.019135) scale(0.12 -0.12)">
       <defs>
        <path id="DejaVuSans-32" d="M 1228 531 
L 3431 531 
L 3431 0 
L 469 0 
L 469 531 
Q 828 903 1448 1529 
Q 2069 2156 2228 2338 
Q 2531 2678 2651 2914 
Q 2772 3150 2772 3378 
Q 2772 3750 2511 3984 
Q 2250 4219 1831 4219 
Q 1534 4219 1204 4116 
Q 875 4013 500 3803 
L 500 4441 
Q 881 4594 1212 4672 
Q 1544 4750 1819 4750 
Q 2544 4750 2975 4387 
Q 3406 4025 3406 3419 
Q 3406 3131 3298 2873 
Q 3191 2616 2906 2266 
Q 2828 2175 2409 1742 
Q 1991 1309 1228 531 
z
" transform="scale(0.015625)"/>
       </defs>
       <use xlink:href="#DejaVuSans-31" transform="translate(0 0.765625)"/>
       <use xlink:href="#DejaVuSans-30" transform="translate(63.623047 0.765625)"/>
       <use xlink:href="#DejaVuSans-32" transform="translate(128.203125 39.046875) scale(0.7)"/>
      </g>
     </g>
    </g>
    <g id="xtick_4">
     <g id="line2d_4">
      <g>
       <use xlink:href="#m10a1ea0304" x="296.520574" y="318.90101" style="fill: #2e3440; stroke: #2e3440; stroke-width: 0.8"/>
      </g>
     </g>
     <g id="text_4">
      <!-- $\mathdefault{10^{3}}$ -->
      <g style="fill: #2e3440" transform="translate(285.960574 335.019135) scale(0.12 -0.12)">
       <defs>
        <path id="DejaVuSans-33" d="M 2597 2516 
Q 3050 2419 3304 2112 
Q 3559 1806 3559 1356 
Q 3559 666 3084 287 
Q 2609 -91 1734 -91 
Q 1441 -91 1130 -33 
Q 819 25 488 141 
L 488 750 
Q 750 597 1062 519 
Q 1375 441 1716 441 
Q 2309 441 2620 675 
Q 2931 909 2931 1356 
Q 2931 1769 2642 2001 
Q 2353 2234 1838 2234 
L 1294 2234 
L 1294 2753 
L 1863 2753 
Q 2328 2753 2575 2939 
Q 2822 3125 2822 3475 
Q 2822 3834 2567 4026 
Q 2313 4219 1838 4219 
Q 1578 4219 1281 4162 
Q 984 4106 628 3988 
L 628 4550 
Q 988 4650 1302 4700 
Q 1616 4750 1894 4750 
Q 2613 4750 3031 4423 
Q 3450 4097 3450 3541 
Q 3450 3153 3228 2886 
Q 3006 2619 2597 2516 
z
" transform="scale(0.015625)"/>
       </defs>
       <use xlink:href="#DejaVuSans-31" transform="translate(0 0.765625)"/>
       <use xlink:href="#DejaVuSans-30" transform="translate(63.623047 0.765625)"/>
       <use xlink:href="#DejaVuSans-33" transform="translate(128.203125 39.046875) scale(0.7)"/>
      </g>
     </g>
    </g>
    <g id="xtick_5">
     <g id="line2d_5">
      <g>
       <use xlink:href="#m10a1ea0304" x="368.67092" y="318.90101" style="fill: #2e3440; stroke: #2e3440; stroke-width: 0.8"/>
      </g>
     </g>
     <g id="text_5">
      <!-- $\mathdefault{10^{4}}$ -->
      <g style="fill: #2e3440" transform="translate(358.11092 335.019135) scale(0.12 -0.12)">
       <defs>
        <path id="DejaVuSans-34" d="M 2419 4116 
L 825 1625 
L 2419 1625 
L 2419 4116 
z
M 2253 4666 
L 3047 4666 
L 3047 1625 
L 3713 1625 
L 3713 1100 
L 3047 1100 
L 3047 0 
L 2419 0 
L 2419 1100 
L 313 1100 
L 313 1709 
L 2253 4666 
z
" transform="scale(0.015625)"/>
       </defs>
       <use xlink:href="#DejaVuSans-31" transform="translate(0 0.684375)"/>
       <use xlink:href="#DejaVuSans-30" transform="translate(63.623047 0.684375)"/>
       <use xlink:href="#DejaVuSans-34" transform="translate(128.203125 38.965625) scale(0.7)"/>
      </g>
     </g>
    </g>
    <g id="xtick_6">
     <g id="line2d_6">
      <g>
       <use xlink:href="#m10a1ea0304" x="440.821266" y="318.90101" style="fill: #2e3440; stroke: #2e3440; stroke-width: 0.8"/>
      </g>
     </g>
     <g id="text_6">
      <!-- $\mathdefault{10^{5}}$ -->
      <g style="fill: #2e3440" transform="translate(430.261266 335.019135) scale(0.12 -0.12)">
       <defs>
        <path id="DejaVuSans-35" d="M 691 4666 
L 3169 4666 
L 3169 4134 
L 1269 4134 
L 1269 2991 
Q 1406 3038 1543 3061 
Q 1681 3084 1819 3084 
Q 2600 3084 3056 2656 
Q 3513 2228 3513 1497 
Q 3513 744 3044 326 
Q 2575 -91 1722 -91 
Q 1428 -91 1123 -41 
Q 819 9 494 109 
L 494 744 
Q 775 591 1075 516 
Q 1375 441 1709 441 
Q 2250 441 2565 725 
Q 2881 1009 2881 1497 
Q 2881 1984 2565 2268 
Q 2250 2553 1709 2553 
Q 1456 2553 1204 2497 
Q 953 2441 691 2322 
L 691 4666 
z
" transform="scale(0.015625)"/>
       </defs>
       <use xlink:href="#DejaVuSans-31" transform="translate(0 0.684375)"/>
       <use xlink:href="#DejaVuSans-30" transform="translate(63.623047 0.684375)"/>
       <use xlink:href="#DejaVuSans-35" transform="translate(128.203125 38.965625) scale(0.7)"/>
      </g>
     </g>
    </g>
    <g id="xtick_7">
     <g id="line2d_7">
      <defs>
       <path id="m31ea6a8d62" d="M 0 0 
L 0 2 
" style="stroke: #000000; stroke-width: 0.6"/>
      </defs>
      <g>
       <use xlink:href="#m31ea6a8d62" x="64.063072" y="318.90101" style="stroke: #000000; stroke-width: 0.6"/>
      </g>
     </g>
    </g>
    <g id="xtick_8">
     <g id="line2d_8">
      <g>
       <use xlink:href="#m31ea6a8d62" x="68.893306" y="318.90101" style="stroke: #000000; stroke-width: 0.6"/>
      </g>
     </g>
    </g>
    <g id="xtick_9">
     <g id="line2d_9">
      <g>
       <use xlink:href="#m31ea6a8d62" x="73.077445" y="318.90101" style="stroke: #000000; stroke-width: 0.6"/>
      </g>
     </g>
    </g>
    <g id="xtick_10">
     <g id="line2d_10">
      <g>
       <use xlink:href="#m31ea6a8d62" x="76.768118" y="318.90101" style="stroke: #000000; stroke-width: 0.6"/>
      </g>
     </g>
    </g>
    <g id="xtick_11">
     <g id="line2d_11">
      <g>
       <use xlink:href="#m31ea6a8d62" x="101.788955" y="318.90101" style="stroke: #000000; stroke-width: 0.6"/>
      </g>
     </g>
    </g>
    <g id="xtick_12">
     <g id="line2d_12">
      <g>
       <use xlink:href="#m31ea6a8d62" x="114.494" y="318.90101" style="stroke: #000000; stroke-width: 0.6"/>
      </g>
     </g>
    </g>
    <g id="xtick_13">
     <g id="line2d_13">
      <g>
       <use xlink:href="#m31ea6a8d62" x="123.508373" y="318.90101" style="stroke: #000000; stroke-width: 0.6"/>
      </g>
     </g>
    </g>
    <g id="xtick_14">
     <g id="line2d_14">
      <g>
       <use xlink:href="#m31ea6a8d62" x="130.500464" y="318.90101" style="stroke: #000000; stroke-width: 0.6"/>
      </g>
     </g>
    </g>
    <g id="xtick_15">
     <g id="line2d_15">
      <g>
       <use xlink:href="#m31ea6a8d62" x="136.213418" y="318.90101" style="stroke: #000000; stroke-width: 0.6"/>
      </g>
     </g>
    </g>
    <g id="xtick_16">
     <g id="line2d_16">
      <g>
       <use xlink:href="#m31ea6a8d62" x="141.043652" y="318.90101" style="stroke: #000000; stroke-width: 0.6"/>
      </g>
     </g>
    </g>
    <g id="xtick_17">
     <g id="line2d_17">
      <g>
       <use xlink:href="#m31ea6a8d62" x="145.227791" y="318.90101" style="stroke: #000000; stroke-width: 0.6"/>
      </g>
     </g>
    </g>
    <g id="xtick_18">
     <g id="line2d_18">
      <g>
       <use xlink:href="#m31ea6a8d62" x="148.918464" y="318.90101" style="stroke: #000000; stroke-width: 0.6"/>
      </g>
     </g>
    </g>
    <g id="xtick_19">
     <g id="line2d_19">
      <g>
       <use xlink:href="#m31ea6a8d62" x="173.939301" y="318.90101" style="stroke: #000000; stroke-width: 0.6"/>
      </g>
     </g>
    </g>
    <g id="xtick_20">
     <g id="line2d_20">
      <g>
       <use xlink:href="#m31ea6a8d62" x="186.644346" y="318.90101" style="stroke: #000000; stroke-width: 0.6"/>
      </g>
     </g>
    </g>
    <g id="xtick_21">
     <g id="line2d_21">
      <g>
       <use xlink:href="#m31ea6a8d62" x="195.658719" y="318.90101" style="stroke: #000000; stroke-width: 0.6"/>
      </g>
     </g>
    </g>
    <g id="xtick_22">
     <g id="line2d_22">
      <g>
       <use xlink:href="#m31ea6a8d62" x="202.65081" y="318.90101" style="stroke: #000000; stroke-width: 0.6"/>
      </g>
     </g>
    </g>
    <g id="xtick_23">
     <g id="line2d_23">
      <g>
       <use xlink:href="#m31ea6a8d62" x="208.363764" y="318.90101" style="stroke: #000000; stroke-width: 0.6"/>
      </g>
     </g>
    </g>
    <g id="xtick_24">
     <g id="line2d_24">
      <g>
       <use xlink:href="#m31ea6a8d62" x="213.193998" y="318.90101" style="stroke: #000000; stroke-width: 0.6"/>
      </g>
     </g>
    </g>
    <g id="xtick_25">
     <g id="line2d_25">
      <g>
       <use xlink:href="#m31ea6a8d62" x="217.378137" y="318.90101" style="stroke: #000000; stroke-width: 0.6"/>
      </g>
     </g>
    </g>
    <g id="xtick_26">
     <g id="line2d_26">
      <g>
       <use xlink:href="#m31ea6a8d62" x="221.06881" y="318.90101" style="stroke: #000000; stroke-width: 0.6"/>
      </g>
     </g>
    </g>
    <g id="xtick_27">
     <g id="line2d_27">
      <g>
       <use xlink:href="#m31ea6a8d62" x="246.089647" y="318.90101" style="stroke: #000000; stroke-width: 0.6"/>
      </g>
     </g>
    </g>
    <g id="xtick_28">
     <g id="line2d_28">
      <g>
       <use xlink:href="#m31ea6a8d62" x="258.794692" y="318.90101" style="stroke: #000000; stroke-width: 0.6"/>
      </g>
     </g>
    </g>
    <g id="xtick_29">
     <g id="line2d_29">
      <g>
       <use xlink:href="#m31ea6a8d62" x="267.809065" y="318.90101" style="stroke: #000000; stroke-width: 0.6"/>
      </g>
     </g>
    </g>
    <g id="xtick_30">
     <g id="line2d_30">
      <g>
       <use xlink:href="#m31ea6a8d62" x="274.801156" y="318.90101" style="stroke: #000000; stroke-width: 0.6"/>
      </g>
     </g>
    </g>
    <g id="xtick_31">
     <g id="line2d_31">
      <g>
       <use xlink:href="#m31ea6a8d62" x="280.51411" y="318.90101" style="stroke: #000000; stroke-width: 0.6"/>
      </g>
     </g>
    </g>
    <g id="xtick_32">
     <g id="line2d_32">
      <g>
       <use xlink:href="#m31ea6a8d62" x="285.344344" y="318.90101" style="stroke: #000000; stroke-width: 0.6"/>
      </g>
     </g>
    </g>
    <g id="xtick_33">
     <g id="line2d_33">
      <g>
       <use xlink:href="#m31ea6a8d62" x="289.528483" y="318.90101" style="stroke: #000000; stroke-width: 0.6"/>
      </g>
     </g>
    </g>
    <g id="xtick_34">
     <g id="line2d_34">
      <g>
       <use xlink:href="#m31ea6a8d62" x="293.219156" y="318.90101" style="stroke: #000000; stroke-width: 0.6"/>
      </g>
     </g>
    </g>
    <g id="xtick_35">
     <g id="line2d_35">
      <g>
       <use xlink:href="#m31ea6a8d62" x="318.239993" y="318.90101" style="stroke: #000000; stroke-width: 0.6"/>
      </g>
     </g>
    </g>
    <g id="xtick_36">
     <g id="line2d_36">
      <g>
       <use xlink:href="#m31ea6a8d62" x="330.945038" y="318.90101" style="stroke: #000000; stroke-width: 0.6"/>
      </g>
     </g>
    </g>
    <g id="xtick_37">
     <g id="line2d_37">
      <g>
       <use xlink:href="#m31ea6a8d62" x="339.959411" y="318.90101" style="stroke: #000000; stroke-width: 0.6"/>
      </g>
     </g>
    </g>
    <g id="xtick_38">
     <g id="line2d_38">
      <g>
       <use xlink:href="#m31ea6a8d62" x="346.951502" y="318.90101" style="stroke: #000000; stroke-width: 0.6"/>
      </g>
     </g>
    </g>
    <g id="xtick_39">
     <g id="line2d_39">
      <g>
       <use xlink:href="#m31ea6a8d62" x="352.664456" y="318.90101" style="stroke: #000000; stroke-width: 0.6"/>
      </g>
     </g>
    </g>
    <g id="xtick_40">
     <g id="line2d_40">
      <g>
       <use xlink:href="#m31ea6a8d62" x="357.49469" y="318.90101" style="stroke: #000000; stroke-width: 0.6"/>
      </g>
     </g>
    </g>
    <g id="xtick_41">
     <g id="line2d_41">
      <g>
       <use xlink:href="#m31ea6a8d62" x="361.678829" y="318.90101" style="stroke: #000000; stroke-width: 0.6"/>
      </g>
     </g>
    </g>
    <g id="xtick_42">
     <g id="line2d_42">
      <g>
       <use xlink:href="#m31ea6a8d62" x="365.369502" y="318.90101" style="stroke: #000000; stroke-width: 0.6"/>
      </g>
     </g>
    </g>
    <g id="xtick_43">
     <g id="line2d_43">
      <g>
       <use xlink:href="#m31ea6a8d62" x="390.390339" y="318.90101" style="stroke: #000000; stroke-width: 0.6"/>
      </g>
     </g>
    </g>
    <g id="xtick_44">
     <g id="line2d_44">
      <g>
       <use xlink:href="#m31ea6a8d62" x="403.095384" y="318.90101" style="stroke: #000000; stroke-width: 0.6"/>
      </g>
     </g>
    </g>
    <g id="xtick_45">
     <g id="line2d_45">
      <g>
       <use xlink:href="#m31ea6a8d62" x="412.109757" y="318.90101" style="stroke: #000000; stroke-width: 0.6"/>
      </g>
     </g>
    </g>
    <g id="xtick_46">
     <g id="line2d_46">
      <g>
       <use xlink:href="#m31ea6a8d62" x="419.101848" y="318.90101" style="stroke: #000000; stroke-width: 0.6"/>
      </g>
     </g>
    </g>
    <g id="xtick_47">
     <g id="line2d_47">
      <g>
       <use xlink:href="#m31ea6a8d62" x="424.814802" y="318.90101" style="stroke: #000000; stroke-width: 0.6"/>
      </g>
     </g>
    </g>
    <g id="xtick_48">
     <g id="line2d_48">
      <g>
       <use xlink:href="#m31ea6a8d62" x="429.645036" y="318.90101" style="stroke: #000000; stroke-width: 0.6"/>
      </g>
     </g>
    </g>
    <g id="xtick_49">
     <g id="line2d_49">
      <g>
       <use xlink:href="#m31ea6a8d62" x="433.829175" y="318.90101" style="stroke: #000000; stroke-width: 0.6"/>
      </g>
     </g>
    </g>
    <g id="xtick_50">
     <g id="line2d_50">
      <g>
       <use xlink:href="#m31ea6a8d62" x="437.519848" y="318.90101" style="stroke: #000000; stroke-width: 0.6"/>
      </g>
     </g>
    </g>
    <g id="xtick_51">
     <g id="line2d_51">
      <g>
       <use xlink:href="#m31ea6a8d62" x="462.540685" y="318.90101" style="stroke: #000000; stroke-width: 0.6"/>
      </g>
     </g>
    </g>
    <g id="xtick_52">
     <g id="line2d_52">
      <g>
       <use xlink:href="#m31ea6a8d62" x="475.24573" y="318.90101" style="stroke: #000000; stroke-width: 0.6"/>
      </g>
     </g>
    </g>
    <g id="xtick_53">
     <g id="line2d_53">
      <g>
       <use xlink:href="#m31ea6a8d62" x="484.260103" y="318.90101" style="stroke: #000000; stroke-width: 0.6"/>
      </g>
     </g>
    </g>
    <g id="xtick_54">
     <g id="line2d_54">
      <g>
       <use xlink:href="#m31ea6a8d62" x="491.252194" y="318.90101" style="stroke: #000000; stroke-width: 0.6"/>
      </g>
     </g>
    </g>
    <g id="xtick_55">
     <g id="line2d_55">
      <g>
       <use xlink:href="#m31ea6a8d62" x="496.965148" y="318.90101" style="stroke: #000000; stroke-width: 0.6"/>
      </g>
     </g>
    </g>
    <g id="text_7">
     <!-- number of activities (log-scale) -->
     <g style="fill: #2e3440" transform="translate(155.94625 353.67226) scale(0.16 -0.16)">
      <defs>
       <path id="DejaVuSans-6e" d="M 3513 2113 
L 3513 0 
L 2938 0 
L 2938 2094 
Q 2938 2591 2744 2837 
Q 2550 3084 2163 3084 
Q 1697 3084 1428 2787 
Q 1159 2491 1159 1978 
L 1159 0 
L 581 0 
L 581 3500 
L 1159 3500 
L 1159 2956 
Q 1366 3272 1645 3428 
Q 1925 3584 2291 3584 
Q 2894 3584 3203 3211 
Q 3513 2838 3513 2113 
z
" transform="scale(0.015625)"/>
       <path id="DejaVuSans-75" d="M 544 1381 
L 544 3500 
L 1119 3500 
L 1119 1403 
Q 1119 906 1312 657 
Q 1506 409 1894 409 
Q 2359 409 2629 706 
Q 2900 1003 2900 1516 
L 2900 3500 
L 3475 3500 
L 3475 0 
L 2900 0 
L 2900 538 
Q 2691 219 2414 64 
Q 2138 -91 1772 -91 
Q 1169 -91 856 284 
Q 544 659 544 1381 
z
M 1991 3584 
L 1991 3584 
z
" transform="scale(0.015625)"/>
       <path id="DejaVuSans-6d" d="M 3328 2828 
Q 3544 3216 3844 3400 
Q 4144 3584 4550 3584 
Q 5097 3584 5394 3201 
Q 5691 2819 5691 2113 
L 5691 0 
L 5113 0 
L 5113 2094 
Q 5113 2597 4934 2840 
Q 4756 3084 4391 3084 
Q 3944 3084 3684 2787 
Q 3425 2491 3425 1978 
L 3425 0 
L 2847 0 
L 2847 2094 
Q 2847 2600 2669 2842 
Q 2491 3084 2119 3084 
Q 1678 3084 1418 2786 
Q 1159 2488 1159 1978 
L 1159 0 
L 581 0 
L 581 3500 
L 1159 3500 
L 1159 2956 
Q 1356 3278 1631 3431 
Q 1906 3584 2284 3584 
Q 2666 3584 2933 3390 
Q 3200 3197 3328 2828 
z
" transform="scale(0.015625)"/>
       <path id="DejaVuSans-62" d="M 3116 1747 
Q 3116 2381 2855 2742 
Q 2594 3103 2138 3103 
Q 1681 3103 1420 2742 
Q 1159 2381 1159 1747 
Q 1159 1113 1420 752 
Q 1681 391 2138 391 
Q 2594 391 2855 752 
Q 3116 1113 3116 1747 
z
M 1159 2969 
Q 1341 3281 1617 3432 
Q 1894 3584 2278 3584 
Q 2916 3584 3314 3078 
Q 3713 2572 3713 1747 
Q 3713 922 3314 415 
Q 2916 -91 2278 -91 
Q 1894 -91 1617 61 
Q 1341 213 1159 525 
L 1159 0 
L 581 0 
L 581 4863 
L 1159 4863 
L 1159 2969 
z
" transform="scale(0.015625)"/>
       <path id="DejaVuSans-65" d="M 3597 1894 
L 3597 1613 
L 953 1613 
Q 991 1019 1311 708 
Q 1631 397 2203 397 
Q 2534 397 2845 478 
Q 3156 559 3463 722 
L 3463 178 
Q 3153 47 2828 -22 
Q 2503 -91 2169 -91 
Q 1331 -91 842 396 
Q 353 884 353 1716 
Q 353 2575 817 3079 
Q 1281 3584 2069 3584 
Q 2775 3584 3186 3129 
Q 3597 2675 3597 1894 
z
M 3022 2063 
Q 3016 2534 2758 2815 
Q 2500 3097 2075 3097 
Q 1594 3097 1305 2825 
Q 1016 2553 972 2059 
L 3022 2063 
z
" transform="scale(0.015625)"/>
       <path id="DejaVuSans-72" d="M 2631 2963 
Q 2534 3019 2420 3045 
Q 2306 3072 2169 3072 
Q 1681 3072 1420 2755 
Q 1159 2438 1159 1844 
L 1159 0 
L 581 0 
L 581 3500 
L 1159 3500 
L 1159 2956 
Q 1341 3275 1631 3429 
Q 1922 3584 2338 3584 
Q 2397 3584 2469 3576 
Q 2541 3569 2628 3553 
L 2631 2963 
z
" transform="scale(0.015625)"/>
       <path id="DejaVuSans-20" transform="scale(0.015625)"/>
       <path id="DejaVuSans-6f" d="M 1959 3097 
Q 1497 3097 1228 2736 
Q 959 2375 959 1747 
Q 959 1119 1226 758 
Q 1494 397 1959 397 
Q 2419 397 2687 759 
Q 2956 1122 2956 1747 
Q 2956 2369 2687 2733 
Q 2419 3097 1959 3097 
z
M 1959 3584 
Q 2709 3584 3137 3096 
Q 3566 2609 3566 1747 
Q 3566 888 3137 398 
Q 2709 -91 1959 -91 
Q 1206 -91 779 398 
Q 353 888 353 1747 
Q 353 2609 779 3096 
Q 1206 3584 1959 3584 
z
" transform="scale(0.015625)"/>
       <path id="DejaVuSans-66" d="M 2375 4863 
L 2375 4384 
L 1825 4384 
Q 1516 4384 1395 4259 
Q 1275 4134 1275 3809 
L 1275 3500 
L 2222 3500 
L 2222 3053 
L 1275 3053 
L 1275 0 
L 697 0 
L 697 3053 
L 147 3053 
L 147 3500 
L 697 3500 
L 697 3744 
Q 697 4328 969 4595 
Q 1241 4863 1831 4863 
L 2375 4863 
z
" transform="scale(0.015625)"/>
       <path id="DejaVuSans-61" d="M 2194 1759 
Q 1497 1759 1228 1600 
Q 959 1441 959 1056 
Q 959 750 1161 570 
Q 1363 391 1709 391 
Q 2188 391 2477 730 
Q 2766 1069 2766 1631 
L 2766 1759 
L 2194 1759 
z
M 3341 1997 
L 3341 0 
L 2766 0 
L 2766 531 
Q 2569 213 2275 61 
Q 1981 -91 1556 -91 
Q 1019 -91 701 211 
Q 384 513 384 1019 
Q 384 1609 779 1909 
Q 1175 2209 1959 2209 
L 2766 2209 
L 2766 2266 
Q 2766 2663 2505 2880 
Q 2244 3097 1772 3097 
Q 1472 3097 1187 3025 
Q 903 2953 641 2809 
L 641 3341 
Q 956 3463 1253 3523 
Q 1550 3584 1831 3584 
Q 2591 3584 2966 3190 
Q 3341 2797 3341 1997 
z
" transform="scale(0.015625)"/>
       <path id="DejaVuSans-63" d="M 3122 3366 
L 3122 2828 
Q 2878 2963 2633 3030 
Q 2388 3097 2138 3097 
Q 1578 3097 1268 2742 
Q 959 2388 959 1747 
Q 959 1106 1268 751 
Q 1578 397 2138 397 
Q 2388 397 2633 464 
Q 2878 531 3122 666 
L 3122 134 
Q 2881 22 2623 -34 
Q 2366 -91 2075 -91 
Q 1284 -91 818 406 
Q 353 903 353 1747 
Q 353 2603 823 3093 
Q 1294 3584 2113 3584 
Q 2378 3584 2631 3529 
Q 2884 3475 3122 3366 
z
" transform="scale(0.015625)"/>
       <path id="DejaVuSans-74" d="M 1172 4494 
L 1172 3500 
L 2356 3500 
L 2356 3053 
L 1172 3053 
L 1172 1153 
Q 1172 725 1289 603 
Q 1406 481 1766 481 
L 2356 481 
L 2356 0 
L 1766 0 
Q 1100 0 847 248 
Q 594 497 594 1153 
L 594 3053 
L 172 3053 
L 172 3500 
L 594 3500 
L 594 4494 
L 1172 4494 
z
" transform="scale(0.015625)"/>
       <path id="DejaVuSans-69" d="M 603 3500 
L 1178 3500 
L 1178 0 
L 603 0 
L 603 3500 
z
M 603 4863 
L 1178 4863 
L 1178 4134 
L 603 4134 
L 603 4863 
z
" transform="scale(0.015625)"/>
       <path id="DejaVuSans-76" d="M 191 3500 
L 800 3500 
L 1894 563 
L 2988 3500 
L 3597 3500 
L 2284 0 
L 1503 0 
L 191 3500 
z
" transform="scale(0.015625)"/>
       <path id="DejaVuSans-73" d="M 2834 3397 
L 2834 2853 
Q 2591 2978 2328 3040 
Q 2066 3103 1784 3103 
Q 1356 3103 1142 2972 
Q 928 2841 928 2578 
Q 928 2378 1081 2264 
Q 1234 2150 1697 2047 
L 1894 2003 
Q 2506 1872 2764 1633 
Q 3022 1394 3022 966 
Q 3022 478 2636 193 
Q 2250 -91 1575 -91 
Q 1294 -91 989 -36 
Q 684 19 347 128 
L 347 722 
Q 666 556 975 473 
Q 1284 391 1588 391 
Q 1994 391 2212 530 
Q 2431 669 2431 922 
Q 2431 1156 2273 1281 
Q 2116 1406 1581 1522 
L 1381 1569 
Q 847 1681 609 1914 
Q 372 2147 372 2553 
Q 372 3047 722 3315 
Q 1072 3584 1716 3584 
Q 2034 3584 2315 3537 
Q 2597 3491 2834 3397 
z
" transform="scale(0.015625)"/>
       <path id="DejaVuSans-28" d="M 1984 4856 
Q 1566 4138 1362 3434 
Q 1159 2731 1159 2009 
Q 1159 1288 1364 580 
Q 1569 -128 1984 -844 
L 1484 -844 
Q 1016 -109 783 600 
Q 550 1309 550 2009 
Q 550 2706 781 3412 
Q 1013 4119 1484 4856 
L 1984 4856 
z
" transform="scale(0.015625)"/>
       <path id="DejaVuSans-6c" d="M 603 4863 
L 1178 4863 
L 1178 0 
L 603 0 
L 603 4863 
z
" transform="scale(0.015625)"/>
       <path id="DejaVuSans-67" d="M 2906 1791 
Q 2906 2416 2648 2759 
Q 2391 3103 1925 3103 
Q 1463 3103 1205 2759 
Q 947 2416 947 1791 
Q 947 1169 1205 825 
Q 1463 481 1925 481 
Q 2391 481 2648 825 
Q 2906 1169 2906 1791 
z
M 3481 434 
Q 3481 -459 3084 -895 
Q 2688 -1331 1869 -1331 
Q 1566 -1331 1297 -1286 
Q 1028 -1241 775 -1147 
L 775 -588 
Q 1028 -725 1275 -790 
Q 1522 -856 1778 -856 
Q 2344 -856 2625 -561 
Q 2906 -266 2906 331 
L 2906 616 
Q 2728 306 2450 153 
Q 2172 0 1784 0 
Q 1141 0 747 490 
Q 353 981 353 1791 
Q 353 2603 747 3093 
Q 1141 3584 1784 3584 
Q 2172 3584 2450 3431 
Q 2728 3278 2906 2969 
L 2906 3500 
L 3481 3500 
L 3481 434 
z
" transform="scale(0.015625)"/>
       <path id="DejaVuSans-2d" d="M 313 2009 
L 1997 2009 
L 1997 1497 
L 313 1497 
L 313 2009 
z
" transform="scale(0.015625)"/>
       <path id="DejaVuSans-29" d="M 513 4856 
L 1013 4856 
Q 1481 4119 1714 3412 
Q 1947 2706 1947 2009 
Q 1947 1309 1714 600 
Q 1481 -109 1013 -844 
L 513 -844 
Q 928 -128 1133 580 
Q 1338 1288 1338 2009 
Q 1338 2731 1133 3434 
Q 928 4138 513 4856 
z
" transform="scale(0.015625)"/>
      </defs>
      <use xlink:href="#DejaVuSans-6e"/>
      <use xlink:href="#DejaVuSans-75" transform="translate(63.378906 0)"/>
      <use xlink:href="#DejaVuSans-6d" transform="translate(126.757812 0)"/>
      <use xlink:href="#DejaVuSans-62" transform="translate(224.169922 0)"/>
      <use xlink:href="#DejaVuSans-65" transform="translate(287.646484 0)"/>
      <use xlink:href="#DejaVuSans-72" transform="translate(349.169922 0)"/>
      <use xlink:href="#DejaVuSans-20" transform="translate(390.283203 0)"/>
      <use xlink:href="#DejaVuSans-6f" transform="translate(422.070312 0)"/>
      <use xlink:href="#DejaVuSans-66" transform="translate(483.251953 0)"/>
      <use xlink:href="#DejaVuSans-20" transform="translate(518.457031 0)"/>
      <use xlink:href="#DejaVuSans-61" transform="translate(550.244141 0)"/>
      <use xlink:href="#DejaVuSans-63" transform="translate(611.523438 0)"/>
      <use xlink:href="#DejaVuSans-74" transform="translate(666.503906 0)"/>
      <use xlink:href="#DejaVuSans-69" transform="translate(705.712891 0)"/>
      <use xlink:href="#DejaVuSans-76" transform="translate(733.496094 0)"/>
      <use xlink:href="#DejaVuSans-69" transform="translate(792.675781 0)"/>
      <use xlink:href="#DejaVuSans-74" transform="translate(820.458984 0)"/>
      <use xlink:href="#DejaVuSans-69" transform="translate(859.667969 0)"/>
      <use xlink:href="#DejaVuSans-65" transform="translate(887.451172 0)"/>
      <use xlink:href="#DejaVuSans-73" transform="translate(948.974609 0)"/>
      <use xlink:href="#DejaVuSans-20" transform="translate(1001.074219 0)"/>
      <use xlink:href="#DejaVuSans-28" transform="translate(1032.861328 0)"/>
      <use xlink:href="#DejaVuSans-6c" transform="translate(1071.875 0)"/>
      <use xlink:href="#DejaVuSans-6f" transform="translate(1099.658203 0)"/>
      <use xlink:href="#DejaVuSans-67" transform="translate(1160.839844 0)"/>
      <use xlink:href="#DejaVuSans-2d" transform="translate(1224.316406 0)"/>
      <use xlink:href="#DejaVuSans-73" transform="translate(1260.400391 0)"/>
      <use xlink:href="#DejaVuSans-63" transform="translate(1312.5 0)"/>
      <use xlink:href="#DejaVuSans-61" transform="translate(1367.480469 0)"/>
      <use xlink:href="#DejaVuSans-6c" transform="translate(1428.759766 0)"/>
      <use xlink:href="#DejaVuSans-65" transform="translate(1456.542969 0)"/>
      <use xlink:href="#DejaVuSans-29" transform="translate(1518.066406 0)"/>
     </g>
    </g>
   </g>
   <g id="matplotlib.axis_2">
    <g id="ytick_1">
     <g id="line2d_56">
      <defs>
       <path id="m4479ccc8f9" d="M 0 0 
L -3.5 0 
" style="stroke: #2e3440; stroke-width: 0.8"/>
      </defs>
      <g>
       <use xlink:href="#m4479ccc8f9" x="60.02524" y="318.90101" style="fill: #2e3440; stroke: #2e3440; stroke-width: 0.8"/>
      </g>
     </g>
     <g id="text_8">
      <!-- 0 -->
      <g style="fill: #2e3440" transform="translate(45.39024 323.460073) scale(0.12 -0.12)">
       <use xlink:href="#DejaVuSans-30"/>
      </g>
     </g>
    </g>
    <g id="ytick_2">
     <g id="line2d_57">
      <g>
       <use xlink:href="#m4479ccc8f9" x="60.02524" y="268.131878" style="fill: #2e3440; stroke: #2e3440; stroke-width: 0.8"/>
      </g>
     </g>
     <g id="text_9">
      <!-- 500 -->
      <g style="fill: #2e3440" transform="translate(30.12024 272.690941) scale(0.12 -0.12)">
       <use xlink:href="#DejaVuSans-35"/>
       <use xlink:href="#DejaVuSans-30" transform="translate(63.623047 0)"/>
       <use xlink:href="#DejaVuSans-30" transform="translate(127.246094 0)"/>
      </g>
     </g>
    </g>
    <g id="ytick_3">
     <g id="line2d_58">
      <g>
       <use xlink:href="#m4479ccc8f9" x="60.02524" y="217.362746" style="fill: #2e3440; stroke: #2e3440; stroke-width: 0.8"/>
      </g>
     </g>
     <g id="text_10">
      <!-- 1000 -->
      <g style="fill: #2e3440" transform="translate(22.48524 221.921809) scale(0.12 -0.12)">
       <use xlink:href="#DejaVuSans-31"/>
       <use xlink:href="#DejaVuSans-30" transform="translate(63.623047 0)"/>
       <use xlink:href="#DejaVuSans-30" transform="translate(127.246094 0)"/>
       <use xlink:href="#DejaVuSans-30" transform="translate(190.869141 0)"/>
      </g>
     </g>
    </g>
    <g id="ytick_4">
     <g id="line2d_59">
      <g>
       <use xlink:href="#m4479ccc8f9" x="60.02524" y="166.593614" style="fill: #2e3440; stroke: #2e3440; stroke-width: 0.8"/>
      </g>
     </g>
     <g id="text_11">
      <!-- 1500 -->
      <g style="fill: #2e3440" transform="translate(22.48524 171.152677) scale(0.12 -0.12)">
       <use xlink:href="#DejaVuSans-31"/>
       <use xlink:href="#DejaVuSans-35" transform="translate(63.623047 0)"/>
       <use xlink:href="#DejaVuSans-30" transform="translate(127.246094 0)"/>
       <use xlink:href="#DejaVuSans-30" transform="translate(190.869141 0)"/>
      </g>
     </g>
    </g>
    <g id="ytick_5">
     <g id="line2d_60">
      <g>
       <use xlink:href="#m4479ccc8f9" x="60.02524" y="115.824482" style="fill: #2e3440; stroke: #2e3440; stroke-width: 0.8"/>
      </g>
     </g>
     <g id="text_12">
      <!-- 2000 -->
      <g style="fill: #2e3440" transform="translate(22.48524 120.383545) scale(0.12 -0.12)">
       <use xlink:href="#DejaVuSans-32"/>
       <use xlink:href="#DejaVuSans-30" transform="translate(63.623047 0)"/>
       <use xlink:href="#DejaVuSans-30" transform="translate(127.246094 0)"/>
       <use xlink:href="#DejaVuSans-30" transform="translate(190.869141 0)"/>
      </g>
     </g>
    </g>
    <g id="ytick_6">
     <g id="line2d_61">
      <g>
       <use xlink:href="#m4479ccc8f9" x="60.02524" y="65.05535" style="fill: #2e3440; stroke: #2e3440; stroke-width: 0.8"/>
      </g>
     </g>
     <g id="text_13">
      <!-- 2500 -->
      <g style="fill: #2e3440" transform="translate(22.48524 69.614413) scale(0.12 -0.12)">
       <use xlink:href="#DejaVuSans-32"/>
       <use xlink:href="#DejaVuSans-35" transform="translate(63.623047 0)"/>
       <use xlink:href="#DejaVuSans-30" transform="translate(127.246094 0)"/>
       <use xlink:href="#DejaVuSans-30" transform="translate(190.869141 0)"/>
      </g>
     </g>
    </g>
    <g id="ytick_7">
     <g id="line2d_62">
      <g>
       <use xlink:href="#m4479ccc8f9" x="60.02524" y="14.286218" style="fill: #2e3440; stroke: #2e3440; stroke-width: 0.8"/>
      </g>
     </g>
     <g id="text_14">
      <!-- 3000 -->
      <g style="fill: #2e3440" transform="translate(22.48524 18.845281) scale(0.12 -0.12)">
       <use xlink:href="#DejaVuSans-33"/>
       <use xlink:href="#DejaVuSans-30" transform="translate(63.623047 0)"/>
       <use xlink:href="#DejaVuSans-30" transform="translate(127.246094 0)"/>
       <use xlink:href="#DejaVuSans-30" transform="translate(190.869141 0)"/>
      </g>
     </g>
    </g>
    <g id="text_15">
     <!-- number of grid cells -->
     <g style="fill: #2e3440" transform="translate(15.15774 241.114375) rotate(-90) scale(0.16 -0.16)">
      <defs>
       <path id="DejaVuSans-64" d="M 2906 2969 
L 2906 4863 
L 3481 4863 
L 3481 0 
L 2906 0 
L 2906 525 
Q 2725 213 2448 61 
Q 2172 -91 1784 -91 
Q 1150 -91 751 415 
Q 353 922 353 1747 
Q 353 2572 751 3078 
Q 1150 3584 1784 3584 
Q 2172 3584 2448 3432 
Q 2725 3281 2906 2969 
z
M 947 1747 
Q 947 1113 1208 752 
Q 1469 391 1925 391 
Q 2381 391 2643 752 
Q 2906 1113 2906 1747 
Q 2906 2381 2643 2742 
Q 2381 3103 1925 3103 
Q 1469 3103 1208 2742 
Q 947 2381 947 1747 
z
" transform="scale(0.015625)"/>
      </defs>
      <use xlink:href="#DejaVuSans-6e"/>
      <use xlink:href="#DejaVuSans-75" transform="translate(63.378906 0)"/>
      <use xlink:href="#DejaVuSans-6d" transform="translate(126.757812 0)"/>
      <use xlink:href="#DejaVuSans-62" transform="translate(224.169922 0)"/>
      <use xlink:href="#DejaVuSans-65" transform="translate(287.646484 0)"/>
      <use xlink:href="#DejaVuSans-72" transform="translate(349.169922 0)"/>
      <use xlink:href="#DejaVuSans-20" transform="translate(390.283203 0)"/>
      <use xlink:href="#DejaVuSans-6f" transform="translate(422.070312 0)"/>
      <use xlink:href="#DejaVuSans-66" transform="translate(483.251953 0)"/>
      <use xlink:href="#DejaVuSans-20" transform="translate(518.457031 0)"/>
      <use xlink:href="#DejaVuSans-67" transform="translate(550.244141 0)"/>
      <use xlink:href="#DejaVuSans-72" transform="translate(613.720703 0)"/>
      <use xlink:href="#DejaVuSans-69" transform="translate(654.833984 0)"/>
      <use xlink:href="#DejaVuSans-64" transform="translate(682.617188 0)"/>
      <use xlink:href="#DejaVuSans-20" transform="translate(746.09375 0)"/>
      <use xlink:href="#DejaVuSans-63" transform="translate(777.880859 0)"/>
      <use xlink:href="#DejaVuSans-65" transform="translate(832.861328 0)"/>
      <use xlink:href="#DejaVuSans-6c" transform="translate(894.384766 0)"/>
      <use xlink:href="#DejaVuSans-6c" transform="translate(922.167969 0)"/>
      <use xlink:href="#DejaVuSans-73" transform="translate(949.951172 0)"/>
     </g>
    </g>
   </g>
   <g id="patch_39">
    <path d="M 60.02524 318.90101 
L 60.02524 3.00024 
" style="fill: none; stroke: #2e3440; stroke-width: 0.8; stroke-linejoin: miter; stroke-linecap: square"/>
   </g>
   <g id="patch_40">
    <path d="M 500.99976 318.90101 
L 500.99976 3.00024 
" style="fill: none; stroke: #2e3440; stroke-width: 0.8; stroke-linejoin: miter; stroke-linecap: square"/>
   </g>
   <g id="patch_41">
    <path d="M 60.02524 318.90101 
L 500.99976 318.90101 
" style="fill: none; stroke: #2e3440; stroke-width: 0.8; stroke-linejoin: miter; stroke-linecap: square"/>
   </g>
   <g id="patch_42">
    <path d="M 60.02524 3.00024 
L 500.99976 3.00024 
" style="fill: none; stroke: #2e3440; stroke-width: 0.8; stroke-linejoin: miter; stroke-linecap: square"/>
   </g>
  </g>
 </g>
 <defs>
  <clipPath id="p774171ed7b">
   <rect x="60.02524" y="3.00024" width="440.97452" height="315.90077"/>
  </clipPath>
 </defs>
</svg>
