<?xml version="1.0" encoding="utf-8" standalone="no"?>
<!DOCTYPE svg PUBLIC "-//W3C//DTD SVG 1.1//EN"
  "http://www.w3.org/Graphics/SVG/1.1/DTD/svg11.dtd">
<svg xmlns:xlink="http://www.w3.org/1999/xlink" width="432pt" height="432pt" viewBox="0 0 432 432" xmlns="http://www.w3.org/2000/svg" version="1.1">
 <metadata>
  <rdf:RDF xmlns:dc="http://purl.org/dc/elements/1.1/" xmlns:cc="http://creativecommons.org/ns#" xmlns:rdf="http://www.w3.org/1999/02/22-rdf-syntax-ns#">
   <cc:Work>
    <dc:type rdf:resource="http://purl.org/dc/dcmitype/StillImage"/>
    <dc:format>image/svg+xml</dc:format>
    <dc:creator>
     <cc:Agent>
      <dc:title>Gergő Pintér</dc:title>
     </cc:Agent>
    </dc:creator>
    <dc:rights>
     <cc:Agent>
      <dc:title>CC BY 4.0</dc:title>
     </cc:Agent>
    </dc:rights>
   </cc:Work>
  </rdf:RDF>
 </metadata>
 <defs>
  <style type="text/css">*{stroke-linejoin: round; stroke-linecap: butt}</style>
 </defs>
 <g id="figure_1">
  <g id="patch_1">
   <path d="M 0 432 
L 432 432 
L 432 0 
L 0 0 
L 0 432 
z
" style="fill: none"/>
  </g>
  <g id="axes_1">
   <g id="PathCollection_1">
    <defs>
     <path id="meb23477139" d="M 0 1.118034 
C 0.296506 1.118034 0.580908 1.000231 0.790569 0.790569 
C 1.000231 0.580908 1.118034 0.296506 1.118034 0 
C 1.118034 -0.296506 1.000231 -0.580908 0.790569 -0.790569 
C 0.580908 -1.000231 0.296506 -1.118034 0 -1.118034 
C -0.296506 -1.118034 -0.580908 -1.000231 -0.790569 -0.790569 
C -1.000231 -0.580908 -1.118034 -0.296506 -1.118034 0 
C -1.118034 0.296506 -1.000231 0.580908 -0.790569 0.790569 
C -0.580908 1.000231 -0.296506 1.118034 0 1.118034 
z
" style="stroke: #3b4252"/>
    </defs>
    <g clip-path="url(#pfc6f4ebc48)">
     <use xlink:href="#meb23477139" x="143.283839" y="215.360533" style="fill: #3b4252; stroke: #3b4252"/>
     <use xlink:href="#meb23477139" x="142.150127" y="214.73098" style="fill: #3b4252; stroke: #3b4252"/>
     <use xlink:href="#meb23477139" x="144.237545" y="213.78548" style="fill: #3b4252; stroke: #3b4252"/>
     <use xlink:href="#meb23477139" x="144.069817" y="214.220863" style="fill: #3b4252; stroke: #3b4252"/>
     <use xlink:href="#meb23477139" x="143.614381" y="213.372206" style="fill: #3b4252; stroke: #3b4252"/>
     <use xlink:href="#meb23477139" x="142.299435" y="214.159375" style="fill: #3b4252; stroke: #3b4252"/>
     <use xlink:href="#meb23477139" x="143.407337" y="214.80604" style="fill: #3b4252; stroke: #3b4252"/>
     <use xlink:href="#meb23477139" x="143.147963" y="215.176403" style="fill: #3b4252; stroke: #3b4252"/>
     <use xlink:href="#meb23477139" x="143.193164" y="215.225419" style="fill: #3b4252; stroke: #3b4252"/>
     <use xlink:href="#meb23477139" x="144.373254" y="213.890009" style="fill: #3b4252; stroke: #3b4252"/>
     <use xlink:href="#meb23477139" x="143.268579" y="212.79032" style="fill: #3b4252; stroke: #3b4252"/>
     <use xlink:href="#meb23477139" x="143.186086" y="212.658604" style="fill: #3b4252; stroke: #3b4252"/>
     <use xlink:href="#meb23477139" x="143.867501" y="213.647298" style="fill: #3b4252; stroke: #3b4252"/>
     <use xlink:href="#meb23477139" x="142.456377" y="214.245787" style="fill: #3b4252; stroke: #3b4252"/>
     <use xlink:href="#meb23477139" x="143.668611" y="213.353858" style="fill: #3b4252; stroke: #3b4252"/>
     <use xlink:href="#meb23477139" x="142.958785" y="213.85033" style="fill: #3b4252; stroke: #3b4252"/>
     <use xlink:href="#meb23477139" x="143.783987" y="214.419321" style="fill: #3b4252; stroke: #3b4252"/>
     <use xlink:href="#meb23477139" x="142.796412" y="214.742915" style="fill: #3b4252; stroke: #3b4252"/>
     <use xlink:href="#meb23477139" x="144.268612" y="213.754462" style="fill: #3b4252; stroke: #3b4252"/>
     <use xlink:href="#meb23477139" x="141.780469" y="213.233753" style="fill: #3b4252; stroke: #3b4252"/>
    </g>
   </g>
   <g id="PathCollection_2">
    <g clip-path="url(#pfc6f4ebc48)">
     <use xlink:href="#meb23477139" x="112.350994" y="262.128278" style="fill: #3b4252; stroke: #3b4252"/>
     <use xlink:href="#meb23477139" x="109.506135" y="143.505193" style="fill: #3b4252; stroke: #3b4252"/>
     <use xlink:href="#meb23477139" x="176.745251" y="125.965826" style="fill: #3b4252; stroke: #3b4252"/>
     <use xlink:href="#meb23477139" x="112.164673" y="147.767314" style="fill: #3b4252; stroke: #3b4252"/>
     <use xlink:href="#meb23477139" x="195.680027" y="220.880006" style="fill: #3b4252; stroke: #3b4252"/>
     <use xlink:href="#meb23477139" x="135.302285" y="220.532693" style="fill: #3b4252; stroke: #3b4252"/>
     <use xlink:href="#meb23477139" x="134.809635" y="220.696111" style="fill: #3b4252; stroke: #3b4252"/>
     <use xlink:href="#meb23477139" x="146.242505" y="221.502153" style="fill: #3b4252; stroke: #3b4252"/>
     <use xlink:href="#meb23477139" x="137.760783" y="215.977221" style="fill: #3b4252; stroke: #3b4252"/>
     <use xlink:href="#meb23477139" x="151.266026" y="219.783817" style="fill: #3b4252; stroke: #3b4252"/>
     <use xlink:href="#meb23477139" x="108.872851" y="258.466288" style="fill: #3b4252; stroke: #3b4252"/>
     <use xlink:href="#meb23477139" x="139.264914" y="203.88077" style="fill: #3b4252; stroke: #3b4252"/>
     <use xlink:href="#meb23477139" x="135.988557" y="167.175249" style="fill: #3b4252; stroke: #3b4252"/>
     <use xlink:href="#meb23477139" x="180.608268" y="220.39979" style="fill: #3b4252; stroke: #3b4252"/>
     <use xlink:href="#meb23477139" x="132.530472" y="237.171804" style="fill: #3b4252; stroke: #3b4252"/>
     <use xlink:href="#meb23477139" x="183.104091" y="315.157689" style="fill: #3b4252; stroke: #3b4252"/>
     <use xlink:href="#meb23477139" x="212.020806" y="206.178786" style="fill: #3b4252; stroke: #3b4252"/>
    </g>
   </g>
   <g id="PatchCollection_1">
    <path d="M 141.489852 214.014232 
L 141.497074 213.867225 
L 141.518671 213.721635 
L 141.554433 213.578862 
L 141.604018 213.440282 
L 141.666947 213.30723 
L 141.742615 213.180986 
L 141.830292 213.062767 
L 141.929134 212.953712 
L 142.03819 212.854869 
L 142.156409 212.767192 
L 142.282653 212.691525 
L 142.415705 212.628595 
L 142.554285 212.579011 
L 142.697057 212.543248 
L 142.842648 212.521652 
L 142.989654 212.51443 
L 143.136661 212.521652 
L 143.282251 212.543248 
L 143.425024 212.579011 
L 143.563604 212.628595 
L 143.696656 212.691525 
L 143.8229 212.767192 
L 143.941119 212.854869 
L 144.050174 212.953712 
L 144.149017 213.062767 
L 144.236694 213.180986 
L 144.312361 213.30723 
L 144.375291 213.440282 
L 144.424875 213.578862 
L 144.460638 213.721635 
L 144.482234 213.867225 
L 144.489456 214.014232 
L 144.482234 214.161238 
L 144.460638 214.306829 
L 144.424875 214.449601 
L 144.375291 214.588181 
L 144.312361 214.721233 
L 144.236694 214.847477 
L 144.149017 214.965696 
L 144.050174 215.074752 
L 143.941119 215.173594 
L 143.8229 215.261271 
L 143.696656 215.336939 
L 143.563604 215.399868 
L 143.425024 215.449453 
L 143.282251 215.485215 
L 143.136661 215.506812 
L 142.989654 215.514034 
L 142.842648 215.506812 
L 142.697057 215.485215 
L 142.554285 215.449453 
L 142.415705 215.399868 
L 142.282653 215.336939 
L 142.156409 215.261271 
L 142.03819 215.173594 
L 141.929134 215.074752 
L 141.830292 214.965696 
L 141.742615 214.847477 
L 141.666947 214.721233 
L 141.604018 214.588181 
L 141.554433 214.449601 
L 141.518671 214.306829 
L 141.497074 214.161238 
L 141.489852 214.014232 
z
" clip-path="url(#pfc6f4ebc48)" style="fill: none; stroke: #bf616a; stroke-width: 2"/>
   </g>
   <g id="patch_2">
    <path d="M 4.00024 405.896518 
L 82.990335 405.896518 
L 82.990335 383.400463 
L 4.00024 383.400463 
L 4.00024 405.896518 
z
" style="fill: none; opacity: 0"/>
   </g>
   <g id="patch_3">
    <path d="M 6.00024 389.218393 
L 80.990335 389.218393 
L 80.990335 385.400463 
L 6.00024 385.400463 
z
" style="fill: #bf616a"/>
   </g>
   <g id="text_1">
    <!-- 5 km -->
    <g style="fill: #bf616a" transform="translate(30.95935 401.816831) scale(0.1 -0.1)">
     <defs>
      <path id="DejaVuSans-35" d="M 691 4666 
L 3169 4666 
L 3169 4134 
L 1269 4134 
L 1269 2991 
Q 1406 3038 1543 3061 
Q 1681 3084 1819 3084 
Q 2600 3084 3056 2656 
Q 3513 2228 3513 1497 
Q 3513 744 3044 326 
Q 2575 -91 1722 -91 
Q 1428 -91 1123 -41 
Q 819 9 494 109 
L 494 744 
Q 775 591 1075 516 
Q 1375 441 1709 441 
Q 2250 441 2565 725 
Q 2881 1009 2881 1497 
Q 2881 1984 2565 2268 
Q 2250 2553 1709 2553 
Q 1456 2553 1204 2497 
Q 953 2441 691 2322 
L 691 4666 
z
" transform="scale(0.015625)"/>
      <path id="DejaVuSans-20" transform="scale(0.015625)"/>
      <path id="DejaVuSans-6b" d="M 581 4863 
L 1159 4863 
L 1159 1991 
L 2875 3500 
L 3609 3500 
L 1753 1863 
L 3688 0 
L 2938 0 
L 1159 1709 
L 1159 0 
L 581 0 
L 581 4863 
z
" transform="scale(0.015625)"/>
      <path id="DejaVuSans-6d" d="M 3328 2828 
Q 3544 3216 3844 3400 
Q 4144 3584 4550 3584 
Q 5097 3584 5394 3201 
Q 5691 2819 5691 2113 
L 5691 0 
L 5113 0 
L 5113 2094 
Q 5113 2597 4934 2840 
Q 4756 3084 4391 3084 
Q 3944 3084 3684 2787 
Q 3425 2491 3425 1978 
L 3425 0 
L 2847 0 
L 2847 2094 
Q 2847 2600 2669 2842 
Q 2491 3084 2119 3084 
Q 1678 3084 1418 2786 
Q 1159 2488 1159 1978 
L 1159 0 
L 581 0 
L 581 3500 
L 1159 3500 
L 1159 2956 
Q 1356 3278 1631 3431 
Q 1906 3584 2284 3584 
Q 2666 3584 2933 3390 
Q 3200 3197 3328 2828 
z
" transform="scale(0.015625)"/>
     </defs>
     <use xlink:href="#DejaVuSans-35"/>
     <use xlink:href="#DejaVuSans-20" transform="translate(63.623047 0)"/>
     <use xlink:href="#DejaVuSans-6b" transform="translate(95.410156 0)"/>
     <use xlink:href="#DejaVuSans-6d" transform="translate(153.320312 0)"/>
    </g>
   </g>
  </g>
  <g id="axes_2">
   <g id="PatchCollection_2">
    <path d="M 213.142617 138.103482 
L 213.637902 128.021719 
L 215.118988 118.037049 
L 217.571611 108.245629 
L 220.972151 98.741757 
L 225.287859 89.61696 
L 230.477171 80.959115 
L 236.490113 72.851601 
L 243.268777 65.372498 
L 250.747879 58.593835 
L 258.855393 52.580893 
L 267.513239 47.39158 
L 276.638036 43.075873 
L 286.141907 39.675333 
L 295.933327 37.22271 
L 305.917997 35.741624 
L 315.99976 35.246339 
L 326.081523 35.741624 
L 336.066193 37.22271 
L 345.857613 39.675333 
L 355.361484 43.075873 
L 364.486281 47.39158 
L 373.144127 52.580893 
L 381.251641 58.593835 
L 388.730743 65.372498 
L 395.509407 72.851601 
L 401.522349 80.959115 
L 406.711661 89.61696 
L 411.027369 98.741757 
L 414.427909 108.245629 
L 416.880532 118.037049 
L 418.361618 128.021719 
L 418.856903 138.103482 
L 418.361618 148.185245 
L 416.880532 158.169915 
L 414.427909 167.961334 
L 411.027369 177.465206 
L 406.711661 186.590003 
L 401.522349 195.247848 
L 395.509407 203.355362 
L 388.730743 210.834465 
L 381.251641 217.613128 
L 373.144127 223.62607 
L 364.486281 228.815383 
L 355.361484 233.131091 
L 345.857613 236.53163 
L 336.066193 238.984253 
L 326.081523 240.465339 
L 315.99976 240.960625 
L 305.917997 240.465339 
L 295.933327 238.984253 
L 286.141907 236.53163 
L 276.638036 233.131091 
L 267.513239 228.815383 
L 258.855393 223.62607 
L 250.747879 217.613128 
L 243.268777 210.834465 
L 236.490113 203.355362 
L 230.477171 195.247848 
L 225.287859 186.590003 
L 220.972151 177.465206 
L 217.571611 167.961334 
L 215.118988 158.169915 
L 213.637902 148.185245 
z
" clip-path="url(#p4bb29712ae)" style="fill: #e5e9f0"/>
   </g>
   <g id="PatchCollection_3">
    <path d="M 333.727155 239.331217 
L 335.072654 237.987909 
L 335.940621 239.00288 
z
" clip-path="url(#p4bb29712ae)" style="fill: #8fbcbb"/>
    <path d="M 306.814232 240.509368 
L 323.602976 224.564317 
L 335.072654 237.987909 
L 333.727155 239.331217 
L 326.081523 240.465339 
L 315.99976 240.960625 
z
" clip-path="url(#p4bb29712ae)" style="fill: #8fbcbb"/>
    <path d="M 343.998405 231.320133 
L 354.31084 222.022081 
L 360.129401 216.063637 
L 365.266152 210.814253 
L 373.525221 202.351188 
L 383.289757 211.829755 
L 381.631736 213.442326 
L 377.711366 217.250737 
L 375.076472 214.563792 
L 361.052973 228.196273 
L 362.555559 229.728547 
L 355.361484 233.131091 
L 347.913292 235.796097 
L 347.160316 234.93328 
z
" clip-path="url(#p4bb29712ae)" style="fill: #8fbcbb"/>
    <path d="M 331.49802 216.856075 
L 351.270441 197.825559 
L 361.453358 207.246935 
L 365.266152 210.814253 
L 360.129401 216.063637 
L 356.30884 212.347659 
L 350.490278 218.306099 
L 354.31084 222.022081 
L 343.998405 231.320133 
z
" clip-path="url(#p4bb29712ae)" style="fill: #8fbcbb"/>
    <path d="M 381.631736 213.442326 
L 383.289757 211.829755 
L 385.3869 213.865148 
L 383.614765 215.471317 
z
" clip-path="url(#p4bb29712ae)" style="fill: #8fbcbb"/>
    <path d="M 360.141664 189.43105 
L 371.004039 179.160909 
L 380.913404 169.782813 
L 403.622168 191.744512 
L 401.522349 195.247848 
L 395.509407 203.355362 
L 388.730743 210.834465 
L 385.3869 213.865148 
L 383.289757 211.829755 
L 373.525221 202.351188 
L 369.782156 198.715255 
z
M 375.716985 193.362848 
L 381.746189 199.216921 
L 390.927193 189.827465 
L 384.897989 183.961966 
z
" clip-path="url(#p4bb29712ae)" style="fill: #8fbcbb"/>
    <path d="M 380.913404 169.782813 
L 388.072301 163.012275 
L 392.426515 158.895051 
L 394.301459 157.122357 
L 400.772349 163.227929 
L 403.306471 165.697608 
L 407.119282 169.402122 
L 412.162601 174.292446 
L 411.027369 177.465206 
L 408.785494 182.205253 
L 398.673638 172.387796 
L 395.938719 175.178334 
L 407.016748 185.944951 
L 406.711661 186.590003 
L 403.622168 191.744512 
z
" clip-path="url(#p4bb29712ae)" style="fill: #8fbcbb"/>
    <path d="M 407.119282 169.402122 
L 416.306752 160.460572 
L 414.427909 167.961334 
L 412.162601 174.292446 
z
" clip-path="url(#p4bb29712ae)" style="fill: #8fbcbb"/>
    <path d="M 394.301459 157.122357 
L 396.517299 155.017997 
L 410.726541 141.579805 
L 418.205755 149.235986 
L 416.880532 158.169915 
L 416.306752 160.460572 
L 407.119282 169.402122 
L 403.306471 165.697608 
L 406.637948 162.289488 
L 404.096077 159.819812 
L 400.772349 163.227929 
z
" clip-path="url(#p4bb29712ae)" style="fill: #8fbcbb"/>
    <path d="M 373.345527 127.747945 
L 375.468389 125.712216 
L 383.37101 118.186866 
L 399.141419 134.171286 
L 389.317424 143.938198 
z
" clip-path="url(#p4bb29712ae)" style="fill: #8fbcbb"/>
    <path d="M 362.883138 113.089297 
L 370.661753 105.335275 
L 383.37101 118.186866 
L 375.468389 125.712216 
L 372.012074 122.121989 
L 373.561608 120.635221 
L 369.950306 116.884919 
L 368.393024 118.371687 
z
" clip-path="url(#p4bb29712ae)" style="fill: #8fbcbb"/>
    <path d="M 391.784093 103.365781 
L 401.057905 93.861944 
L 406.138129 88.660078 
L 406.711661 89.61696 
L 408.60446 93.618946 
L 407.194912 95.061851 
L 411.049026 98.802286 
L 414.427909 108.245629 
L 416.880532 118.037049 
L 417.215856 120.297625 
L 412.746755 124.87271 
z
" clip-path="url(#p4bb29712ae)" style="fill: #8fbcbb"/>
    <path d="M 379.570798 90.857201 
L 389.518646 80.667185 
L 396.248867 73.848648 
L 400.814098 80.004149 
L 393.967103 86.955985 
L 401.057905 93.861944 
L 391.784093 103.365781 
z
" clip-path="url(#p4bb29712ae)" style="fill: #8fbcbb"/>
    <path d="M 370.744092 81.835918 
L 382.094243 70.21634 
L 387.721869 64.458108 
L 388.730743 65.372498 
L 394.378935 71.604318 
L 387.465034 78.677718 
L 389.518646 80.667185 
L 379.570798 90.857201 
z
" clip-path="url(#p4bb29712ae)" style="fill: #8fbcbb"/>
    <path d="M 264.758569 227.164298 
L 275.854697 218.257408 
L 293.345638 237.295112 
L 292.494791 238.122945 
L 286.141907 236.53163 
L 276.638036 233.131091 
L 267.513239 228.815383 
z
" clip-path="url(#p4bb29712ae)" style="fill: #8fbcbb"/>
    <path d="M 242.441764 209.921997 
L 244.5101 207.854663 
L 252.019494 216.60182 
L 250.743006 217.608711 
L 243.268777 210.834465 
z
" clip-path="url(#p4bb29712ae)" style="fill: #8fbcbb"/>
    <path d="M 254.017588 220.03811 
L 254.545878 219.540404 
L 256.647888 221.988873 
z
" clip-path="url(#p4bb29712ae)" style="fill: #8fbcbb"/>
    <path d="M 244.5101 207.854663 
L 255.868509 196.521205 
L 275.854697 218.257408 
L 264.758569 227.164298 
L 258.855393 223.62607 
L 256.647888 221.988873 
L 254.545878 219.540404 
L 252.019494 216.60182 
z
M 256.536725 214.062735 
L 262.604681 220.90035 
L 265.796853 218.086953 
L 259.728897 211.249342 
z
" clip-path="url(#p4bb29712ae)" style="fill: #8fbcbb"/>
    <path d="M 255.868509 196.521205 
L 261.439225 190.951678 
L 266.723263 185.679492 
L 284.035903 205.106041 
L 287.422499 208.913593 
L 281.503012 213.694152 
L 275.854697 218.257408 
z
" clip-path="url(#p4bb29712ae)" style="fill: #8fbcbb"/>
    <path d="M 222.573071 180.850066 
L 239.526617 197.30048 
L 235.250055 201.683337 
L 230.477171 195.247848 
L 225.287859 186.590003 
z
" clip-path="url(#p4bb29712ae)" style="fill: #8fbcbb"/>
    <path d="M 266.723263 185.679492 
L 279.716376 172.699146 
L 297.835105 194.126728 
L 284.035903 205.106041 
z
" clip-path="url(#p4bb29712ae)" style="fill: #8fbcbb"/>
    <path d="M 221.415206 169.514749 
L 228.504494 162.241257 
L 234.075193 156.557403 
L 239.747753 162.091468 
L 241.080659 163.474992 
L 233.21657 171.24029 
L 235.781624 173.721471 
L 230.768759 178.856381 
L 232.923095 180.937372 
L 237.168923 176.591567 
L 248.762071 187.831188 
L 246.453211 190.198512 
L 239.526617 197.30048 
L 222.573071 180.850066 
L 222.256447 180.180622 
L 227.196255 175.117426 
z
" clip-path="url(#p4bb29712ae)" style="fill: #8fbcbb"/>
    <path d="M 237.168923 176.591567 
L 249.131574 164.228891 
L 260.00425 176.932271 
L 254.518754 182.250213 
L 248.762071 187.831188 
z
" clip-path="url(#p4bb29712ae)" style="fill: #8fbcbb"/>
    <path d="M 248.47964 154.051627 
L 250.587067 152.11886 
L 257.792596 145.497128 
L 258.769043 146.651982 
L 273.400286 163.94046 
L 261.70878 175.273987 
L 260.00425 176.932271 
L 249.131574 164.228891 
L 253.764857 160.340442 
z
" clip-path="url(#p4bb29712ae)" style="fill: #8fbcbb"/>
    <path d="M 213.234094 136.241431 
L 213.527329 130.272486 
L 220.728741 122.939232 
L 222.356101 124.51713 
L 236.219693 138.032157 
L 250.587067 152.11886 
L 248.47964 154.051627 
L 239.747753 162.091468 
L 234.075193 156.557403 
z
" clip-path="url(#p4bb29712ae)" style="fill: #8fbcbb"/>
    <path d="M 284.035903 205.106041 
L 297.835105 194.126728 
L 315.806717 215.37131 
L 303.720061 227.196675 
L 287.422499 208.913593 
z
" clip-path="url(#p4bb29712ae)" style="fill: #8fbcbb"/>
    <path d="M 351.270441 197.825559 
L 355.632452 193.696926 
L 357.515165 191.912807 
L 360.141664 189.43105 
L 369.782156 198.715255 
L 361.453358 207.246935 
z
" clip-path="url(#p4bb29712ae)" style="fill: #8fbcbb"/>
    <path d="M 289.254252 166.191476 
L 308.275 146.955347 
L 323.053576 163.946373 
L 326.292939 167.673875 
L 322.349301 171.333595 
L 340.97175 191.994833 
L 324.445722 208.42915 
L 307.132787 187.619058 
L 301.460002 180.838619 
z
M 304.123942 166.578623 
L 322.839422 188.30338 
L 327.697357 184.151839 
L 312.949698 167.023599 
L 316.064348 164.347407 
L 312.104271 159.750906 
z
" clip-path="url(#p4bb29712ae)" style="fill: #8fbcbb"/>
    <path d="M 322.349301 171.333595 
L 326.292939 167.673875 
L 323.053576 163.946373 
L 332.67635 155.071538 
L 342.843914 166.56272 
L 348.701272 161.404746 
L 338.099802 150.073717 
L 348.466315 140.501222 
L 369.537629 163.609213 
L 362.959831 170.150955 
L 355.979136 177.081535 
L 343.962386 189.021325 
L 340.97175 191.994833 
z
" clip-path="url(#p4bb29712ae)" style="fill: #8fbcbb"/>
    <path d="M 308.275 146.955347 
L 322.042678 132.899911 
L 338.099802 150.073717 
L 332.67635 155.071538 
L 323.053576 163.946373 
z
M 319.564729 146.874015 
L 321.827625 149.480982 
L 325.228932 146.553177 
L 322.966035 143.946212 
z
" clip-path="url(#p4bb29712ae)" style="fill: #8fbcbb"/>
    <path d="M 348.466315 140.501222 
L 367.02214 123.39191 
L 373.345527 127.747945 
L 389.317424 143.938198 
L 369.537629 163.609213 
z
" clip-path="url(#p4bb29712ae)" style="fill: #8fbcbb"/>
    <path d="M 322.042678 132.899911 
L 334.043824 120.639979 
L 341.615075 128.09484 
L 343.242495 129.912845 
L 336.920306 135.574018 
L 340.097651 139.107121 
L 344.087781 135.710393 
L 348.466315 140.501222 
L 338.099802 150.073717 
z
" clip-path="url(#p4bb29712ae)" style="fill: #8fbcbb"/>
    <path d="M 265.918252 120.533223 
L 272.713157 114.883509 
L 278.973385 109.119492 
L 281.569456 111.886531 
L 295.386795 126.61356 
L 303.965511 135.749332 
L 293.265886 146.591096 
L 285.198562 137.318031 
L 288.708276 133.624076 
L 276.828426 122.075811 
L 271.001998 126.844915 
L 268.932851 124.28365 
z
" clip-path="url(#p4bb29712ae)" style="fill: #8fbcbb"/>
    <path d="M 334.043824 120.639979 
L 345.998439 108.448638 
L 362.815129 127.268959 
L 348.466315 140.501222 
L 344.087781 135.710393 
L 342.669602 134.155374 
L 351.192129 126.355548 
L 347.797794 122.570902 
L 341.615075 128.09484 
z
" clip-path="url(#p4bb29712ae)" style="fill: #8fbcbb"/>
    <path d="M 345.998439 108.448638 
L 351.816901 102.501636 
L 362.883138 113.089297 
L 359.82282 116.131434 
L 367.02214 123.39191 
L 362.815129 127.268959 
z
" clip-path="url(#p4bb29712ae)" style="fill: #8fbcbb"/>
    <path d="M 214.768356 155.806146 
L 218.252066 152.247903 
L 228.504494 162.241257 
L 221.415206 169.514749 
L 227.196255 175.117426 
L 222.256447 180.180622 
L 220.972151 177.465206 
L 217.571611 167.961334 
L 215.118988 158.169915 
z
" clip-path="url(#p4bb29712ae)" style="fill: #8fbcbb"/>
    <path d="M 213.142617 138.103482 
L 213.234094 136.241431 
L 234.075193 156.557403 
L 228.504494 162.241257 
L 218.252066 152.247903 
L 214.768356 155.806146 
L 213.637902 148.185245 
z
" clip-path="url(#p4bb29712ae)" style="fill: #8fbcbb"/>
    <path d="M 236.219693 138.032157 
L 245.122072 130.506887 
L 257.792596 145.497128 
L 250.587067 152.11886 
z
" clip-path="url(#p4bb29712ae)" style="fill: #8fbcbb"/>
    <path d="M 260.758875 131.774573 
L 268.932851 124.28365 
L 271.001998 126.844915 
L 282.037482 140.554537 
L 285.198562 137.318031 
L 293.265886 146.591096 
L 282.054867 157.94748 
z
" clip-path="url(#p4bb29712ae)" style="fill: #8fbcbb"/>
    <path d="M 222.356101 124.51713 
L 229.460861 117.54095 
L 233.815627 118.16945 
L 237.581854 122.285743 
L 245.122072 130.506887 
L 236.219693 138.032157 
z
" clip-path="url(#p4bb29712ae)" style="fill: #8fbcbb"/>
    <path d="M 238.804357 104.789756 
L 246.598566 96.544178 
L 255.394315 107.48676 
L 265.918252 120.533223 
L 268.932851 124.28365 
L 260.758875 131.774573 
L 244.818001 112.187721 
z
" clip-path="url(#p4bb29712ae)" style="fill: #8fbcbb"/>
    <path d="M 246.598566 96.544178 
L 257.096736 85.805433 
L 266.489028 95.81025 
L 278.973385 109.119492 
L 272.713157 114.883509 
L 261.383396 102.134457 
L 255.394315 107.48676 
z
" clip-path="url(#p4bb29712ae)" style="fill: #8fbcbb"/>
    <path d="M 257.096736 85.805433 
L 266.301005 76.393291 
L 276.096325 87.358607 
L 266.489028 95.81025 
z
" clip-path="url(#p4bb29712ae)" style="fill: #8fbcbb"/>
    <path d="M 225.922167 88.55868 
L 230.477171 80.959115 
L 235.163539 74.64028 
L 244.590499 84.903345 
L 232.922408 96.945799 
z
" clip-path="url(#p4bb29712ae)" style="fill: #8fbcbb"/>
    <path d="M 235.163539 74.64028 
L 236.490113 72.851601 
L 242.563806 66.150314 
L 252.477686 76.932194 
L 244.590499 84.903345 
z
" clip-path="url(#p4bb29712ae)" style="fill: #8fbcbb"/>
    <path d="M 242.563806 66.150314 
L 243.268777 65.372498 
L 250.747879 58.593835 
L 252.115172 57.579782 
L 261.271321 67.931769 
L 252.477686 76.932194 
z
" clip-path="url(#p4bb29712ae)" style="fill: #8fbcbb"/>
    <path d="M 281.569456 111.886531 
L 290.549135 103.537851 
L 301.341763 93.50798 
L 309.192003 101.980584 
L 323.241788 116.227245 
L 303.965511 135.749332 
L 295.386795 126.61356 
z
M 293.595507 114.275172 
L 297.291989 117.979769 
L 305.698241 109.448167 
L 302.249751 106.086604 
z
" clip-path="url(#p4bb29712ae)" style="fill: #8fbcbb"/>
    <path d="M 309.192003 101.980584 
L 317.822889 93.151624 
L 331.640255 107.718478 
L 323.241788 116.227245 
z
" clip-path="url(#p4bb29712ae)" style="fill: #8fbcbb"/>
    <path d="M 351.816901 102.501636 
L 359.781433 94.347373 
L 368.414391 103.071381 
L 370.661753 105.335275 
L 362.883138 113.089297 
z
" clip-path="url(#p4bb29712ae)" style="fill: #8fbcbb"/>
    <path d="M 314.34338 89.549932 
L 322.191794 82.058974 
L 334.603551 70.142047 
L 337.129295 67.808968 
L 344.243305 75.138094 
L 353.945664 85.131303 
L 345.748697 93.434244 
L 334.88652 104.436195 
L 331.640255 107.718478 
L 317.822889 93.151624 
z
" clip-path="url(#p4bb29712ae)" style="fill: #8fbcbb"/>
    <path d="M 266.301005 76.393291 
L 284.229102 58.049295 
L 310.228415 85.239327 
L 301.341763 93.50798 
L 290.549135 103.537851 
L 276.096325 87.358607 
z
M 280.155702 79.422137 
L 286.634312 87.08302 
L 296.055661 79.157385 
L 289.577047 71.496512 
z
" clip-path="url(#p4bb29712ae)" style="fill: #8fbcbb"/>
    <path d="M 284.229102 58.049295 
L 286.855551 55.350299 
L 300.979456 40.906073 
L 306.007641 35.748231 
L 310.920749 40.813473 
L 337.129295 67.808968 
L 334.603551 70.142047 
L 322.191794 82.058974 
L 314.34338 89.549932 
L 310.228415 85.239327 
z
M 297.425508 64.360077 
L 301.904648 68.830743 
L 308.398029 69.916358 
L 312.728944 65.444702 
L 309.946425 58.35519 
L 303.762617 53.884721 
L 297.889579 56.812789 
z
" clip-path="url(#p4bb29712ae)" style="fill: #8fbcbb"/>
    <path d="M 342.644953 56.956306 
L 356.421666 43.577301 
L 362.675848 46.535309 
L 359.334376 49.921653 
L 362.232658 52.757232 
L 366.401638 48.539601 
L 373.144127 52.580893 
L 379.301548 57.147548 
L 360.987939 75.696407 
L 355.795785 70.3911 
L 351.34759 65.851859 
z
" clip-path="url(#p4bb29712ae)" style="fill: #8fbcbb"/>
    <path d="M 330.88132 44.916417 
L 338.249 37.769475 
L 345.857613 39.675333 
L 348.43944 40.599126 
L 347.834567 41.186539 
L 350.074154 43.484748 
L 351.804216 41.803062 
L 355.361484 43.075873 
L 356.421666 43.577301 
L 342.644953 56.956306 
z
" clip-path="url(#p4bb29712ae)" style="fill: #8fbcbb"/>
    <path d="M 289.687636 38.787174 
L 289.756719 38.76987 
L 289.712932 38.814678 
z
" clip-path="url(#p4bb29712ae)" style="fill: #8fbcbb"/>
    <path d="M 321.715178 35.527119 
L 326.081523 35.741624 
L 336.066193 37.22271 
L 338.249 37.769475 
L 330.88132 44.916417 
z
" clip-path="url(#p4bb29712ae)" style="fill: #8fbcbb"/>
    <path d="M 215.733495 115.583799 
L 217.571611 108.245629 
L 220.972151 98.741757 
L 221.151897 98.361716 
L 226.422139 104.676647 
z
" clip-path="url(#p4bb29712ae)" style="fill: #8fbcbb"/>
    <path d="M 252.115172 57.579782 
L 258.855393 52.580893 
L 267.513239 47.39158 
L 273.4998 44.560148 
L 278.494372 50.296847 
L 269.886733 59.114314 
L 261.271321 67.931769 
z
" clip-path="url(#p4bb29712ae)" style="fill: #8fbcbb"/>
    <path d="M 273.4998 44.560148 
L 276.638036 43.075873 
L 286.141907 39.675333 
L 289.687636 38.787174 
L 289.712932 38.814678 
L 278.494372 50.296847 
z
" clip-path="url(#p4bb29712ae)" style="fill: #8fbcbb"/>
   </g>
   <g id="PathCollection_3">
    <defs>
     <path id="mfbbc59accb" d="M 0 2.236068 
C 0.593012 2.236068 1.161816 2.000462 1.581139 1.581139 
C 2.000462 1.161816 2.236068 0.593012 2.236068 0 
C 2.236068 -0.593012 2.000462 -1.161816 1.581139 -1.581139 
C 1.161816 -2.000462 0.593012 -2.236068 0 -2.236068 
C -0.593012 -2.236068 -1.161816 -2.000462 -1.581139 -1.581139 
C -2.000462 -1.161816 -2.236068 -0.593012 -2.236068 0 
C -2.236068 0.593012 -2.000462 1.161816 -1.581139 1.581139 
C -1.161816 2.000462 -0.593012 2.236068 0 2.236068 
z
" style="stroke: #3b4252"/>
    </defs>
    <g clip-path="url(#p4bb29712ae)">
     <use xlink:href="#mfbbc59accb" x="336.175078" y="230.433491" style="fill: #3b4252; stroke: #3b4252"/>
     <use xlink:href="#mfbbc59accb" x="258.424604" y="187.258424" style="fill: #3b4252; stroke: #3b4252"/>
     <use xlink:href="#mfbbc59accb" x="401.58072" y="122.415583" style="fill: #3b4252; stroke: #3b4252"/>
     <use xlink:href="#mfbbc59accb" x="390.077842" y="152.274366" style="fill: #3b4252; stroke: #3b4252"/>
     <use xlink:href="#mfbbc59accb" x="358.843825" y="94.073042" style="fill: #3b4252; stroke: #3b4252"/>
     <use xlink:href="#mfbbc59accb" x="268.664178" y="148.057468" style="fill: #3b4252; stroke: #3b4252"/>
     <use xlink:href="#mfbbc59accb" x="344.644672" y="192.406064" style="fill: #3b4252; stroke: #3b4252"/>
     <use xlink:href="#mfbbc59accb" x="326.856654" y="217.805737" style="fill: #3b4252; stroke: #3b4252"/>
     <use xlink:href="#mfbbc59accb" x="329.95653" y="221.167326" style="fill: #3b4252; stroke: #3b4252"/>
     <use xlink:href="#mfbbc59accb" x="410.887705" y="129.584255" style="fill: #3b4252; stroke: #3b4252"/>
     <use xlink:href="#mfbbc59accb" x="335.128577" y="54.167003" style="fill: #3b4252; stroke: #3b4252"/>
     <use xlink:href="#mfbbc59accb" x="329.47112" y="45.13385" style="fill: #3b4252; stroke: #3b4252"/>
     <use xlink:href="#mfbbc59accb" x="376.202921" y="112.939001" style="fill: #3b4252; stroke: #3b4252"/>
     <use xlink:href="#mfbbc59accb" x="279.427311" y="153.983671" style="fill: #3b4252; stroke: #3b4252"/>
     <use xlink:href="#mfbbc59accb" x="362.562976" y="92.814718" style="fill: #3b4252; stroke: #3b4252"/>
     <use xlink:href="#mfbbc59accb" x="313.882714" y="126.863058" style="fill: #3b4252; stroke: #3b4252"/>
     <use xlink:href="#mfbbc59accb" x="370.475495" y="165.884703" style="fill: #3b4252; stroke: #3b4252"/>
     <use xlink:href="#mfbbc59accb" x="302.747091" y="188.076958" style="fill: #3b4252; stroke: #3b4252"/>
     <use xlink:href="#mfbbc59accb" x="403.711308" y="120.288362" style="fill: #3b4252; stroke: #3b4252"/>
     <use xlink:href="#mfbbc59accb" x="233.07327" y="84.577844" style="fill: #3b4252; stroke: #3b4252"/>
    </g>
   </g>
   <g id="PatchCollection_4">
    <path d="M 213.142617 138.103482 
L 213.637902 128.021719 
L 215.118988 118.037049 
L 217.571611 108.245629 
L 220.972151 98.741757 
L 225.287859 89.61696 
L 230.477171 80.959115 
L 236.490113 72.851601 
L 243.268777 65.372498 
L 250.747879 58.593835 
L 258.855393 52.580893 
L 267.513239 47.39158 
L 276.638036 43.075873 
L 286.141907 39.675333 
L 295.933327 37.22271 
L 305.917997 35.741624 
L 315.99976 35.246339 
L 326.081523 35.741624 
L 336.066193 37.22271 
L 345.857613 39.675333 
L 355.361484 43.075873 
L 364.486281 47.39158 
L 373.144127 52.580893 
L 381.251641 58.593835 
L 388.730743 65.372498 
L 395.509407 72.851601 
L 401.522349 80.959115 
L 406.711661 89.61696 
L 411.027369 98.741757 
L 414.427909 108.245629 
L 416.880532 118.037049 
L 418.361618 128.021719 
L 418.856903 138.103482 
L 418.361618 148.185245 
L 416.880532 158.169915 
L 414.427909 167.961334 
L 411.027369 177.465206 
L 406.711661 186.590003 
L 401.522349 195.247848 
L 395.509407 203.355362 
L 388.730743 210.834465 
L 381.251641 217.613128 
L 373.144127 223.62607 
L 364.486281 228.815383 
L 355.361484 233.131091 
L 345.857613 236.53163 
L 336.066193 238.984253 
L 326.081523 240.465339 
L 315.99976 240.960625 
L 305.917997 240.465339 
L 295.933327 238.984253 
L 286.141907 236.53163 
L 276.638036 233.131091 
L 267.513239 228.815383 
L 258.855393 223.62607 
L 250.747879 217.613128 
L 243.268777 210.834465 
L 236.490113 203.355362 
L 230.477171 195.247848 
L 225.287859 186.590003 
L 220.972151 177.465206 
L 217.571611 167.961334 
L 215.118988 158.169915 
L 213.637902 148.185245 
L 213.142617 138.103482 
z
" clip-path="url(#p4bb29712ae)" style="fill: none; stroke: #bf616a; stroke-width: 2"/>
   </g>
  </g>
 </g>
 <defs>
  <clipPath id="pfc6f4ebc48">
   <rect x="3.00024" y="25.103482" width="425.99952" height="381.793037"/>
  </clipPath>
  <clipPath id="p4bb29712ae">
   <rect x="207.99976" y="30.103482" width="216" height="216"/>
  </clipPath>
 </defs>
</svg>
