<?xml version="1.0" encoding="utf-8" standalone="no"?>
<!DOCTYPE svg PUBLIC "-//W3C//DTD SVG 1.1//EN"
  "http://www.w3.org/Graphics/SVG/1.1/DTD/svg11.dtd">
<svg xmlns:xlink="http://www.w3.org/1999/xlink" width="432pt" height="432pt" viewBox="0 0 432 432" xmlns="http://www.w3.org/2000/svg" version="1.1">
 <metadata>
  <rdf:RDF xmlns:dc="http://purl.org/dc/elements/1.1/" xmlns:cc="http://creativecommons.org/ns#" xmlns:rdf="http://www.w3.org/1999/02/22-rdf-syntax-ns#">
   <cc:Work>
    <dc:type rdf:resource="http://purl.org/dc/dcmitype/StillImage"/>
    <dc:format>image/svg+xml</dc:format>
    <dc:creator>
     <cc:Agent>
      <dc:title>Gergő Pintér</dc:title>
     </cc:Agent>
    </dc:creator>
    <dc:rights>
     <cc:Agent>
      <dc:title>CC BY 4.0</dc:title>
     </cc:Agent>
    </dc:rights>
   </cc:Work>
  </rdf:RDF>
 </metadata>
 <defs>
  <style type="text/css">*{stroke-linejoin: round; stroke-linecap: butt}</style>
 </defs>
 <g id="figure_1">
  <g id="patch_1">
   <path d="M 0 432 
L 432 432 
L 432 0 
L 0 0 
L 0 432 
z
" style="fill: none"/>
  </g>
  <g id="axes_1">
   <g id="PathCollection_1">
    <defs>
     <path id="meb23477139" d="M 0 1.118034 
C 0.296506 1.118034 0.580908 1.000231 0.790569 0.790569 
C 1.000231 0.580908 1.118034 0.296506 1.118034 0 
C 1.118034 -0.296506 1.000231 -0.580908 0.790569 -0.790569 
C 0.580908 -1.000231 0.296506 -1.118034 0 -1.118034 
C -0.296506 -1.118034 -0.580908 -1.000231 -0.790569 -0.790569 
C -1.000231 -0.580908 -1.118034 -0.296506 -1.118034 0 
C -1.118034 0.296506 -1.000231 0.580908 -0.790569 0.790569 
C -0.580908 1.000231 -0.296506 1.118034 0 1.118034 
z
" style="stroke: #3b4252"/>
    </defs>
    <g clip-path="url(#pfc6f4ebc48)">
     <use xlink:href="#meb23477139" x="143.283839" y="215.360533" style="fill: #3b4252; stroke: #3b4252"/>
     <use xlink:href="#meb23477139" x="142.150127" y="214.73098" style="fill: #3b4252; stroke: #3b4252"/>
     <use xlink:href="#meb23477139" x="144.237545" y="213.78548" style="fill: #3b4252; stroke: #3b4252"/>
     <use xlink:href="#meb23477139" x="144.069817" y="214.220863" style="fill: #3b4252; stroke: #3b4252"/>
     <use xlink:href="#meb23477139" x="143.614381" y="213.372206" style="fill: #3b4252; stroke: #3b4252"/>
     <use xlink:href="#meb23477139" x="142.299435" y="214.159375" style="fill: #3b4252; stroke: #3b4252"/>
     <use xlink:href="#meb23477139" x="143.407337" y="214.80604" style="fill: #3b4252; stroke: #3b4252"/>
     <use xlink:href="#meb23477139" x="143.147963" y="215.176403" style="fill: #3b4252; stroke: #3b4252"/>
     <use xlink:href="#meb23477139" x="143.193164" y="215.225419" style="fill: #3b4252; stroke: #3b4252"/>
     <use xlink:href="#meb23477139" x="144.373254" y="213.890009" style="fill: #3b4252; stroke: #3b4252"/>
     <use xlink:href="#meb23477139" x="143.268579" y="212.79032" style="fill: #3b4252; stroke: #3b4252"/>
     <use xlink:href="#meb23477139" x="143.186086" y="212.658604" style="fill: #3b4252; stroke: #3b4252"/>
     <use xlink:href="#meb23477139" x="143.867501" y="213.647298" style="fill: #3b4252; stroke: #3b4252"/>
     <use xlink:href="#meb23477139" x="142.456377" y="214.245787" style="fill: #3b4252; stroke: #3b4252"/>
     <use xlink:href="#meb23477139" x="143.668611" y="213.353858" style="fill: #3b4252; stroke: #3b4252"/>
     <use xlink:href="#meb23477139" x="142.958785" y="213.85033" style="fill: #3b4252; stroke: #3b4252"/>
     <use xlink:href="#meb23477139" x="143.783987" y="214.419321" style="fill: #3b4252; stroke: #3b4252"/>
     <use xlink:href="#meb23477139" x="142.796412" y="214.742915" style="fill: #3b4252; stroke: #3b4252"/>
     <use xlink:href="#meb23477139" x="144.268612" y="213.754462" style="fill: #3b4252; stroke: #3b4252"/>
     <use xlink:href="#meb23477139" x="141.780469" y="213.233753" style="fill: #3b4252; stroke: #3b4252"/>
    </g>
   </g>
   <g id="PathCollection_2">
    <g clip-path="url(#pfc6f4ebc48)">
     <use xlink:href="#meb23477139" x="112.350994" y="262.128278" style="fill: #3b4252; stroke: #3b4252"/>
     <use xlink:href="#meb23477139" x="109.506135" y="143.505193" style="fill: #3b4252; stroke: #3b4252"/>
     <use xlink:href="#meb23477139" x="176.745251" y="125.965826" style="fill: #3b4252; stroke: #3b4252"/>
     <use xlink:href="#meb23477139" x="112.164673" y="147.767314" style="fill: #3b4252; stroke: #3b4252"/>
     <use xlink:href="#meb23477139" x="195.680027" y="220.880006" style="fill: #3b4252; stroke: #3b4252"/>
     <use xlink:href="#meb23477139" x="135.302285" y="220.532693" style="fill: #3b4252; stroke: #3b4252"/>
     <use xlink:href="#meb23477139" x="134.809635" y="220.696111" style="fill: #3b4252; stroke: #3b4252"/>
     <use xlink:href="#meb23477139" x="146.242505" y="221.502153" style="fill: #3b4252; stroke: #3b4252"/>
     <use xlink:href="#meb23477139" x="137.760783" y="215.977221" style="fill: #3b4252; stroke: #3b4252"/>
     <use xlink:href="#meb23477139" x="151.266026" y="219.783817" style="fill: #3b4252; stroke: #3b4252"/>
     <use xlink:href="#meb23477139" x="108.872851" y="258.466288" style="fill: #3b4252; stroke: #3b4252"/>
     <use xlink:href="#meb23477139" x="139.264914" y="203.88077" style="fill: #3b4252; stroke: #3b4252"/>
     <use xlink:href="#meb23477139" x="135.988557" y="167.175249" style="fill: #3b4252; stroke: #3b4252"/>
     <use xlink:href="#meb23477139" x="180.608268" y="220.39979" style="fill: #3b4252; stroke: #3b4252"/>
     <use xlink:href="#meb23477139" x="132.530472" y="237.171804" style="fill: #3b4252; stroke: #3b4252"/>
     <use xlink:href="#meb23477139" x="183.104091" y="315.157689" style="fill: #3b4252; stroke: #3b4252"/>
     <use xlink:href="#meb23477139" x="212.020806" y="206.178786" style="fill: #3b4252; stroke: #3b4252"/>
     <use xlink:href="#meb23477139" x="111.526946" y="201.582658" style="fill: #3b4252; stroke: #3b4252"/>
     <use xlink:href="#meb23477139" x="121.998084" y="208.303076" style="fill: #3b4252; stroke: #3b4252"/>
     <use xlink:href="#meb23477139" x="167.907395" y="255.688403" style="fill: #3b4252; stroke: #3b4252"/>
     <use xlink:href="#meb23477139" x="109.104431" y="212.922779" style="fill: #3b4252; stroke: #3b4252"/>
     <use xlink:href="#meb23477139" x="132.820894" y="264.910725" style="fill: #3b4252; stroke: #3b4252"/>
     <use xlink:href="#meb23477139" x="78.278786" y="268.65836" style="fill: #3b4252; stroke: #3b4252"/>
     <use xlink:href="#meb23477139" x="143.058407" y="227.343182" style="fill: #3b4252; stroke: #3b4252"/>
     <use xlink:href="#meb23477139" x="105.029631" y="207.63088" style="fill: #3b4252; stroke: #3b4252"/>
     <use xlink:href="#meb23477139" x="148.903689" y="216.701064" style="fill: #3b4252; stroke: #3b4252"/>
     <use xlink:href="#meb23477139" x="165.044339" y="219.948287" style="fill: #3b4252; stroke: #3b4252"/>
     <use xlink:href="#meb23477139" x="222.072205" y="280.59597" style="fill: #3b4252; stroke: #3b4252"/>
     <use xlink:href="#meb23477139" x="156.003196" y="273.772307" style="fill: #3b4252; stroke: #3b4252"/>
     <use xlink:href="#meb23477139" x="150.154538" y="227.425452" style="fill: #3b4252; stroke: #3b4252"/>
     <use xlink:href="#meb23477139" x="145.02721" y="199.11948" style="fill: #3b4252; stroke: #3b4252"/>
     <use xlink:href="#meb23477139" x="145.137424" y="164.503237" style="fill: #3b4252; stroke: #3b4252"/>
     <use xlink:href="#meb23477139" x="147.372598" y="212.016229" style="fill: #3b4252; stroke: #3b4252"/>
     <use xlink:href="#meb23477139" x="131.203903" y="225.29817" style="fill: #3b4252; stroke: #3b4252"/>
     <use xlink:href="#meb23477139" x="130.719959" y="119.169009" style="fill: #3b4252; stroke: #3b4252"/>
     <use xlink:href="#meb23477139" x="159.912419" y="228.098642" style="fill: #3b4252; stroke: #3b4252"/>
     <use xlink:href="#meb23477139" x="151.837388" y="101.116255" style="fill: #3b4252; stroke: #3b4252"/>
     <use xlink:href="#meb23477139" x="244.048656" y="214.998677" style="fill: #3b4252; stroke: #3b4252"/>
     <use xlink:href="#meb23477139" x="156.232589" y="239.299671" style="fill: #3b4252; stroke: #3b4252"/>
     <use xlink:href="#meb23477139" x="141.520026" y="228.882698" style="fill: #3b4252; stroke: #3b4252"/>
     <use xlink:href="#meb23477139" x="145.662161" y="231.749069" style="fill: #3b4252; stroke: #3b4252"/>
     <use xlink:href="#meb23477139" x="148.664087" y="190.381102" style="fill: #3b4252; stroke: #3b4252"/>
     <use xlink:href="#meb23477139" x="142.057463" y="228.764591" style="fill: #3b4252; stroke: #3b4252"/>
     <use xlink:href="#meb23477139" x="129.216835" y="270.363542" style="fill: #3b4252; stroke: #3b4252"/>
     <use xlink:href="#meb23477139" x="118.327042" y="166.805597" style="fill: #3b4252; stroke: #3b4252"/>
     <use xlink:href="#meb23477139" x="147.993493" y="238.526468" style="fill: #3b4252; stroke: #3b4252"/>
     <use xlink:href="#meb23477139" x="119.255848" y="188.738875" style="fill: #3b4252; stroke: #3b4252"/>
     <use xlink:href="#meb23477139" x="114.386223" y="267.865082" style="fill: #3b4252; stroke: #3b4252"/>
     <use xlink:href="#meb23477139" x="147.556019" y="210.955557" style="fill: #3b4252; stroke: #3b4252"/>
     <use xlink:href="#meb23477139" x="134.164608" y="232.623107" style="fill: #3b4252; stroke: #3b4252"/>
    </g>
   </g>
   <g id="patch_2">
    <path d="M 4.00024 405.896518 
L 82.990335 405.896518 
L 82.990335 383.400463 
L 4.00024 383.400463 
L 4.00024 405.896518 
z
" style="fill: none; opacity: 0"/>
   </g>
   <g id="patch_3">
    <path d="M 6.00024 389.218393 
L 80.990335 389.218393 
L 80.990335 385.400463 
L 6.00024 385.400463 
z
" style="fill: #bf616a"/>
   </g>
   <g id="text_1">
    <!-- 5 km -->
    <g style="fill: #bf616a" transform="translate(30.95935 401.816831) scale(0.1 -0.1)">
     <defs>
      <path id="DejaVuSans-35" d="M 691 4666 
L 3169 4666 
L 3169 4134 
L 1269 4134 
L 1269 2991 
Q 1406 3038 1543 3061 
Q 1681 3084 1819 3084 
Q 2600 3084 3056 2656 
Q 3513 2228 3513 1497 
Q 3513 744 3044 326 
Q 2575 -91 1722 -91 
Q 1428 -91 1123 -41 
Q 819 9 494 109 
L 494 744 
Q 775 591 1075 516 
Q 1375 441 1709 441 
Q 2250 441 2565 725 
Q 2881 1009 2881 1497 
Q 2881 1984 2565 2268 
Q 2250 2553 1709 2553 
Q 1456 2553 1204 2497 
Q 953 2441 691 2322 
L 691 4666 
z
" transform="scale(0.015625)"/>
      <path id="DejaVuSans-20" transform="scale(0.015625)"/>
      <path id="DejaVuSans-6b" d="M 581 4863 
L 1159 4863 
L 1159 1991 
L 2875 3500 
L 3609 3500 
L 1753 1863 
L 3688 0 
L 2938 0 
L 1159 1709 
L 1159 0 
L 581 0 
L 581 4863 
z
" transform="scale(0.015625)"/>
      <path id="DejaVuSans-6d" d="M 3328 2828 
Q 3544 3216 3844 3400 
Q 4144 3584 4550 3584 
Q 5097 3584 5394 3201 
Q 5691 2819 5691 2113 
L 5691 0 
L 5113 0 
L 5113 2094 
Q 5113 2597 4934 2840 
Q 4756 3084 4391 3084 
Q 3944 3084 3684 2787 
Q 3425 2491 3425 1978 
L 3425 0 
L 2847 0 
L 2847 2094 
Q 2847 2600 2669 2842 
Q 2491 3084 2119 3084 
Q 1678 3084 1418 2786 
Q 1159 2488 1159 1978 
L 1159 0 
L 581 0 
L 581 3500 
L 1159 3500 
L 1159 2956 
Q 1356 3278 1631 3431 
Q 1906 3584 2284 3584 
Q 2666 3584 2933 3390 
Q 3200 3197 3328 2828 
z
" transform="scale(0.015625)"/>
     </defs>
     <use xlink:href="#DejaVuSans-35"/>
     <use xlink:href="#DejaVuSans-20" transform="translate(63.623047 0)"/>
     <use xlink:href="#DejaVuSans-6b" transform="translate(95.410156 0)"/>
     <use xlink:href="#DejaVuSans-6d" transform="translate(153.320312 0)"/>
    </g>
   </g>
  </g>
 </g>
 <defs>
  <clipPath id="pfc6f4ebc48">
   <rect x="3.00024" y="25.103482" width="425.99952" height="381.793037"/>
  </clipPath>
 </defs>
</svg>
