<?xml version="1.0" encoding="utf-8" standalone="no"?>
<!DOCTYPE svg PUBLIC "-//W3C//DTD SVG 1.1//EN"
  "http://www.w3.org/Graphics/SVG/1.1/DTD/svg11.dtd">
<svg xmlns:xlink="http://www.w3.org/1999/xlink" width="432pt" height="432pt" viewBox="0 0 432 432" xmlns="http://www.w3.org/2000/svg" version="1.1">
 <metadata>
  <rdf:RDF xmlns:dc="http://purl.org/dc/elements/1.1/" xmlns:cc="http://creativecommons.org/ns#" xmlns:rdf="http://www.w3.org/1999/02/22-rdf-syntax-ns#">
   <cc:Work>
    <dc:type rdf:resource="http://purl.org/dc/dcmitype/StillImage"/>
    <dc:format>image/svg+xml</dc:format>
    <dc:creator>
     <cc:Agent>
      <dc:title>Gergő Pintér</dc:title>
     </cc:Agent>
    </dc:creator>
    <dc:rights>
     <cc:Agent>
      <dc:title>CC BY 4.0</dc:title>
     </cc:Agent>
    </dc:rights>
   </cc:Work>
  </rdf:RDF>
 </metadata>
 <defs>
  <style type="text/css">*{stroke-linejoin: round; stroke-linecap: butt}</style>
 </defs>
 <g id="figure_1">
  <g id="patch_1">
   <path d="M 0 432 
L 432 432 
L 432 0 
L 0 0 
L 0 432 
z
" style="fill: none"/>
  </g>
  <g id="axes_1">
   <g id="PathCollection_1">
    <defs>
     <path id="meb23477139" d="M 0 1.118034 
C 0.296506 1.118034 0.580908 1.000231 0.790569 0.790569 
C 1.000231 0.580908 1.118034 0.296506 1.118034 0 
C 1.118034 -0.296506 1.000231 -0.580908 0.790569 -0.790569 
C 0.580908 -1.000231 0.296506 -1.118034 0 -1.118034 
C -0.296506 -1.118034 -0.580908 -1.000231 -0.790569 -0.790569 
C -1.000231 -0.580908 -1.118034 -0.296506 -1.118034 0 
C -1.118034 0.296506 -1.000231 0.580908 -0.790569 0.790569 
C -0.580908 1.000231 -0.296506 1.118034 0 1.118034 
z
" style="stroke: #3b4252"/>
    </defs>
    <g clip-path="url(#pfc6f4ebc48)">
     <use xlink:href="#meb23477139" x="143.283839" y="215.360533" style="fill: #3b4252; stroke: #3b4252"/>
     <use xlink:href="#meb23477139" x="142.150127" y="214.73098" style="fill: #3b4252; stroke: #3b4252"/>
     <use xlink:href="#meb23477139" x="144.237545" y="213.78548" style="fill: #3b4252; stroke: #3b4252"/>
     <use xlink:href="#meb23477139" x="144.069817" y="214.220863" style="fill: #3b4252; stroke: #3b4252"/>
     <use xlink:href="#meb23477139" x="143.614381" y="213.372206" style="fill: #3b4252; stroke: #3b4252"/>
     <use xlink:href="#meb23477139" x="142.299435" y="214.159375" style="fill: #3b4252; stroke: #3b4252"/>
     <use xlink:href="#meb23477139" x="143.407337" y="214.80604" style="fill: #3b4252; stroke: #3b4252"/>
     <use xlink:href="#meb23477139" x="143.147963" y="215.176403" style="fill: #3b4252; stroke: #3b4252"/>
     <use xlink:href="#meb23477139" x="143.193164" y="215.225419" style="fill: #3b4252; stroke: #3b4252"/>
     <use xlink:href="#meb23477139" x="144.373254" y="213.890009" style="fill: #3b4252; stroke: #3b4252"/>
     <use xlink:href="#meb23477139" x="143.268579" y="212.79032" style="fill: #3b4252; stroke: #3b4252"/>
     <use xlink:href="#meb23477139" x="143.186086" y="212.658604" style="fill: #3b4252; stroke: #3b4252"/>
     <use xlink:href="#meb23477139" x="143.867501" y="213.647298" style="fill: #3b4252; stroke: #3b4252"/>
     <use xlink:href="#meb23477139" x="142.456377" y="214.245787" style="fill: #3b4252; stroke: #3b4252"/>
     <use xlink:href="#meb23477139" x="143.668611" y="213.353858" style="fill: #3b4252; stroke: #3b4252"/>
     <use xlink:href="#meb23477139" x="142.958785" y="213.85033" style="fill: #3b4252; stroke: #3b4252"/>
     <use xlink:href="#meb23477139" x="143.783987" y="214.419321" style="fill: #3b4252; stroke: #3b4252"/>
     <use xlink:href="#meb23477139" x="142.796412" y="214.742915" style="fill: #3b4252; stroke: #3b4252"/>
     <use xlink:href="#meb23477139" x="144.268612" y="213.754462" style="fill: #3b4252; stroke: #3b4252"/>
     <use xlink:href="#meb23477139" x="141.780469" y="213.233753" style="fill: #3b4252; stroke: #3b4252"/>
    </g>
   </g>
   <g id="PathCollection_2">
    <g clip-path="url(#pfc6f4ebc48)">
     <use xlink:href="#meb23477139" x="112.350994" y="262.128278" style="fill: #3b4252; stroke: #3b4252"/>
     <use xlink:href="#meb23477139" x="109.506135" y="143.505193" style="fill: #3b4252; stroke: #3b4252"/>
     <use xlink:href="#meb23477139" x="176.745251" y="125.965826" style="fill: #3b4252; stroke: #3b4252"/>
     <use xlink:href="#meb23477139" x="112.164673" y="147.767314" style="fill: #3b4252; stroke: #3b4252"/>
     <use xlink:href="#meb23477139" x="195.680027" y="220.880006" style="fill: #3b4252; stroke: #3b4252"/>
     <use xlink:href="#meb23477139" x="135.302285" y="220.532693" style="fill: #3b4252; stroke: #3b4252"/>
     <use xlink:href="#meb23477139" x="134.809635" y="220.696111" style="fill: #3b4252; stroke: #3b4252"/>
     <use xlink:href="#meb23477139" x="146.242505" y="221.502153" style="fill: #3b4252; stroke: #3b4252"/>
     <use xlink:href="#meb23477139" x="137.760783" y="215.977221" style="fill: #3b4252; stroke: #3b4252"/>
     <use xlink:href="#meb23477139" x="151.266026" y="219.783817" style="fill: #3b4252; stroke: #3b4252"/>
     <use xlink:href="#meb23477139" x="108.872851" y="258.466288" style="fill: #3b4252; stroke: #3b4252"/>
     <use xlink:href="#meb23477139" x="139.264914" y="203.88077" style="fill: #3b4252; stroke: #3b4252"/>
     <use xlink:href="#meb23477139" x="135.988557" y="167.175249" style="fill: #3b4252; stroke: #3b4252"/>
     <use xlink:href="#meb23477139" x="180.608268" y="220.39979" style="fill: #3b4252; stroke: #3b4252"/>
     <use xlink:href="#meb23477139" x="132.530472" y="237.171804" style="fill: #3b4252; stroke: #3b4252"/>
     <use xlink:href="#meb23477139" x="183.104091" y="315.157689" style="fill: #3b4252; stroke: #3b4252"/>
     <use xlink:href="#meb23477139" x="212.020806" y="206.178786" style="fill: #3b4252; stroke: #3b4252"/>
    </g>
   </g>
   <g id="PatchCollection_1">
    <path d="M 141.489852 214.014232 
L 141.497074 213.867225 
L 141.518671 213.721635 
L 141.554433 213.578862 
L 141.604018 213.440282 
L 141.666947 213.30723 
L 141.742615 213.180986 
L 141.830292 213.062767 
L 141.929134 212.953712 
L 142.03819 212.854869 
L 142.156409 212.767192 
L 142.282653 212.691525 
L 142.415705 212.628595 
L 142.554285 212.579011 
L 142.697057 212.543248 
L 142.842648 212.521652 
L 142.989654 212.51443 
L 143.136661 212.521652 
L 143.282251 212.543248 
L 143.425024 212.579011 
L 143.563604 212.628595 
L 143.696656 212.691525 
L 143.8229 212.767192 
L 143.941119 212.854869 
L 144.050174 212.953712 
L 144.149017 213.062767 
L 144.236694 213.180986 
L 144.312361 213.30723 
L 144.375291 213.440282 
L 144.424875 213.578862 
L 144.460638 213.721635 
L 144.482234 213.867225 
L 144.489456 214.014232 
L 144.482234 214.161238 
L 144.460638 214.306829 
L 144.424875 214.449601 
L 144.375291 214.588181 
L 144.312361 214.721233 
L 144.236694 214.847477 
L 144.149017 214.965696 
L 144.050174 215.074752 
L 143.941119 215.173594 
L 143.8229 215.261271 
L 143.696656 215.336939 
L 143.563604 215.399868 
L 143.425024 215.449453 
L 143.282251 215.485215 
L 143.136661 215.506812 
L 142.989654 215.514034 
L 142.842648 215.506812 
L 142.697057 215.485215 
L 142.554285 215.449453 
L 142.415705 215.399868 
L 142.282653 215.336939 
L 142.156409 215.261271 
L 142.03819 215.173594 
L 141.929134 215.074752 
L 141.830292 214.965696 
L 141.742615 214.847477 
L 141.666947 214.721233 
L 141.604018 214.588181 
L 141.554433 214.449601 
L 141.518671 214.306829 
L 141.497074 214.161238 
L 141.489852 214.014232 
z
" clip-path="url(#pfc6f4ebc48)" style="fill: none; stroke: #bf616a; stroke-width: 2"/>
   </g>
   <g id="patch_2">
    <path d="M 4.00024 405.896518 
L 82.990335 405.896518 
L 82.990335 383.400463 
L 4.00024 383.400463 
L 4.00024 405.896518 
z
" style="fill: none; opacity: 0"/>
   </g>
   <g id="patch_3">
    <path d="M 6.00024 389.218393 
L 80.990335 389.218393 
L 80.990335 385.400463 
L 6.00024 385.400463 
z
" style="fill: #bf616a"/>
   </g>
   <g id="text_1">
    <!-- 5 km -->
    <g style="fill: #bf616a" transform="translate(30.95935 401.816831) scale(0.1 -0.1)">
     <defs>
      <path id="DejaVuSans-35" d="M 691 4666 
L 3169 4666 
L 3169 4134 
L 1269 4134 
L 1269 2991 
Q 1406 3038 1543 3061 
Q 1681 3084 1819 3084 
Q 2600 3084 3056 2656 
Q 3513 2228 3513 1497 
Q 3513 744 3044 326 
Q 2575 -91 1722 -91 
Q 1428 -91 1123 -41 
Q 819 9 494 109 
L 494 744 
Q 775 591 1075 516 
Q 1375 441 1709 441 
Q 2250 441 2565 725 
Q 2881 1009 2881 1497 
Q 2881 1984 2565 2268 
Q 2250 2553 1709 2553 
Q 1456 2553 1204 2497 
Q 953 2441 691 2322 
L 691 4666 
z
" transform="scale(0.015625)"/>
      <path id="DejaVuSans-20" transform="scale(0.015625)"/>
      <path id="DejaVuSans-6b" d="M 581 4863 
L 1159 4863 
L 1159 1991 
L 2875 3500 
L 3609 3500 
L 1753 1863 
L 3688 0 
L 2938 0 
L 1159 1709 
L 1159 0 
L 581 0 
L 581 4863 
z
" transform="scale(0.015625)"/>
      <path id="DejaVuSans-6d" d="M 3328 2828 
Q 3544 3216 3844 3400 
Q 4144 3584 4550 3584 
Q 5097 3584 5394 3201 
Q 5691 2819 5691 2113 
L 5691 0 
L 5113 0 
L 5113 2094 
Q 5113 2597 4934 2840 
Q 4756 3084 4391 3084 
Q 3944 3084 3684 2787 
Q 3425 2491 3425 1978 
L 3425 0 
L 2847 0 
L 2847 2094 
Q 2847 2600 2669 2842 
Q 2491 3084 2119 3084 
Q 1678 3084 1418 2786 
Q 1159 2488 1159 1978 
L 1159 0 
L 581 0 
L 581 3500 
L 1159 3500 
L 1159 2956 
Q 1356 3278 1631 3431 
Q 1906 3584 2284 3584 
Q 2666 3584 2933 3390 
Q 3200 3197 3328 2828 
z
" transform="scale(0.015625)"/>
     </defs>
     <use xlink:href="#DejaVuSans-35"/>
     <use xlink:href="#DejaVuSans-20" transform="translate(63.623047 0)"/>
     <use xlink:href="#DejaVuSans-6b" transform="translate(95.410156 0)"/>
     <use xlink:href="#DejaVuSans-6d" transform="translate(153.320312 0)"/>
    </g>
   </g>
  </g>
  <g id="axes_2">
   <g id="PatchCollection_2">
    <defs>
     <path id="m5c8079583f" d="M 213.142617 -293.896518 
L 213.637902 -303.978281 
L 215.118988 -313.962951 
L 217.571611 -323.754371 
L 220.972151 -333.258243 
L 225.287859 -342.38304 
L 230.477171 -351.040885 
L 236.490113 -359.148399 
L 243.268777 -366.627502 
L 250.747879 -373.406165 
L 258.855393 -379.419107 
L 267.513239 -384.60842 
L 276.638036 -388.924127 
L 286.141907 -392.324667 
L 295.933327 -394.77729 
L 305.917997 -396.258376 
L 315.99976 -396.753661 
L 326.081523 -396.258376 
L 336.066193 -394.77729 
L 345.857613 -392.324667 
L 355.361484 -388.924127 
L 364.486281 -384.60842 
L 373.144127 -379.419107 
L 381.251641 -373.406165 
L 388.730743 -366.627502 
L 395.509407 -359.148399 
L 401.522349 -351.040885 
L 406.711661 -342.38304 
L 411.027369 -333.258243 
L 414.427909 -323.754371 
L 416.880532 -313.962951 
L 418.361618 -303.978281 
L 418.856903 -293.896518 
L 418.361618 -283.814755 
L 416.880532 -273.830085 
L 414.427909 -264.038666 
L 411.027369 -254.534794 
L 406.711661 -245.409997 
L 401.522349 -236.752152 
L 395.509407 -228.644638 
L 388.730743 -221.165535 
L 381.251641 -214.386872 
L 373.144127 -208.37393 
L 364.486281 -203.184617 
L 355.361484 -198.868909 
L 345.857613 -195.46837 
L 336.066193 -193.015747 
L 326.081523 -191.534661 
L 315.99976 -191.039375 
L 305.917997 -191.534661 
L 295.933327 -193.015747 
L 286.141907 -195.46837 
L 276.638036 -198.868909 
L 267.513239 -203.184617 
L 258.855393 -208.37393 
L 250.747879 -214.386872 
L 243.268777 -221.165535 
L 236.490113 -228.644638 
L 230.477171 -236.752152 
L 225.287859 -245.409997 
L 220.972151 -254.534794 
L 217.571611 -264.038666 
L 215.118988 -273.830085 
L 213.637902 -283.814755 
z
" style="stroke: #bf616a; stroke-width: 2"/>
    </defs>
    <g clip-path="url(#p4bb29712ae)">
     <use xlink:href="#m5c8079583f" x="0" y="432" style="fill: #e5e9f0; stroke: #bf616a; stroke-width: 2"/>
    </g>
   </g>
   <g id="PathCollection_3">
    <defs>
     <path id="mfbbc59accb" d="M 0 2.236068 
C 0.593012 2.236068 1.161816 2.000462 1.581139 1.581139 
C 2.000462 1.161816 2.236068 0.593012 2.236068 0 
C 2.236068 -0.593012 2.000462 -1.161816 1.581139 -1.581139 
C 1.161816 -2.000462 0.593012 -2.236068 0 -2.236068 
C -0.593012 -2.236068 -1.161816 -2.000462 -1.581139 -1.581139 
C -2.000462 -1.161816 -2.236068 -0.593012 -2.236068 0 
C -2.236068 0.593012 -2.000462 1.161816 -1.581139 1.581139 
C -1.161816 2.000462 -0.593012 2.236068 0 2.236068 
z
" style="stroke: #3b4252"/>
    </defs>
    <g clip-path="url(#p4bb29712ae)">
     <use xlink:href="#mfbbc59accb" x="336.175078" y="230.433491" style="fill: #3b4252; stroke: #3b4252"/>
     <use xlink:href="#mfbbc59accb" x="258.424604" y="187.258424" style="fill: #3b4252; stroke: #3b4252"/>
     <use xlink:href="#mfbbc59accb" x="401.58072" y="122.415583" style="fill: #3b4252; stroke: #3b4252"/>
     <use xlink:href="#mfbbc59accb" x="390.077842" y="152.274366" style="fill: #3b4252; stroke: #3b4252"/>
     <use xlink:href="#mfbbc59accb" x="358.843825" y="94.073042" style="fill: #3b4252; stroke: #3b4252"/>
     <use xlink:href="#mfbbc59accb" x="268.664178" y="148.057468" style="fill: #3b4252; stroke: #3b4252"/>
     <use xlink:href="#mfbbc59accb" x="344.644672" y="192.406064" style="fill: #3b4252; stroke: #3b4252"/>
     <use xlink:href="#mfbbc59accb" x="326.856654" y="217.805737" style="fill: #3b4252; stroke: #3b4252"/>
     <use xlink:href="#mfbbc59accb" x="329.95653" y="221.167326" style="fill: #3b4252; stroke: #3b4252"/>
     <use xlink:href="#mfbbc59accb" x="410.887705" y="129.584255" style="fill: #3b4252; stroke: #3b4252"/>
     <use xlink:href="#mfbbc59accb" x="335.128577" y="54.167003" style="fill: #3b4252; stroke: #3b4252"/>
     <use xlink:href="#mfbbc59accb" x="329.47112" y="45.13385" style="fill: #3b4252; stroke: #3b4252"/>
     <use xlink:href="#mfbbc59accb" x="376.202921" y="112.939001" style="fill: #3b4252; stroke: #3b4252"/>
     <use xlink:href="#mfbbc59accb" x="279.427311" y="153.983671" style="fill: #3b4252; stroke: #3b4252"/>
     <use xlink:href="#mfbbc59accb" x="362.562976" y="92.814718" style="fill: #3b4252; stroke: #3b4252"/>
     <use xlink:href="#mfbbc59accb" x="313.882714" y="126.863058" style="fill: #3b4252; stroke: #3b4252"/>
     <use xlink:href="#mfbbc59accb" x="370.475495" y="165.884703" style="fill: #3b4252; stroke: #3b4252"/>
     <use xlink:href="#mfbbc59accb" x="302.747091" y="188.076958" style="fill: #3b4252; stroke: #3b4252"/>
     <use xlink:href="#mfbbc59accb" x="403.711308" y="120.288362" style="fill: #3b4252; stroke: #3b4252"/>
     <use xlink:href="#mfbbc59accb" x="233.07327" y="84.577844" style="fill: #3b4252; stroke: #3b4252"/>
    </g>
   </g>
  </g>
 </g>
 <defs>
  <clipPath id="pfc6f4ebc48">
   <rect x="3.00024" y="25.103482" width="425.99952" height="381.793037"/>
  </clipPath>
  <clipPath id="p4bb29712ae">
   <rect x="207.99976" y="30.103482" width="216" height="216"/>
  </clipPath>
 </defs>
</svg>
