<?xml version="1.0" encoding="utf-8" standalone="no"?>
<!DOCTYPE svg PUBLIC "-//W3C//DTD SVG 1.1//EN"
  "http://www.w3.org/Graphics/SVG/1.1/DTD/svg11.dtd">
<svg xmlns:xlink="http://www.w3.org/1999/xlink" width="504pt" height="144pt" viewBox="0 0 504 144" xmlns="http://www.w3.org/2000/svg" version="1.1">
 <metadata>
  <rdf:RDF xmlns:dc="http://purl.org/dc/elements/1.1/" xmlns:cc="http://creativecommons.org/ns#" xmlns:rdf="http://www.w3.org/1999/02/22-rdf-syntax-ns#">
   <cc:Work>
    <dc:type rdf:resource="http://purl.org/dc/dcmitype/StillImage"/>
    <dc:date>None</dc:date>
    <dc:format>image/svg+xml</dc:format>
    <dc:creator>
     <cc:Agent>
      <dc:title>Gergő Pintér</dc:title>
     </cc:Agent>
    </dc:creator>
    <dc:rights>
     <cc:Agent>
      <dc:title>CC BY 4.0</dc:title>
     </cc:Agent>
    </dc:rights>
   </cc:Work>
  </rdf:RDF>
 </metadata>
 <defs>
  <style type="text/css">*{stroke-linejoin: round; stroke-linecap: butt}</style>
 </defs>
 <g id="figure_1">
  <g id="patch_1">
   <path d="M 0 144 
L 504 144 
L 504 0 
L 0 0 
L 0 144 
z
" style="fill: none"/>
  </g>
  <g id="axes_1">
   <g id="patch_2">
    <path d="M 49.81524 106.77226 
L 500.99976 106.77226 
L 500.99976 13.598677 
L 49.81524 13.598677 
L 49.81524 106.77226 
z
" style="fill: none"/>
   </g>
   <g id="FillBetweenPolyCollection_1"/>
   <g id="patch_3">
    <path d="M 49.81524 106.77226 
L 55.912328 106.77226 
L 55.912328 13.598677 
L 49.81524 13.598677 
z
" clip-path="url(#p2e2b4b6e7d)" style="fill: #ebcb8b; opacity: 0.95; stroke: #ebcb8b; stroke-linejoin: miter"/>
   </g>
   <g id="patch_4">
    <path d="M 86.397769 106.77226 
L 92.494857 106.77226 
L 92.494857 13.598677 
L 86.397769 13.598677 
z
" clip-path="url(#p2e2b4b6e7d)" style="fill: #ebcb8b; opacity: 0.95; stroke: #ebcb8b; stroke-linejoin: miter"/>
   </g>
   <g id="patch_5">
    <path d="M 92.494857 106.77226 
L 98.591945 106.77226 
L 98.591945 13.598677 
L 92.494857 13.598677 
z
" clip-path="url(#p2e2b4b6e7d)" style="fill: #ebcb8b; opacity: 0.95; stroke: #ebcb8b; stroke-linejoin: miter"/>
   </g>
   <g id="patch_6">
    <path d="M 129.077385 106.77226 
L 135.174474 106.77226 
L 135.174474 13.598677 
L 129.077385 13.598677 
z
" clip-path="url(#p2e2b4b6e7d)" style="fill: #ebcb8b; opacity: 0.95; stroke: #ebcb8b; stroke-linejoin: miter"/>
   </g>
   <g id="patch_7">
    <path d="M 135.174474 106.77226 
L 141.271562 106.77226 
L 141.271562 13.598677 
L 135.174474 13.598677 
z
" clip-path="url(#p2e2b4b6e7d)" style="fill: #ebcb8b; opacity: 0.95; stroke: #ebcb8b; stroke-linejoin: miter"/>
   </g>
   <g id="patch_8">
    <path d="M 171.757002 106.77226 
L 177.85409 106.77226 
L 177.85409 13.598677 
L 171.757002 13.598677 
z
" clip-path="url(#p2e2b4b6e7d)" style="fill: #ebcb8b; opacity: 0.95; stroke: #ebcb8b; stroke-linejoin: miter"/>
   </g>
   <g id="patch_9">
    <path d="M 177.85409 106.77226 
L 183.951178 106.77226 
L 183.951178 13.598677 
L 177.85409 13.598677 
z
" clip-path="url(#p2e2b4b6e7d)" style="fill: #ebcb8b; opacity: 0.95; stroke: #ebcb8b; stroke-linejoin: miter"/>
   </g>
   <g id="patch_10">
    <path d="M 214.436619 106.77226 
L 220.533707 106.77226 
L 220.533707 13.598677 
L 214.436619 13.598677 
z
" clip-path="url(#p2e2b4b6e7d)" style="fill: #ebcb8b; opacity: 0.95; stroke: #ebcb8b; stroke-linejoin: miter"/>
   </g>
   <g id="patch_11">
    <path d="M 220.533707 106.77226 
L 226.630795 106.77226 
L 226.630795 13.598677 
L 220.533707 13.598677 
z
" clip-path="url(#p2e2b4b6e7d)" style="fill: #ebcb8b; opacity: 0.95; stroke: #ebcb8b; stroke-linejoin: miter"/>
   </g>
   <g id="patch_12">
    <path d="M 257.116236 106.77226 
L 263.213324 106.77226 
L 263.213324 13.598677 
L 257.116236 13.598677 
z
" clip-path="url(#p2e2b4b6e7d)" style="fill: #ebcb8b; opacity: 0.95; stroke: #ebcb8b; stroke-linejoin: miter"/>
   </g>
   <g id="patch_13">
    <path d="M 263.213324 106.77226 
L 269.310412 106.77226 
L 269.310412 13.598677 
L 263.213324 13.598677 
z
" clip-path="url(#p2e2b4b6e7d)" style="fill: #ebcb8b; opacity: 0.95; stroke: #ebcb8b; stroke-linejoin: miter"/>
   </g>
   <g id="patch_14">
    <path d="M 299.795852 106.77226 
L 305.892941 106.77226 
L 305.892941 13.598677 
L 299.795852 13.598677 
z
" clip-path="url(#p2e2b4b6e7d)" style="fill: #ebcb8b; opacity: 0.95; stroke: #ebcb8b; stroke-linejoin: miter"/>
   </g>
   <g id="patch_15">
    <path d="M 305.892941 106.77226 
L 311.990029 106.77226 
L 311.990029 13.598677 
L 305.892941 13.598677 
z
" clip-path="url(#p2e2b4b6e7d)" style="fill: #ebcb8b; opacity: 0.95; stroke: #ebcb8b; stroke-linejoin: miter"/>
   </g>
   <g id="patch_16">
    <path d="M 342.475469 106.77226 
L 348.572557 106.77226 
L 348.572557 13.598677 
L 342.475469 13.598677 
z
" clip-path="url(#p2e2b4b6e7d)" style="fill: #ebcb8b; opacity: 0.95; stroke: #ebcb8b; stroke-linejoin: miter"/>
   </g>
   <g id="patch_17">
    <path d="M 348.572557 106.77226 
L 354.669645 106.77226 
L 354.669645 13.598677 
L 348.572557 13.598677 
z
" clip-path="url(#p2e2b4b6e7d)" style="fill: #ebcb8b; opacity: 0.95; stroke: #ebcb8b; stroke-linejoin: miter"/>
   </g>
   <g id="patch_18">
    <path d="M 385.155086 106.77226 
L 391.252174 106.77226 
L 391.252174 13.598677 
L 385.155086 13.598677 
z
" clip-path="url(#p2e2b4b6e7d)" style="fill: #ebcb8b; opacity: 0.95; stroke: #ebcb8b; stroke-linejoin: miter"/>
   </g>
   <g id="patch_19">
    <path d="M 391.252174 106.77226 
L 397.349262 106.77226 
L 397.349262 13.598677 
L 391.252174 13.598677 
z
" clip-path="url(#p2e2b4b6e7d)" style="fill: #ebcb8b; opacity: 0.95; stroke: #ebcb8b; stroke-linejoin: miter"/>
   </g>
   <g id="patch_20">
    <path d="M 427.834703 106.77226 
L 433.931791 106.77226 
L 433.931791 13.598677 
L 427.834703 13.598677 
z
" clip-path="url(#p2e2b4b6e7d)" style="fill: #ebcb8b; opacity: 0.95; stroke: #ebcb8b; stroke-linejoin: miter"/>
   </g>
   <g id="patch_21">
    <path d="M 433.931791 106.77226 
L 440.028879 106.77226 
L 440.028879 13.598677 
L 433.931791 13.598677 
z
" clip-path="url(#p2e2b4b6e7d)" style="fill: #ebcb8b; opacity: 0.95; stroke: #ebcb8b; stroke-linejoin: miter"/>
   </g>
   <g id="patch_22">
    <path d="M 470.514319 106.77226 
L 476.611408 106.77226 
L 476.611408 13.598677 
L 470.514319 13.598677 
z
" clip-path="url(#p2e2b4b6e7d)" style="fill: #ebcb8b; opacity: 0.95; stroke: #ebcb8b; stroke-linejoin: miter"/>
   </g>
   <g id="patch_23">
    <path d="M 476.611408 106.77226 
L 482.708496 106.77226 
L 482.708496 13.598677 
L 476.611408 13.598677 
z
" clip-path="url(#p2e2b4b6e7d)" style="fill: #ebcb8b; opacity: 0.95; stroke: #ebcb8b; stroke-linejoin: miter"/>
   </g>
   <g id="patch_24">
    <path d="M 55.912328 106.77226 
L 62.009416 106.77226 
L 62.009416 13.598677 
L 55.912328 13.598677 
z
" clip-path="url(#p2e2b4b6e7d)" style="fill: #d08770; opacity: 0.95; stroke: #d08770; stroke-linejoin: miter"/>
   </g>
   <g id="patch_25">
    <path d="M 98.591945 106.77226 
L 104.689033 106.77226 
L 104.689033 13.598677 
L 98.591945 13.598677 
z
" clip-path="url(#p2e2b4b6e7d)" style="fill: #d08770; opacity: 0.95; stroke: #d08770; stroke-linejoin: miter"/>
   </g>
   <g id="patch_26">
    <path d="M 226.630795 106.77226 
L 232.727883 106.77226 
L 232.727883 13.598677 
L 226.630795 13.598677 
z
" clip-path="url(#p2e2b4b6e7d)" style="fill: #d08770; opacity: 0.95; stroke: #d08770; stroke-linejoin: miter"/>
   </g>
   <g id="patch_27">
    <path d="M 275.4075 106.77226 
L 281.504588 106.77226 
L 281.504588 13.598677 
L 275.4075 13.598677 
z
" clip-path="url(#p2e2b4b6e7d)" style="fill: #d08770; opacity: 0.95; stroke: #d08770; stroke-linejoin: miter"/>
   </g>
   <g id="patch_28">
    <path d="M 354.669645 106.77226 
L 360.766734 106.77226 
L 360.766734 13.598677 
L 354.669645 13.598677 
z
" clip-path="url(#p2e2b4b6e7d)" style="fill: #d08770; opacity: 0.95; stroke: #d08770; stroke-linejoin: miter"/>
   </g>
   <g id="matplotlib.axis_1">
    <g id="xtick_1">
     <g id="line2d_1">
      <defs>
       <path id="mea81b79d29" d="M 0 0 
L 0 3.5 
" style="stroke: #000000; stroke-width: 0.8"/>
      </defs>
      <g>
       <use xlink:href="#mea81b79d29" x="49.81524" y="106.77226" style="stroke: #000000; stroke-width: 0.8"/>
      </g>
     </g>
     <g id="text_1">
      <!-- 0 -->
      <g transform="translate(46.63399 121.370698) scale(0.1 -0.1)">
       <defs>
        <path id="DejaVuSans-30" d="M 2034 4250 
Q 1547 4250 1301 3770 
Q 1056 3291 1056 2328 
Q 1056 1369 1301 889 
Q 1547 409 2034 409 
Q 2525 409 2770 889 
Q 3016 1369 3016 2328 
Q 3016 3291 2770 3770 
Q 2525 4250 2034 4250 
z
M 2034 4750 
Q 2819 4750 3233 4129 
Q 3647 3509 3647 2328 
Q 3647 1150 3233 529 
Q 2819 -91 2034 -91 
Q 1250 -91 836 529 
Q 422 1150 422 2328 
Q 422 3509 836 4129 
Q 1250 4750 2034 4750 
z
" transform="scale(0.015625)"/>
       </defs>
       <use xlink:href="#DejaVuSans-30"/>
      </g>
     </g>
    </g>
    <g id="xtick_2">
     <g id="line2d_2">
      <g>
       <use xlink:href="#mea81b79d29" x="110.786121" y="106.77226" style="stroke: #000000; stroke-width: 0.8"/>
      </g>
     </g>
     <g id="text_2">
      <!-- 10 -->
      <g transform="translate(104.423621 121.370698) scale(0.1 -0.1)">
       <defs>
        <path id="DejaVuSans-31" d="M 794 531 
L 1825 531 
L 1825 4091 
L 703 3866 
L 703 4441 
L 1819 4666 
L 2450 4666 
L 2450 531 
L 3481 531 
L 3481 0 
L 794 0 
L 794 531 
z
" transform="scale(0.015625)"/>
       </defs>
       <use xlink:href="#DejaVuSans-31"/>
       <use xlink:href="#DejaVuSans-30" transform="translate(63.623047 0)"/>
      </g>
     </g>
    </g>
    <g id="xtick_3">
     <g id="line2d_3">
      <g>
       <use xlink:href="#mea81b79d29" x="171.757002" y="106.77226" style="stroke: #000000; stroke-width: 0.8"/>
      </g>
     </g>
     <g id="text_3">
      <!-- 20 -->
      <g transform="translate(165.394502 121.370698) scale(0.1 -0.1)">
       <defs>
        <path id="DejaVuSans-32" d="M 1228 531 
L 3431 531 
L 3431 0 
L 469 0 
L 469 531 
Q 828 903 1448 1529 
Q 2069 2156 2228 2338 
Q 2531 2678 2651 2914 
Q 2772 3150 2772 3378 
Q 2772 3750 2511 3984 
Q 2250 4219 1831 4219 
Q 1534 4219 1204 4116 
Q 875 4013 500 3803 
L 500 4441 
Q 881 4594 1212 4672 
Q 1544 4750 1819 4750 
Q 2544 4750 2975 4387 
Q 3406 4025 3406 3419 
Q 3406 3131 3298 2873 
Q 3191 2616 2906 2266 
Q 2828 2175 2409 1742 
Q 1991 1309 1228 531 
z
" transform="scale(0.015625)"/>
       </defs>
       <use xlink:href="#DejaVuSans-32"/>
       <use xlink:href="#DejaVuSans-30" transform="translate(63.623047 0)"/>
      </g>
     </g>
    </g>
    <g id="xtick_4">
     <g id="line2d_4">
      <g>
       <use xlink:href="#mea81b79d29" x="232.727883" y="106.77226" style="stroke: #000000; stroke-width: 0.8"/>
      </g>
     </g>
     <g id="text_4">
      <!-- 30 -->
      <g transform="translate(226.365383 121.370698) scale(0.1 -0.1)">
       <defs>
        <path id="DejaVuSans-33" d="M 2597 2516 
Q 3050 2419 3304 2112 
Q 3559 1806 3559 1356 
Q 3559 666 3084 287 
Q 2609 -91 1734 -91 
Q 1441 -91 1130 -33 
Q 819 25 488 141 
L 488 750 
Q 750 597 1062 519 
Q 1375 441 1716 441 
Q 2309 441 2620 675 
Q 2931 909 2931 1356 
Q 2931 1769 2642 2001 
Q 2353 2234 1838 2234 
L 1294 2234 
L 1294 2753 
L 1863 2753 
Q 2328 2753 2575 2939 
Q 2822 3125 2822 3475 
Q 2822 3834 2567 4026 
Q 2313 4219 1838 4219 
Q 1578 4219 1281 4162 
Q 984 4106 628 3988 
L 628 4550 
Q 988 4650 1302 4700 
Q 1616 4750 1894 4750 
Q 2613 4750 3031 4423 
Q 3450 4097 3450 3541 
Q 3450 3153 3228 2886 
Q 3006 2619 2597 2516 
z
" transform="scale(0.015625)"/>
       </defs>
       <use xlink:href="#DejaVuSans-33"/>
       <use xlink:href="#DejaVuSans-30" transform="translate(63.623047 0)"/>
      </g>
     </g>
    </g>
    <g id="xtick_5">
     <g id="line2d_5">
      <g>
       <use xlink:href="#mea81b79d29" x="293.698764" y="106.77226" style="stroke: #000000; stroke-width: 0.8"/>
      </g>
     </g>
     <g id="text_5">
      <!-- 40 -->
      <g transform="translate(287.336264 121.370698) scale(0.1 -0.1)">
       <defs>
        <path id="DejaVuSans-34" d="M 2419 4116 
L 825 1625 
L 2419 1625 
L 2419 4116 
z
M 2253 4666 
L 3047 4666 
L 3047 1625 
L 3713 1625 
L 3713 1100 
L 3047 1100 
L 3047 0 
L 2419 0 
L 2419 1100 
L 313 1100 
L 313 1709 
L 2253 4666 
z
" transform="scale(0.015625)"/>
       </defs>
       <use xlink:href="#DejaVuSans-34"/>
       <use xlink:href="#DejaVuSans-30" transform="translate(63.623047 0)"/>
      </g>
     </g>
    </g>
    <g id="xtick_6">
     <g id="line2d_6">
      <g>
       <use xlink:href="#mea81b79d29" x="354.669645" y="106.77226" style="stroke: #000000; stroke-width: 0.8"/>
      </g>
     </g>
     <g id="text_6">
      <!-- 50 -->
      <g transform="translate(348.307145 121.370698) scale(0.1 -0.1)">
       <defs>
        <path id="DejaVuSans-35" d="M 691 4666 
L 3169 4666 
L 3169 4134 
L 1269 4134 
L 1269 2991 
Q 1406 3038 1543 3061 
Q 1681 3084 1819 3084 
Q 2600 3084 3056 2656 
Q 3513 2228 3513 1497 
Q 3513 744 3044 326 
Q 2575 -91 1722 -91 
Q 1428 -91 1123 -41 
Q 819 9 494 109 
L 494 744 
Q 775 591 1075 516 
Q 1375 441 1709 441 
Q 2250 441 2565 725 
Q 2881 1009 2881 1497 
Q 2881 1984 2565 2268 
Q 2250 2553 1709 2553 
Q 1456 2553 1204 2497 
Q 953 2441 691 2322 
L 691 4666 
z
" transform="scale(0.015625)"/>
       </defs>
       <use xlink:href="#DejaVuSans-35"/>
       <use xlink:href="#DejaVuSans-30" transform="translate(63.623047 0)"/>
      </g>
     </g>
    </g>
    <g id="xtick_7">
     <g id="line2d_7">
      <g>
       <use xlink:href="#mea81b79d29" x="415.640526" y="106.77226" style="stroke: #000000; stroke-width: 0.8"/>
      </g>
     </g>
     <g id="text_7">
      <!-- 60 -->
      <g transform="translate(409.278026 121.370698) scale(0.1 -0.1)">
       <defs>
        <path id="DejaVuSans-36" d="M 2113 2584 
Q 1688 2584 1439 2293 
Q 1191 2003 1191 1497 
Q 1191 994 1439 701 
Q 1688 409 2113 409 
Q 2538 409 2786 701 
Q 3034 994 3034 1497 
Q 3034 2003 2786 2293 
Q 2538 2584 2113 2584 
z
M 3366 4563 
L 3366 3988 
Q 3128 4100 2886 4159 
Q 2644 4219 2406 4219 
Q 1781 4219 1451 3797 
Q 1122 3375 1075 2522 
Q 1259 2794 1537 2939 
Q 1816 3084 2150 3084 
Q 2853 3084 3261 2657 
Q 3669 2231 3669 1497 
Q 3669 778 3244 343 
Q 2819 -91 2113 -91 
Q 1303 -91 875 529 
Q 447 1150 447 2328 
Q 447 3434 972 4092 
Q 1497 4750 2381 4750 
Q 2619 4750 2861 4703 
Q 3103 4656 3366 4563 
z
" transform="scale(0.015625)"/>
       </defs>
       <use xlink:href="#DejaVuSans-36"/>
       <use xlink:href="#DejaVuSans-30" transform="translate(63.623047 0)"/>
      </g>
     </g>
    </g>
    <g id="xtick_8">
     <g id="line2d_8">
      <g>
       <use xlink:href="#mea81b79d29" x="476.611408" y="106.77226" style="stroke: #000000; stroke-width: 0.8"/>
      </g>
     </g>
     <g id="text_8">
      <!-- 70 -->
      <g transform="translate(470.248908 121.370698) scale(0.1 -0.1)">
       <defs>
        <path id="DejaVuSans-37" d="M 525 4666 
L 3525 4666 
L 3525 4397 
L 1831 0 
L 1172 0 
L 2766 4134 
L 525 4134 
L 525 4666 
z
" transform="scale(0.015625)"/>
       </defs>
       <use xlink:href="#DejaVuSans-37"/>
       <use xlink:href="#DejaVuSans-30" transform="translate(63.623047 0)"/>
      </g>
     </g>
    </g>
    <g id="text_9">
     <!-- day -->
     <g transform="translate(262.530781 138.088198) scale(0.14 -0.14)">
      <defs>
       <path id="DejaVuSans-64" d="M 2906 2969 
L 2906 4863 
L 3481 4863 
L 3481 0 
L 2906 0 
L 2906 525 
Q 2725 213 2448 61 
Q 2172 -91 1784 -91 
Q 1150 -91 751 415 
Q 353 922 353 1747 
Q 353 2572 751 3078 
Q 1150 3584 1784 3584 
Q 2172 3584 2448 3432 
Q 2725 3281 2906 2969 
z
M 947 1747 
Q 947 1113 1208 752 
Q 1469 391 1925 391 
Q 2381 391 2643 752 
Q 2906 1113 2906 1747 
Q 2906 2381 2643 2742 
Q 2381 3103 1925 3103 
Q 1469 3103 1208 2742 
Q 947 2381 947 1747 
z
" transform="scale(0.015625)"/>
       <path id="DejaVuSans-61" d="M 2194 1759 
Q 1497 1759 1228 1600 
Q 959 1441 959 1056 
Q 959 750 1161 570 
Q 1363 391 1709 391 
Q 2188 391 2477 730 
Q 2766 1069 2766 1631 
L 2766 1759 
L 2194 1759 
z
M 3341 1997 
L 3341 0 
L 2766 0 
L 2766 531 
Q 2569 213 2275 61 
Q 1981 -91 1556 -91 
Q 1019 -91 701 211 
Q 384 513 384 1019 
Q 384 1609 779 1909 
Q 1175 2209 1959 2209 
L 2766 2209 
L 2766 2266 
Q 2766 2663 2505 2880 
Q 2244 3097 1772 3097 
Q 1472 3097 1187 3025 
Q 903 2953 641 2809 
L 641 3341 
Q 956 3463 1253 3523 
Q 1550 3584 1831 3584 
Q 2591 3584 2966 3190 
Q 3341 2797 3341 1997 
z
" transform="scale(0.015625)"/>
       <path id="DejaVuSans-79" d="M 2059 -325 
Q 1816 -950 1584 -1140 
Q 1353 -1331 966 -1331 
L 506 -1331 
L 506 -850 
L 844 -850 
Q 1081 -850 1212 -737 
Q 1344 -625 1503 -206 
L 1606 56 
L 191 3500 
L 800 3500 
L 1894 763 
L 2988 3500 
L 3597 3500 
L 2059 -325 
z
" transform="scale(0.015625)"/>
      </defs>
      <use xlink:href="#DejaVuSans-64"/>
      <use xlink:href="#DejaVuSans-61" transform="translate(63.476562 0)"/>
      <use xlink:href="#DejaVuSans-79" transform="translate(124.755859 0)"/>
     </g>
    </g>
   </g>
   <g id="matplotlib.axis_2">
    <g id="ytick_1">
     <g id="line2d_9">
      <defs>
       <path id="m29ee419f50" d="M 0 0 
L -3.5 0 
" style="stroke: #000000; stroke-width: 0.8"/>
      </defs>
      <g>
       <use xlink:href="#m29ee419f50" x="49.81524" y="95.167366" style="stroke: #000000; stroke-width: 0.8"/>
      </g>
     </g>
     <g id="text_10">
      <!-- 1.00 -->
      <g transform="translate(20.549615 98.966585) scale(0.1 -0.1)">
       <defs>
        <path id="DejaVuSans-2e" d="M 684 794 
L 1344 794 
L 1344 0 
L 684 0 
L 684 794 
z
" transform="scale(0.015625)"/>
       </defs>
       <use xlink:href="#DejaVuSans-31"/>
       <use xlink:href="#DejaVuSans-2e" transform="translate(63.623047 0)"/>
       <use xlink:href="#DejaVuSans-30" transform="translate(95.410156 0)"/>
       <use xlink:href="#DejaVuSans-30" transform="translate(159.033203 0)"/>
      </g>
     </g>
    </g>
    <g id="ytick_2">
     <g id="line2d_10">
      <g>
       <use xlink:href="#m29ee419f50" x="49.81524" y="66.791211" style="stroke: #000000; stroke-width: 0.8"/>
      </g>
     </g>
     <g id="text_11">
      <!-- 1.25 -->
      <g transform="translate(20.549615 70.590429) scale(0.1 -0.1)">
       <use xlink:href="#DejaVuSans-31"/>
       <use xlink:href="#DejaVuSans-2e" transform="translate(63.623047 0)"/>
       <use xlink:href="#DejaVuSans-32" transform="translate(95.410156 0)"/>
       <use xlink:href="#DejaVuSans-35" transform="translate(159.033203 0)"/>
      </g>
     </g>
    </g>
    <g id="ytick_3">
     <g id="line2d_11">
      <g>
       <use xlink:href="#m29ee419f50" x="49.81524" y="38.415055" style="stroke: #000000; stroke-width: 0.8"/>
      </g>
     </g>
     <g id="text_12">
      <!-- 1.50 -->
      <g transform="translate(20.549615 42.214274) scale(0.1 -0.1)">
       <use xlink:href="#DejaVuSans-31"/>
       <use xlink:href="#DejaVuSans-2e" transform="translate(63.623047 0)"/>
       <use xlink:href="#DejaVuSans-35" transform="translate(95.410156 0)"/>
       <use xlink:href="#DejaVuSans-30" transform="translate(159.033203 0)"/>
      </g>
     </g>
    </g>
    <g id="text_13">
     <!-- activity -->
     <g transform="translate(13.638053 85.988125) rotate(-90) scale(0.14 -0.14)">
      <defs>
       <path id="DejaVuSans-63" d="M 3122 3366 
L 3122 2828 
Q 2878 2963 2633 3030 
Q 2388 3097 2138 3097 
Q 1578 3097 1268 2742 
Q 959 2388 959 1747 
Q 959 1106 1268 751 
Q 1578 397 2138 397 
Q 2388 397 2633 464 
Q 2878 531 3122 666 
L 3122 134 
Q 2881 22 2623 -34 
Q 2366 -91 2075 -91 
Q 1284 -91 818 406 
Q 353 903 353 1747 
Q 353 2603 823 3093 
Q 1294 3584 2113 3584 
Q 2378 3584 2631 3529 
Q 2884 3475 3122 3366 
z
" transform="scale(0.015625)"/>
       <path id="DejaVuSans-74" d="M 1172 4494 
L 1172 3500 
L 2356 3500 
L 2356 3053 
L 1172 3053 
L 1172 1153 
Q 1172 725 1289 603 
Q 1406 481 1766 481 
L 2356 481 
L 2356 0 
L 1766 0 
Q 1100 0 847 248 
Q 594 497 594 1153 
L 594 3053 
L 172 3053 
L 172 3500 
L 594 3500 
L 594 4494 
L 1172 4494 
z
" transform="scale(0.015625)"/>
       <path id="DejaVuSans-69" d="M 603 3500 
L 1178 3500 
L 1178 0 
L 603 0 
L 603 3500 
z
M 603 4863 
L 1178 4863 
L 1178 4134 
L 603 4134 
L 603 4863 
z
" transform="scale(0.015625)"/>
       <path id="DejaVuSans-76" d="M 191 3500 
L 800 3500 
L 1894 563 
L 2988 3500 
L 3597 3500 
L 2284 0 
L 1503 0 
L 191 3500 
z
" transform="scale(0.015625)"/>
      </defs>
      <use xlink:href="#DejaVuSans-61"/>
      <use xlink:href="#DejaVuSans-63" transform="translate(61.279297 0)"/>
      <use xlink:href="#DejaVuSans-74" transform="translate(116.259766 0)"/>
      <use xlink:href="#DejaVuSans-69" transform="translate(155.46875 0)"/>
      <use xlink:href="#DejaVuSans-76" transform="translate(183.251953 0)"/>
      <use xlink:href="#DejaVuSans-69" transform="translate(242.431641 0)"/>
      <use xlink:href="#DejaVuSans-74" transform="translate(270.214844 0)"/>
      <use xlink:href="#DejaVuSans-79" transform="translate(309.423828 0)"/>
     </g>
    </g>
    <g id="text_14">
     <!-- 1e6 -->
     <g transform="translate(49.81524 10.598677) scale(0.1 -0.1)">
      <defs>
       <path id="DejaVuSans-65" d="M 3597 1894 
L 3597 1613 
L 953 1613 
Q 991 1019 1311 708 
Q 1631 397 2203 397 
Q 2534 397 2845 478 
Q 3156 559 3463 722 
L 3463 178 
Q 3153 47 2828 -22 
Q 2503 -91 2169 -91 
Q 1331 -91 842 396 
Q 353 884 353 1716 
Q 353 2575 817 3079 
Q 1281 3584 2069 3584 
Q 2775 3584 3186 3129 
Q 3597 2675 3597 1894 
z
M 3022 2063 
Q 3016 2534 2758 2815 
Q 2500 3097 2075 3097 
Q 1594 3097 1305 2825 
Q 1016 2553 972 2059 
L 3022 2063 
z
" transform="scale(0.015625)"/>
      </defs>
      <use xlink:href="#DejaVuSans-31"/>
      <use xlink:href="#DejaVuSans-65" transform="translate(63.623047 0)"/>
      <use xlink:href="#DejaVuSans-36" transform="translate(125.146484 0)"/>
     </g>
    </g>
   </g>
   <g id="line2d_12">
    <path d="M 49.81524 66.511876 
L 55.912328 62.379286 
L 62.009416 37.113044 
L 68.106504 36.81691 
L 74.203592 32.991237 
L 80.300681 29.758171 
L 86.397769 53.830686 
L 92.494857 68.725897 
L 98.591945 60.370368 
L 104.689033 30.955532 
L 110.786121 30.585166 
L 116.883209 30.479266 
L 122.980297 27.350852 
L 129.077385 48.309367 
L 135.174474 65.890211 
L 141.271562 29.96702 
L 147.36865 28.265926 
L 153.465738 30.22093 
L 159.562826 31.281631 
L 165.659914 25.932498 
L 171.757002 49.931802 
L 177.85409 66.247864 
L 183.951178 33.992575 
L 190.048266 30.849064 
L 196.145355 29.892334 
L 202.242443 28.527668 
L 208.339531 21.363143 
L 214.436619 99.007795 
L 220.533707 59.363241 
L 226.630795 55.405789 
L 232.727883 26.9411 
L 238.824971 27.636657 
L 244.922059 27.630641 
L 251.019148 24.021648 
L 257.116236 50.923265 
L 263.213324 61.37216 
L 269.310412 36.568903 
L 275.4075 60.007039 
L 281.504588 28.251171 
L 287.601676 29.159321 
L 293.698764 27.518044 
L 299.795852 51.330633 
L 305.892941 66.164665 
L 311.990029 34.133207 
L 318.087117 34.901633 
L 324.184205 36.285936 
L 330.281293 32.355611 
L 336.378381 29.52526 
L 342.475469 52.250361 
L 348.572557 67.104029 
L 354.669645 59.079139 
L 360.766734 31.310574 
L 366.863822 31.32306 
L 372.96091 31.298202 
L 379.057998 27.245179 
L 385.155086 48.951803 
L 391.252174 64.229865 
L 397.349262 30.965293 
L 403.44635 26.944505 
L 409.543438 28.163318 
L 415.640526 26.813635 
L 421.737615 22.330316 
L 427.834703 44.754062 
L 433.931791 61.694172 
L 440.028879 28.590095 
L 446.125967 24.848189 
L 452.223055 25.227521 
L 458.320143 26.594003 
L 464.417231 23.088753 
L 470.514319 50.143715 
L 476.611408 62.687905 
L 482.708496 27.448239 
L 488.805584 25.535913 
L 494.902672 27.618269 
L 500.99976 27.357095 
" clip-path="url(#p2e2b4b6e7d)" style="fill: none; stroke: #2e3440; stroke-width: 1.5; stroke-linecap: square"/>
   </g>
   <g id="patch_29">
    <path d="M 49.81524 106.77226 
L 49.81524 13.598677 
" style="fill: none; stroke: #000000; stroke-width: 0.8; stroke-linejoin: miter; stroke-linecap: square"/>
   </g>
   <g id="patch_30">
    <path d="M 500.99976 106.77226 
L 500.99976 13.598677 
" style="fill: none; stroke: #000000; stroke-width: 0.8; stroke-linejoin: miter; stroke-linecap: square"/>
   </g>
   <g id="patch_31">
    <path d="M 49.81524 106.77226 
L 500.99976 106.77226 
" style="fill: none; stroke: #000000; stroke-width: 0.8; stroke-linejoin: miter; stroke-linecap: square"/>
   </g>
   <g id="patch_32">
    <path d="M 49.81524 13.598677 
L 500.99976 13.598677 
" style="fill: none; stroke: #000000; stroke-width: 0.8; stroke-linejoin: miter; stroke-linecap: square"/>
   </g>
  </g>
 </g>
 <defs>
  <clipPath id="p2e2b4b6e7d">
   <rect x="49.81524" y="13.598677" width="451.18452" height="93.173583"/>
  </clipPath>
 </defs>
</svg>
