<?xml version="1.0" encoding="utf-8" standalone="no"?>
<!DOCTYPE svg PUBLIC "-//W3C//DTD SVG 1.1//EN"
  "http://www.w3.org/Graphics/SVG/1.1/DTD/svg11.dtd">
<svg xmlns:xlink="http://www.w3.org/1999/xlink" width="432pt" height="288pt" viewBox="0 0 432 288" xmlns="http://www.w3.org/2000/svg" version="1.1">
 <metadata>
  <rdf:RDF xmlns:dc="http://purl.org/dc/elements/1.1/" xmlns:cc="http://creativecommons.org/ns#" xmlns:rdf="http://www.w3.org/1999/02/22-rdf-syntax-ns#">
   <cc:Work>
    <dc:type rdf:resource="http://purl.org/dc/dcmitype/StillImage"/>
    <dc:date>None</dc:date>
    <dc:format>image/svg+xml</dc:format>
    <dc:creator>
     <cc:Agent>
      <dc:title>Gergő Pintér</dc:title>
     </cc:Agent>
    </dc:creator>
    <dc:rights>
     <cc:Agent>
      <dc:title>CC BY 4.0</dc:title>
     </cc:Agent>
    </dc:rights>
   </cc:Work>
  </rdf:RDF>
 </metadata>
 <defs>
  <style type="text/css">*{stroke-linejoin: round; stroke-linecap: butt}</style>
 </defs>
 <g id="figure_1">
  <g id="patch_1">
   <path d="M 0 288 
L 432 288 
L 432 0 
L 0 0 
L 0 288 
z
" style="fill: none"/>
  </g>
  <g id="axes_1">
   <g id="patch_2">
    <path d="M 46.637115 250.77226 
L 428.99976 250.77226 
L 428.99976 3.00024 
L 46.637115 3.00024 
L 46.637115 250.77226 
z
" style="fill: none"/>
   </g>
   <g id="FillBetweenPolyCollection_1"/>
   <g id="patch_3">
    <path d="M 62.138303 250.77226 
L 72.472429 250.77226 
L 72.472429 3.00024 
L 62.138303 3.00024 
z
" clip-path="url(#p1e3842684e)" style="fill: #d08770; opacity: 0.35; stroke: #d08770; stroke-linejoin: miter"/>
   </g>
   <g id="patch_4">
    <path d="M 242.9855 250.77226 
L 258.486689 250.77226 
L 258.486689 3.00024 
L 242.9855 3.00024 
z
" clip-path="url(#p1e3842684e)" style="fill: #d08770; opacity: 0.35; stroke: #d08770; stroke-linejoin: miter"/>
   </g>
   <g id="patch_5">
    <path d="M 315.324379 250.77226 
L 330.825567 250.77226 
L 330.825567 3.00024 
L 315.324379 3.00024 
z
" clip-path="url(#p1e3842684e)" style="fill: #d08770; opacity: 0.35; stroke: #d08770; stroke-linejoin: miter"/>
   </g>
   <g id="patch_6">
    <path d="M 346.326756 250.77226 
L 351.493818 250.77226 
L 351.493818 3.00024 
L 346.326756 3.00024 
z
" clip-path="url(#p1e3842684e)" style="fill: #d08770; opacity: 0.35; stroke: #d08770; stroke-linejoin: miter"/>
   </g>
   <g id="patch_7">
    <path d="M 366.995007 250.77226 
L 372.16207 250.77226 
L 372.16207 3.00024 
L 366.995007 3.00024 
z
" clip-path="url(#p1e3842684e)" style="fill: #d08770; opacity: 0.35; stroke: #d08770; stroke-linejoin: miter"/>
   </g>
   <g id="patch_8">
    <path d="M 392.830321 250.77226 
L 408.331509 250.77226 
L 408.331509 3.00024 
L 392.830321 3.00024 
z
" clip-path="url(#p1e3842684e)" style="fill: #d08770; opacity: 0.35; stroke: #d08770; stroke-linejoin: miter"/>
   </g>
   <g id="matplotlib.axis_1">
    <g id="xtick_1">
     <g id="line2d_1">
      <defs>
       <path id="m89747906eb" d="M 0 0 
L 0 3.5 
" style="stroke: #000000; stroke-width: 0.8"/>
      </defs>
      <g>
       <use xlink:href="#m89747906eb" x="46.637115" y="250.77226" style="stroke: #000000; stroke-width: 0.8"/>
      </g>
     </g>
     <g id="text_1">
      <!-- 0 -->
      <g transform="translate(43.455865 265.370698) scale(0.1 -0.1)">
       <defs>
        <path id="DejaVuSans-30" d="M 2034 4250 
Q 1547 4250 1301 3770 
Q 1056 3291 1056 2328 
Q 1056 1369 1301 889 
Q 1547 409 2034 409 
Q 2525 409 2770 889 
Q 3016 1369 3016 2328 
Q 3016 3291 2770 3770 
Q 2525 4250 2034 4250 
z
M 2034 4750 
Q 2819 4750 3233 4129 
Q 3647 3509 3647 2328 
Q 3647 1150 3233 529 
Q 2819 -91 2034 -91 
Q 1250 -91 836 529 
Q 422 1150 422 2328 
Q 422 3509 836 4129 
Q 1250 4750 2034 4750 
z
" transform="scale(0.015625)"/>
       </defs>
       <use xlink:href="#DejaVuSans-30"/>
      </g>
     </g>
    </g>
    <g id="xtick_2">
     <g id="line2d_2">
      <g>
       <use xlink:href="#m89747906eb" x="98.307743" y="250.77226" style="stroke: #000000; stroke-width: 0.8"/>
      </g>
     </g>
     <g id="text_2">
      <!-- 10 -->
      <g transform="translate(91.945243 265.370698) scale(0.1 -0.1)">
       <defs>
        <path id="DejaVuSans-31" d="M 794 531 
L 1825 531 
L 1825 4091 
L 703 3866 
L 703 4441 
L 1819 4666 
L 2450 4666 
L 2450 531 
L 3481 531 
L 3481 0 
L 794 0 
L 794 531 
z
" transform="scale(0.015625)"/>
       </defs>
       <use xlink:href="#DejaVuSans-31"/>
       <use xlink:href="#DejaVuSans-30" transform="translate(63.623047 0)"/>
      </g>
     </g>
    </g>
    <g id="xtick_3">
     <g id="line2d_3">
      <g>
       <use xlink:href="#m89747906eb" x="149.97837" y="250.77226" style="stroke: #000000; stroke-width: 0.8"/>
      </g>
     </g>
     <g id="text_3">
      <!-- 20 -->
      <g transform="translate(143.61587 265.370698) scale(0.1 -0.1)">
       <defs>
        <path id="DejaVuSans-32" d="M 1228 531 
L 3431 531 
L 3431 0 
L 469 0 
L 469 531 
Q 828 903 1448 1529 
Q 2069 2156 2228 2338 
Q 2531 2678 2651 2914 
Q 2772 3150 2772 3378 
Q 2772 3750 2511 3984 
Q 2250 4219 1831 4219 
Q 1534 4219 1204 4116 
Q 875 4013 500 3803 
L 500 4441 
Q 881 4594 1212 4672 
Q 1544 4750 1819 4750 
Q 2544 4750 2975 4387 
Q 3406 4025 3406 3419 
Q 3406 3131 3298 2873 
Q 3191 2616 2906 2266 
Q 2828 2175 2409 1742 
Q 1991 1309 1228 531 
z
" transform="scale(0.015625)"/>
       </defs>
       <use xlink:href="#DejaVuSans-32"/>
       <use xlink:href="#DejaVuSans-30" transform="translate(63.623047 0)"/>
      </g>
     </g>
    </g>
    <g id="xtick_4">
     <g id="line2d_4">
      <g>
       <use xlink:href="#m89747906eb" x="201.648998" y="250.77226" style="stroke: #000000; stroke-width: 0.8"/>
      </g>
     </g>
     <g id="text_4">
      <!-- 30 -->
      <g transform="translate(195.286498 265.370698) scale(0.1 -0.1)">
       <defs>
        <path id="DejaVuSans-33" d="M 2597 2516 
Q 3050 2419 3304 2112 
Q 3559 1806 3559 1356 
Q 3559 666 3084 287 
Q 2609 -91 1734 -91 
Q 1441 -91 1130 -33 
Q 819 25 488 141 
L 488 750 
Q 750 597 1062 519 
Q 1375 441 1716 441 
Q 2309 441 2620 675 
Q 2931 909 2931 1356 
Q 2931 1769 2642 2001 
Q 2353 2234 1838 2234 
L 1294 2234 
L 1294 2753 
L 1863 2753 
Q 2328 2753 2575 2939 
Q 2822 3125 2822 3475 
Q 2822 3834 2567 4026 
Q 2313 4219 1838 4219 
Q 1578 4219 1281 4162 
Q 984 4106 628 3988 
L 628 4550 
Q 988 4650 1302 4700 
Q 1616 4750 1894 4750 
Q 2613 4750 3031 4423 
Q 3450 4097 3450 3541 
Q 3450 3153 3228 2886 
Q 3006 2619 2597 2516 
z
" transform="scale(0.015625)"/>
       </defs>
       <use xlink:href="#DejaVuSans-33"/>
       <use xlink:href="#DejaVuSans-30" transform="translate(63.623047 0)"/>
      </g>
     </g>
    </g>
    <g id="xtick_5">
     <g id="line2d_5">
      <g>
       <use xlink:href="#m89747906eb" x="253.319626" y="250.77226" style="stroke: #000000; stroke-width: 0.8"/>
      </g>
     </g>
     <g id="text_5">
      <!-- 40 -->
      <g transform="translate(246.957126 265.370698) scale(0.1 -0.1)">
       <defs>
        <path id="DejaVuSans-34" d="M 2419 4116 
L 825 1625 
L 2419 1625 
L 2419 4116 
z
M 2253 4666 
L 3047 4666 
L 3047 1625 
L 3713 1625 
L 3713 1100 
L 3047 1100 
L 3047 0 
L 2419 0 
L 2419 1100 
L 313 1100 
L 313 1709 
L 2253 4666 
z
" transform="scale(0.015625)"/>
       </defs>
       <use xlink:href="#DejaVuSans-34"/>
       <use xlink:href="#DejaVuSans-30" transform="translate(63.623047 0)"/>
      </g>
     </g>
    </g>
    <g id="xtick_6">
     <g id="line2d_6">
      <g>
       <use xlink:href="#m89747906eb" x="304.990254" y="250.77226" style="stroke: #000000; stroke-width: 0.8"/>
      </g>
     </g>
     <g id="text_6">
      <!-- 50 -->
      <g transform="translate(298.627754 265.370698) scale(0.1 -0.1)">
       <defs>
        <path id="DejaVuSans-35" d="M 691 4666 
L 3169 4666 
L 3169 4134 
L 1269 4134 
L 1269 2991 
Q 1406 3038 1543 3061 
Q 1681 3084 1819 3084 
Q 2600 3084 3056 2656 
Q 3513 2228 3513 1497 
Q 3513 744 3044 326 
Q 2575 -91 1722 -91 
Q 1428 -91 1123 -41 
Q 819 9 494 109 
L 494 744 
Q 775 591 1075 516 
Q 1375 441 1709 441 
Q 2250 441 2565 725 
Q 2881 1009 2881 1497 
Q 2881 1984 2565 2268 
Q 2250 2553 1709 2553 
Q 1456 2553 1204 2497 
Q 953 2441 691 2322 
L 691 4666 
z
" transform="scale(0.015625)"/>
       </defs>
       <use xlink:href="#DejaVuSans-35"/>
       <use xlink:href="#DejaVuSans-30" transform="translate(63.623047 0)"/>
      </g>
     </g>
    </g>
    <g id="xtick_7">
     <g id="line2d_7">
      <g>
       <use xlink:href="#m89747906eb" x="356.660881" y="250.77226" style="stroke: #000000; stroke-width: 0.8"/>
      </g>
     </g>
     <g id="text_7">
      <!-- 60 -->
      <g transform="translate(350.298381 265.370698) scale(0.1 -0.1)">
       <defs>
        <path id="DejaVuSans-36" d="M 2113 2584 
Q 1688 2584 1439 2293 
Q 1191 2003 1191 1497 
Q 1191 994 1439 701 
Q 1688 409 2113 409 
Q 2538 409 2786 701 
Q 3034 994 3034 1497 
Q 3034 2003 2786 2293 
Q 2538 2584 2113 2584 
z
M 3366 4563 
L 3366 3988 
Q 3128 4100 2886 4159 
Q 2644 4219 2406 4219 
Q 1781 4219 1451 3797 
Q 1122 3375 1075 2522 
Q 1259 2794 1537 2939 
Q 1816 3084 2150 3084 
Q 2853 3084 3261 2657 
Q 3669 2231 3669 1497 
Q 3669 778 3244 343 
Q 2819 -91 2113 -91 
Q 1303 -91 875 529 
Q 447 1150 447 2328 
Q 447 3434 972 4092 
Q 1497 4750 2381 4750 
Q 2619 4750 2861 4703 
Q 3103 4656 3366 4563 
z
" transform="scale(0.015625)"/>
       </defs>
       <use xlink:href="#DejaVuSans-36"/>
       <use xlink:href="#DejaVuSans-30" transform="translate(63.623047 0)"/>
      </g>
     </g>
    </g>
    <g id="xtick_8">
     <g id="line2d_8">
      <g>
       <use xlink:href="#m89747906eb" x="408.331509" y="250.77226" style="stroke: #000000; stroke-width: 0.8"/>
      </g>
     </g>
     <g id="text_8">
      <!-- 70 -->
      <g transform="translate(401.969009 265.370698) scale(0.1 -0.1)">
       <defs>
        <path id="DejaVuSans-37" d="M 525 4666 
L 3525 4666 
L 3525 4397 
L 1831 0 
L 1172 0 
L 2766 4134 
L 525 4134 
L 525 4666 
z
" transform="scale(0.015625)"/>
       </defs>
       <use xlink:href="#DejaVuSans-37"/>
       <use xlink:href="#DejaVuSans-30" transform="translate(63.623047 0)"/>
      </g>
     </g>
    </g>
    <g id="text_9">
     <!-- day -->
     <g transform="translate(224.941719 282.088197) scale(0.14 -0.14)">
      <defs>
       <path id="DejaVuSans-64" d="M 2906 2969 
L 2906 4863 
L 3481 4863 
L 3481 0 
L 2906 0 
L 2906 525 
Q 2725 213 2448 61 
Q 2172 -91 1784 -91 
Q 1150 -91 751 415 
Q 353 922 353 1747 
Q 353 2572 751 3078 
Q 1150 3584 1784 3584 
Q 2172 3584 2448 3432 
Q 2725 3281 2906 2969 
z
M 947 1747 
Q 947 1113 1208 752 
Q 1469 391 1925 391 
Q 2381 391 2643 752 
Q 2906 1113 2906 1747 
Q 2906 2381 2643 2742 
Q 2381 3103 1925 3103 
Q 1469 3103 1208 2742 
Q 947 2381 947 1747 
z
" transform="scale(0.015625)"/>
       <path id="DejaVuSans-61" d="M 2194 1759 
Q 1497 1759 1228 1600 
Q 959 1441 959 1056 
Q 959 750 1161 570 
Q 1363 391 1709 391 
Q 2188 391 2477 730 
Q 2766 1069 2766 1631 
L 2766 1759 
L 2194 1759 
z
M 3341 1997 
L 3341 0 
L 2766 0 
L 2766 531 
Q 2569 213 2275 61 
Q 1981 -91 1556 -91 
Q 1019 -91 701 211 
Q 384 513 384 1019 
Q 384 1609 779 1909 
Q 1175 2209 1959 2209 
L 2766 2209 
L 2766 2266 
Q 2766 2663 2505 2880 
Q 2244 3097 1772 3097 
Q 1472 3097 1187 3025 
Q 903 2953 641 2809 
L 641 3341 
Q 956 3463 1253 3523 
Q 1550 3584 1831 3584 
Q 2591 3584 2966 3190 
Q 3341 2797 3341 1997 
z
" transform="scale(0.015625)"/>
       <path id="DejaVuSans-79" d="M 2059 -325 
Q 1816 -950 1584 -1140 
Q 1353 -1331 966 -1331 
L 506 -1331 
L 506 -850 
L 844 -850 
Q 1081 -850 1212 -737 
Q 1344 -625 1503 -206 
L 1606 56 
L 191 3500 
L 800 3500 
L 1894 763 
L 2988 3500 
L 3597 3500 
L 2059 -325 
z
" transform="scale(0.015625)"/>
      </defs>
      <use xlink:href="#DejaVuSans-64"/>
      <use xlink:href="#DejaVuSans-61" transform="translate(63.476562 0)"/>
      <use xlink:href="#DejaVuSans-79" transform="translate(124.755859 0)"/>
     </g>
    </g>
   </g>
   <g id="matplotlib.axis_2">
    <g id="ytick_1">
     <g id="line2d_9">
      <defs>
       <path id="mef40238ce4" d="M 0 0 
L -3.5 0 
" style="stroke: #000000; stroke-width: 0.8"/>
      </defs>
      <g>
       <use xlink:href="#mef40238ce4" x="46.637115" y="241.673135" style="stroke: #000000; stroke-width: 0.8"/>
      </g>
     </g>
     <g id="text_10">
      <!-- 0 -->
      <g transform="translate(33.274615 245.472353) scale(0.1 -0.1)">
       <use xlink:href="#DejaVuSans-30"/>
      </g>
     </g>
    </g>
    <g id="ytick_2">
     <g id="line2d_10">
      <g>
       <use xlink:href="#mef40238ce4" x="46.637115" y="187.592153" style="stroke: #000000; stroke-width: 0.8"/>
      </g>
     </g>
     <g id="text_11">
      <!-- 200 -->
      <g transform="translate(20.549615 191.391371) scale(0.1 -0.1)">
       <use xlink:href="#DejaVuSans-32"/>
       <use xlink:href="#DejaVuSans-30" transform="translate(63.623047 0)"/>
       <use xlink:href="#DejaVuSans-30" transform="translate(127.246094 0)"/>
      </g>
     </g>
    </g>
    <g id="ytick_3">
     <g id="line2d_11">
      <g>
       <use xlink:href="#mef40238ce4" x="46.637115" y="133.51117" style="stroke: #000000; stroke-width: 0.8"/>
      </g>
     </g>
     <g id="text_12">
      <!-- 400 -->
      <g transform="translate(20.549615 137.310389) scale(0.1 -0.1)">
       <use xlink:href="#DejaVuSans-34"/>
       <use xlink:href="#DejaVuSans-30" transform="translate(63.623047 0)"/>
       <use xlink:href="#DejaVuSans-30" transform="translate(127.246094 0)"/>
      </g>
     </g>
    </g>
    <g id="ytick_4">
     <g id="line2d_12">
      <g>
       <use xlink:href="#mef40238ce4" x="46.637115" y="79.430188" style="stroke: #000000; stroke-width: 0.8"/>
      </g>
     </g>
     <g id="text_13">
      <!-- 600 -->
      <g transform="translate(20.549615 83.229407) scale(0.1 -0.1)">
       <use xlink:href="#DejaVuSans-36"/>
       <use xlink:href="#DejaVuSans-30" transform="translate(63.623047 0)"/>
       <use xlink:href="#DejaVuSans-30" transform="translate(127.246094 0)"/>
      </g>
     </g>
    </g>
    <g id="ytick_5">
     <g id="line2d_13">
      <g>
       <use xlink:href="#mef40238ce4" x="46.637115" y="25.349206" style="stroke: #000000; stroke-width: 0.8"/>
      </g>
     </g>
     <g id="text_14">
      <!-- 800 -->
      <g transform="translate(20.549615 29.148425) scale(0.1 -0.1)">
       <defs>
        <path id="DejaVuSans-38" d="M 2034 2216 
Q 1584 2216 1326 1975 
Q 1069 1734 1069 1313 
Q 1069 891 1326 650 
Q 1584 409 2034 409 
Q 2484 409 2743 651 
Q 3003 894 3003 1313 
Q 3003 1734 2745 1975 
Q 2488 2216 2034 2216 
z
M 1403 2484 
Q 997 2584 770 2862 
Q 544 3141 544 3541 
Q 544 4100 942 4425 
Q 1341 4750 2034 4750 
Q 2731 4750 3128 4425 
Q 3525 4100 3525 3541 
Q 3525 3141 3298 2862 
Q 3072 2584 2669 2484 
Q 3125 2378 3379 2068 
Q 3634 1759 3634 1313 
Q 3634 634 3220 271 
Q 2806 -91 2034 -91 
Q 1263 -91 848 271 
Q 434 634 434 1313 
Q 434 1759 690 2068 
Q 947 2378 1403 2484 
z
M 1172 3481 
Q 1172 3119 1398 2916 
Q 1625 2713 2034 2713 
Q 2441 2713 2670 2916 
Q 2900 3119 2900 3481 
Q 2900 3844 2670 4047 
Q 2441 4250 2034 4250 
Q 1625 4250 1398 4047 
Q 1172 3844 1172 3481 
z
" transform="scale(0.015625)"/>
       </defs>
       <use xlink:href="#DejaVuSans-38"/>
       <use xlink:href="#DejaVuSans-30" transform="translate(63.623047 0)"/>
       <use xlink:href="#DejaVuSans-30" transform="translate(127.246094 0)"/>
      </g>
     </g>
    </g>
    <g id="text_15">
     <!-- activity -->
     <g transform="translate(13.638053 152.688906) rotate(-90) scale(0.14 -0.14)">
      <defs>
       <path id="DejaVuSans-63" d="M 3122 3366 
L 3122 2828 
Q 2878 2963 2633 3030 
Q 2388 3097 2138 3097 
Q 1578 3097 1268 2742 
Q 959 2388 959 1747 
Q 959 1106 1268 751 
Q 1578 397 2138 397 
Q 2388 397 2633 464 
Q 2878 531 3122 666 
L 3122 134 
Q 2881 22 2623 -34 
Q 2366 -91 2075 -91 
Q 1284 -91 818 406 
Q 353 903 353 1747 
Q 353 2603 823 3093 
Q 1294 3584 2113 3584 
Q 2378 3584 2631 3529 
Q 2884 3475 3122 3366 
z
" transform="scale(0.015625)"/>
       <path id="DejaVuSans-74" d="M 1172 4494 
L 1172 3500 
L 2356 3500 
L 2356 3053 
L 1172 3053 
L 1172 1153 
Q 1172 725 1289 603 
Q 1406 481 1766 481 
L 2356 481 
L 2356 0 
L 1766 0 
Q 1100 0 847 248 
Q 594 497 594 1153 
L 594 3053 
L 172 3053 
L 172 3500 
L 594 3500 
L 594 4494 
L 1172 4494 
z
" transform="scale(0.015625)"/>
       <path id="DejaVuSans-69" d="M 603 3500 
L 1178 3500 
L 1178 0 
L 603 0 
L 603 3500 
z
M 603 4863 
L 1178 4863 
L 1178 4134 
L 603 4134 
L 603 4863 
z
" transform="scale(0.015625)"/>
       <path id="DejaVuSans-76" d="M 191 3500 
L 800 3500 
L 1894 563 
L 2988 3500 
L 3597 3500 
L 2284 0 
L 1503 0 
L 191 3500 
z
" transform="scale(0.015625)"/>
      </defs>
      <use xlink:href="#DejaVuSans-61"/>
      <use xlink:href="#DejaVuSans-63" transform="translate(61.279297 0)"/>
      <use xlink:href="#DejaVuSans-74" transform="translate(116.259766 0)"/>
      <use xlink:href="#DejaVuSans-69" transform="translate(155.46875 0)"/>
      <use xlink:href="#DejaVuSans-76" transform="translate(183.251953 0)"/>
      <use xlink:href="#DejaVuSans-69" transform="translate(242.431641 0)"/>
      <use xlink:href="#DejaVuSans-74" transform="translate(270.214844 0)"/>
      <use xlink:href="#DejaVuSans-79" transform="translate(309.423828 0)"/>
     </g>
    </g>
   </g>
   <g id="line2d_14">
    <path d="M 46.637115 192.729846 
L 51.804178 196.24511 
L 56.971241 201.382803 
L 62.138303 142.975342 
L 67.305366 177.857576 
L 72.472429 148.653845 
L 77.639492 208.142926 
L 82.806554 201.923613 
L 87.973617 210.57657 
L 93.14068 208.954141 
L 98.307743 194.08187 
L 103.474805 211.928595 
L 108.641868 210.306165 
L 113.808931 190.566607 
L 118.975994 201.382803 
L 124.143057 206.520496 
L 129.310119 213.010214 
L 134.477182 211.11738 
L 139.644245 203.005232 
L 144.811308 205.709282 
L 149.97837 191.918631 
L 155.145433 195.16349 
L 160.312496 214.091834 
L 165.479559 211.11738 
L 170.646621 214.091834 
L 175.813684 190.296202 
L 180.980747 220.851957 
L 186.14781 239.509895 
L 191.314873 182.184054 
L 196.481935 203.816447 
L 201.648998 195.974705 
L 206.816061 180.83203 
L 211.983124 201.112398 
L 217.150186 208.142926 
L 222.317249 193.541061 
L 227.484312 195.974705 
L 232.651375 189.484987 
L 237.818438 180.561625 
L 242.9855 176.505551 
L 248.152563 179.480005 
L 253.319626 166.770974 
L 258.486689 115.934851 
L 263.653751 161.092471 
L 268.820814 208.954141 
L 273.987877 211.928595 
L 279.15494 207.061306 
L 284.322002 211.387785 
L 289.489065 207.061306 
L 294.656128 177.316766 
L 299.823191 182.995269 
L 304.990254 197.056324 
L 310.157316 207.061306 
L 315.324379 171.638263 
L 320.491442 158.658827 
L 325.658505 149.735465 
L 330.825567 141.623318 
L 335.99263 214.091834 
L 341.159693 213.280619 
L 346.326756 168.934214 
L 351.493818 175.694336 
L 356.660881 220.581552 
L 361.827944 215.443858 
L 366.995007 172.179073 
L 372.16207 175.153527 
L 377.329132 199.489969 
L 382.496195 210.306165 
L 387.663258 206.250091 
L 392.830321 157.847612 
L 397.997383 141.082508 
L 403.164446 15.885034 
L 408.331509 14.262605 
L 413.498572 212.739809 
L 418.665634 212.198999 
L 423.832697 210.306165 
L 428.99976 208.142926 
" clip-path="url(#p1e3842684e)" style="fill: none; stroke: #bf616a; stroke-width: 1.5; stroke-linecap: square"/>
   </g>
   <g id="patch_9">
    <path d="M 46.637115 250.77226 
L 46.637115 3.00024 
" style="fill: none; stroke: #000000; stroke-width: 0.8; stroke-linejoin: miter; stroke-linecap: square"/>
   </g>
   <g id="patch_10">
    <path d="M 428.99976 250.77226 
L 428.99976 3.00024 
" style="fill: none; stroke: #000000; stroke-width: 0.8; stroke-linejoin: miter; stroke-linecap: square"/>
   </g>
   <g id="patch_11">
    <path d="M 46.637115 250.77226 
L 428.99976 250.77226 
" style="fill: none; stroke: #000000; stroke-width: 0.8; stroke-linejoin: miter; stroke-linecap: square"/>
   </g>
   <g id="patch_12">
    <path d="M 46.637115 3.00024 
L 428.99976 3.00024 
" style="fill: none; stroke: #000000; stroke-width: 0.8; stroke-linejoin: miter; stroke-linecap: square"/>
   </g>
   <g id="text_16">
    <!-- Automotive World Nagoya -->
    <g transform="translate(70.924663 142.811773) rotate(-90) scale(0.1 -0.1)">
     <defs>
      <path id="DejaVuSans-41" d="M 2188 4044 
L 1331 1722 
L 3047 1722 
L 2188 4044 
z
M 1831 4666 
L 2547 4666 
L 4325 0 
L 3669 0 
L 3244 1197 
L 1141 1197 
L 716 0 
L 50 0 
L 1831 4666 
z
" transform="scale(0.015625)"/>
      <path id="DejaVuSans-75" d="M 544 1381 
L 544 3500 
L 1119 3500 
L 1119 1403 
Q 1119 906 1312 657 
Q 1506 409 1894 409 
Q 2359 409 2629 706 
Q 2900 1003 2900 1516 
L 2900 3500 
L 3475 3500 
L 3475 0 
L 2900 0 
L 2900 538 
Q 2691 219 2414 64 
Q 2138 -91 1772 -91 
Q 1169 -91 856 284 
Q 544 659 544 1381 
z
M 1991 3584 
L 1991 3584 
z
" transform="scale(0.015625)"/>
      <path id="DejaVuSans-6f" d="M 1959 3097 
Q 1497 3097 1228 2736 
Q 959 2375 959 1747 
Q 959 1119 1226 758 
Q 1494 397 1959 397 
Q 2419 397 2687 759 
Q 2956 1122 2956 1747 
Q 2956 2369 2687 2733 
Q 2419 3097 1959 3097 
z
M 1959 3584 
Q 2709 3584 3137 3096 
Q 3566 2609 3566 1747 
Q 3566 888 3137 398 
Q 2709 -91 1959 -91 
Q 1206 -91 779 398 
Q 353 888 353 1747 
Q 353 2609 779 3096 
Q 1206 3584 1959 3584 
z
" transform="scale(0.015625)"/>
      <path id="DejaVuSans-6d" d="M 3328 2828 
Q 3544 3216 3844 3400 
Q 4144 3584 4550 3584 
Q 5097 3584 5394 3201 
Q 5691 2819 5691 2113 
L 5691 0 
L 5113 0 
L 5113 2094 
Q 5113 2597 4934 2840 
Q 4756 3084 4391 3084 
Q 3944 3084 3684 2787 
Q 3425 2491 3425 1978 
L 3425 0 
L 2847 0 
L 2847 2094 
Q 2847 2600 2669 2842 
Q 2491 3084 2119 3084 
Q 1678 3084 1418 2786 
Q 1159 2488 1159 1978 
L 1159 0 
L 581 0 
L 581 3500 
L 1159 3500 
L 1159 2956 
Q 1356 3278 1631 3431 
Q 1906 3584 2284 3584 
Q 2666 3584 2933 3390 
Q 3200 3197 3328 2828 
z
" transform="scale(0.015625)"/>
      <path id="DejaVuSans-65" d="M 3597 1894 
L 3597 1613 
L 953 1613 
Q 991 1019 1311 708 
Q 1631 397 2203 397 
Q 2534 397 2845 478 
Q 3156 559 3463 722 
L 3463 178 
Q 3153 47 2828 -22 
Q 2503 -91 2169 -91 
Q 1331 -91 842 396 
Q 353 884 353 1716 
Q 353 2575 817 3079 
Q 1281 3584 2069 3584 
Q 2775 3584 3186 3129 
Q 3597 2675 3597 1894 
z
M 3022 2063 
Q 3016 2534 2758 2815 
Q 2500 3097 2075 3097 
Q 1594 3097 1305 2825 
Q 1016 2553 972 2059 
L 3022 2063 
z
" transform="scale(0.015625)"/>
      <path id="DejaVuSans-20" transform="scale(0.015625)"/>
      <path id="DejaVuSans-57" d="M 213 4666 
L 850 4666 
L 1831 722 
L 2809 4666 
L 3519 4666 
L 4500 722 
L 5478 4666 
L 6119 4666 
L 4947 0 
L 4153 0 
L 3169 4050 
L 2175 0 
L 1381 0 
L 213 4666 
z
" transform="scale(0.015625)"/>
      <path id="DejaVuSans-72" d="M 2631 2963 
Q 2534 3019 2420 3045 
Q 2306 3072 2169 3072 
Q 1681 3072 1420 2755 
Q 1159 2438 1159 1844 
L 1159 0 
L 581 0 
L 581 3500 
L 1159 3500 
L 1159 2956 
Q 1341 3275 1631 3429 
Q 1922 3584 2338 3584 
Q 2397 3584 2469 3576 
Q 2541 3569 2628 3553 
L 2631 2963 
z
" transform="scale(0.015625)"/>
      <path id="DejaVuSans-6c" d="M 603 4863 
L 1178 4863 
L 1178 0 
L 603 0 
L 603 4863 
z
" transform="scale(0.015625)"/>
      <path id="DejaVuSans-4e" d="M 628 4666 
L 1478 4666 
L 3547 763 
L 3547 4666 
L 4159 4666 
L 4159 0 
L 3309 0 
L 1241 3903 
L 1241 0 
L 628 0 
L 628 4666 
z
" transform="scale(0.015625)"/>
      <path id="DejaVuSans-67" d="M 2906 1791 
Q 2906 2416 2648 2759 
Q 2391 3103 1925 3103 
Q 1463 3103 1205 2759 
Q 947 2416 947 1791 
Q 947 1169 1205 825 
Q 1463 481 1925 481 
Q 2391 481 2648 825 
Q 2906 1169 2906 1791 
z
M 3481 434 
Q 3481 -459 3084 -895 
Q 2688 -1331 1869 -1331 
Q 1566 -1331 1297 -1286 
Q 1028 -1241 775 -1147 
L 775 -588 
Q 1028 -725 1275 -790 
Q 1522 -856 1778 -856 
Q 2344 -856 2625 -561 
Q 2906 -266 2906 331 
L 2906 616 
Q 2728 306 2450 153 
Q 2172 0 1784 0 
Q 1141 0 747 490 
Q 353 981 353 1791 
Q 353 2603 747 3093 
Q 1141 3584 1784 3584 
Q 2172 3584 2450 3431 
Q 2728 3278 2906 2969 
L 2906 3500 
L 3481 3500 
L 3481 434 
z
" transform="scale(0.015625)"/>
     </defs>
     <use xlink:href="#DejaVuSans-41"/>
     <use xlink:href="#DejaVuSans-75" transform="translate(68.408203 0)"/>
     <use xlink:href="#DejaVuSans-74" transform="translate(131.787109 0)"/>
     <use xlink:href="#DejaVuSans-6f" transform="translate(170.996094 0)"/>
     <use xlink:href="#DejaVuSans-6d" transform="translate(232.177734 0)"/>
     <use xlink:href="#DejaVuSans-6f" transform="translate(329.589844 0)"/>
     <use xlink:href="#DejaVuSans-74" transform="translate(390.771484 0)"/>
     <use xlink:href="#DejaVuSans-69" transform="translate(429.980469 0)"/>
     <use xlink:href="#DejaVuSans-76" transform="translate(457.763672 0)"/>
     <use xlink:href="#DejaVuSans-65" transform="translate(516.943359 0)"/>
     <use xlink:href="#DejaVuSans-20" transform="translate(578.466797 0)"/>
     <use xlink:href="#DejaVuSans-57" transform="translate(610.253906 0)"/>
     <use xlink:href="#DejaVuSans-6f" transform="translate(703.255859 0)"/>
     <use xlink:href="#DejaVuSans-72" transform="translate(764.4375 0)"/>
     <use xlink:href="#DejaVuSans-6c" transform="translate(805.550781 0)"/>
     <use xlink:href="#DejaVuSans-64" transform="translate(833.333984 0)"/>
     <use xlink:href="#DejaVuSans-20" transform="translate(896.810547 0)"/>
     <use xlink:href="#DejaVuSans-4e" transform="translate(928.597656 0)"/>
     <use xlink:href="#DejaVuSans-61" transform="translate(1003.402344 0)"/>
     <use xlink:href="#DejaVuSans-67" transform="translate(1064.681641 0)"/>
     <use xlink:href="#DejaVuSans-6f" transform="translate(1128.158203 0)"/>
     <use xlink:href="#DejaVuSans-79" transform="translate(1189.339844 0)"/>
     <use xlink:href="#DejaVuSans-61" transform="translate(1248.519531 0)"/>
    </g>
    <!-- (Sep. 18-20) -->
    <g transform="translate(82.122476 108.35396) rotate(-90) scale(0.1 -0.1)">
     <defs>
      <path id="DejaVuSans-28" d="M 1984 4856 
Q 1566 4138 1362 3434 
Q 1159 2731 1159 2009 
Q 1159 1288 1364 580 
Q 1569 -128 1984 -844 
L 1484 -844 
Q 1016 -109 783 600 
Q 550 1309 550 2009 
Q 550 2706 781 3412 
Q 1013 4119 1484 4856 
L 1984 4856 
z
" transform="scale(0.015625)"/>
      <path id="DejaVuSans-53" d="M 3425 4513 
L 3425 3897 
Q 3066 4069 2747 4153 
Q 2428 4238 2131 4238 
Q 1616 4238 1336 4038 
Q 1056 3838 1056 3469 
Q 1056 3159 1242 3001 
Q 1428 2844 1947 2747 
L 2328 2669 
Q 3034 2534 3370 2195 
Q 3706 1856 3706 1288 
Q 3706 609 3251 259 
Q 2797 -91 1919 -91 
Q 1588 -91 1214 -16 
Q 841 59 441 206 
L 441 856 
Q 825 641 1194 531 
Q 1563 422 1919 422 
Q 2459 422 2753 634 
Q 3047 847 3047 1241 
Q 3047 1584 2836 1778 
Q 2625 1972 2144 2069 
L 1759 2144 
Q 1053 2284 737 2584 
Q 422 2884 422 3419 
Q 422 4038 858 4394 
Q 1294 4750 2059 4750 
Q 2388 4750 2728 4690 
Q 3069 4631 3425 4513 
z
" transform="scale(0.015625)"/>
      <path id="DejaVuSans-70" d="M 1159 525 
L 1159 -1331 
L 581 -1331 
L 581 3500 
L 1159 3500 
L 1159 2969 
Q 1341 3281 1617 3432 
Q 1894 3584 2278 3584 
Q 2916 3584 3314 3078 
Q 3713 2572 3713 1747 
Q 3713 922 3314 415 
Q 2916 -91 2278 -91 
Q 1894 -91 1617 61 
Q 1341 213 1159 525 
z
M 3116 1747 
Q 3116 2381 2855 2742 
Q 2594 3103 2138 3103 
Q 1681 3103 1420 2742 
Q 1159 2381 1159 1747 
Q 1159 1113 1420 752 
Q 1681 391 2138 391 
Q 2594 391 2855 752 
Q 3116 1113 3116 1747 
z
" transform="scale(0.015625)"/>
      <path id="DejaVuSans-2e" d="M 684 794 
L 1344 794 
L 1344 0 
L 684 0 
L 684 794 
z
" transform="scale(0.015625)"/>
      <path id="DejaVuSans-2d" d="M 313 2009 
L 1997 2009 
L 1997 1497 
L 313 1497 
L 313 2009 
z
" transform="scale(0.015625)"/>
      <path id="DejaVuSans-29" d="M 513 4856 
L 1013 4856 
Q 1481 4119 1714 3412 
Q 1947 2706 1947 2009 
Q 1947 1309 1714 600 
Q 1481 -109 1013 -844 
L 513 -844 
Q 928 -128 1133 580 
Q 1338 1288 1338 2009 
Q 1338 2731 1133 3434 
Q 928 4138 513 4856 
z
" transform="scale(0.015625)"/>
     </defs>
     <use xlink:href="#DejaVuSans-28"/>
     <use xlink:href="#DejaVuSans-53" transform="translate(39.013672 0)"/>
     <use xlink:href="#DejaVuSans-65" transform="translate(102.490234 0)"/>
     <use xlink:href="#DejaVuSans-70" transform="translate(164.013672 0)"/>
     <use xlink:href="#DejaVuSans-2e" transform="translate(227.490234 0)"/>
     <use xlink:href="#DejaVuSans-20" transform="translate(259.277344 0)"/>
     <use xlink:href="#DejaVuSans-31" transform="translate(291.064453 0)"/>
     <use xlink:href="#DejaVuSans-38" transform="translate(354.6875 0)"/>
     <use xlink:href="#DejaVuSans-2d" transform="translate(418.310547 0)"/>
     <use xlink:href="#DejaVuSans-32" transform="translate(454.394531 0)"/>
     <use xlink:href="#DejaVuSans-30" transform="translate(518.017578 0)"/>
     <use xlink:href="#DejaVuSans-29" transform="translate(581.640625 0)"/>
    </g>
   </g>
   <g id="text_17">
    <!-- MECT2019 (Oct. 23-26) -->
    <g transform="translate(253.495469 129.002398) rotate(-90) scale(0.1 -0.1)">
     <defs>
      <path id="DejaVuSans-4d" d="M 628 4666 
L 1569 4666 
L 2759 1491 
L 3956 4666 
L 4897 4666 
L 4897 0 
L 4281 0 
L 4281 4097 
L 3078 897 
L 2444 897 
L 1241 4097 
L 1241 0 
L 628 0 
L 628 4666 
z
" transform="scale(0.015625)"/>
      <path id="DejaVuSans-45" d="M 628 4666 
L 3578 4666 
L 3578 4134 
L 1259 4134 
L 1259 2753 
L 3481 2753 
L 3481 2222 
L 1259 2222 
L 1259 531 
L 3634 531 
L 3634 0 
L 628 0 
L 628 4666 
z
" transform="scale(0.015625)"/>
      <path id="DejaVuSans-43" d="M 4122 4306 
L 4122 3641 
Q 3803 3938 3442 4084 
Q 3081 4231 2675 4231 
Q 1875 4231 1450 3742 
Q 1025 3253 1025 2328 
Q 1025 1406 1450 917 
Q 1875 428 2675 428 
Q 3081 428 3442 575 
Q 3803 722 4122 1019 
L 4122 359 
Q 3791 134 3420 21 
Q 3050 -91 2638 -91 
Q 1578 -91 968 557 
Q 359 1206 359 2328 
Q 359 3453 968 4101 
Q 1578 4750 2638 4750 
Q 3056 4750 3426 4639 
Q 3797 4528 4122 4306 
z
" transform="scale(0.015625)"/>
      <path id="DejaVuSans-54" d="M -19 4666 
L 3928 4666 
L 3928 4134 
L 2272 4134 
L 2272 0 
L 1638 0 
L 1638 4134 
L -19 4134 
L -19 4666 
z
" transform="scale(0.015625)"/>
      <path id="DejaVuSans-39" d="M 703 97 
L 703 672 
Q 941 559 1184 500 
Q 1428 441 1663 441 
Q 2288 441 2617 861 
Q 2947 1281 2994 2138 
Q 2813 1869 2534 1725 
Q 2256 1581 1919 1581 
Q 1219 1581 811 2004 
Q 403 2428 403 3163 
Q 403 3881 828 4315 
Q 1253 4750 1959 4750 
Q 2769 4750 3195 4129 
Q 3622 3509 3622 2328 
Q 3622 1225 3098 567 
Q 2575 -91 1691 -91 
Q 1453 -91 1209 -44 
Q 966 3 703 97 
z
M 1959 2075 
Q 2384 2075 2632 2365 
Q 2881 2656 2881 3163 
Q 2881 3666 2632 3958 
Q 2384 4250 1959 4250 
Q 1534 4250 1286 3958 
Q 1038 3666 1038 3163 
Q 1038 2656 1286 2365 
Q 1534 2075 1959 2075 
z
" transform="scale(0.015625)"/>
      <path id="DejaVuSans-4f" d="M 2522 4238 
Q 1834 4238 1429 3725 
Q 1025 3213 1025 2328 
Q 1025 1447 1429 934 
Q 1834 422 2522 422 
Q 3209 422 3611 934 
Q 4013 1447 4013 2328 
Q 4013 3213 3611 3725 
Q 3209 4238 2522 4238 
z
M 2522 4750 
Q 3503 4750 4090 4092 
Q 4678 3434 4678 2328 
Q 4678 1225 4090 567 
Q 3503 -91 2522 -91 
Q 1538 -91 948 565 
Q 359 1222 359 2328 
Q 359 3434 948 4092 
Q 1538 4750 2522 4750 
z
" transform="scale(0.015625)"/>
     </defs>
     <use xlink:href="#DejaVuSans-4d"/>
     <use xlink:href="#DejaVuSans-45" transform="translate(86.279297 0)"/>
     <use xlink:href="#DejaVuSans-43" transform="translate(149.462891 0)"/>
     <use xlink:href="#DejaVuSans-54" transform="translate(219.287109 0)"/>
     <use xlink:href="#DejaVuSans-32" transform="translate(280.371094 0)"/>
     <use xlink:href="#DejaVuSans-30" transform="translate(343.994141 0)"/>
     <use xlink:href="#DejaVuSans-31" transform="translate(407.617188 0)"/>
     <use xlink:href="#DejaVuSans-39" transform="translate(471.240234 0)"/>
     <use xlink:href="#DejaVuSans-20" transform="translate(534.863281 0)"/>
     <use xlink:href="#DejaVuSans-28" transform="translate(566.650391 0)"/>
     <use xlink:href="#DejaVuSans-4f" transform="translate(605.664062 0)"/>
     <use xlink:href="#DejaVuSans-63" transform="translate(684.375 0)"/>
     <use xlink:href="#DejaVuSans-74" transform="translate(739.355469 0)"/>
     <use xlink:href="#DejaVuSans-2e" transform="translate(778.564453 0)"/>
     <use xlink:href="#DejaVuSans-20" transform="translate(810.351562 0)"/>
     <use xlink:href="#DejaVuSans-32" transform="translate(842.138672 0)"/>
     <use xlink:href="#DejaVuSans-33" transform="translate(905.761719 0)"/>
     <use xlink:href="#DejaVuSans-2d" transform="translate(969.384766 0)"/>
     <use xlink:href="#DejaVuSans-32" transform="translate(1005.46875 0)"/>
     <use xlink:href="#DejaVuSans-36" transform="translate(1069.091797 0)"/>
     <use xlink:href="#DejaVuSans-29" transform="translate(1132.714844 0)"/>
    </g>
   </g>
   <g id="text_18">
    <!-- Messe Nagoya (Nov. 6-9) -->
    <g transform="translate(325.834348 136.89771) rotate(-90) scale(0.1 -0.1)">
     <defs>
      <path id="DejaVuSans-73" d="M 2834 3397 
L 2834 2853 
Q 2591 2978 2328 3040 
Q 2066 3103 1784 3103 
Q 1356 3103 1142 2972 
Q 928 2841 928 2578 
Q 928 2378 1081 2264 
Q 1234 2150 1697 2047 
L 1894 2003 
Q 2506 1872 2764 1633 
Q 3022 1394 3022 966 
Q 3022 478 2636 193 
Q 2250 -91 1575 -91 
Q 1294 -91 989 -36 
Q 684 19 347 128 
L 347 722 
Q 666 556 975 473 
Q 1284 391 1588 391 
Q 1994 391 2212 530 
Q 2431 669 2431 922 
Q 2431 1156 2273 1281 
Q 2116 1406 1581 1522 
L 1381 1569 
Q 847 1681 609 1914 
Q 372 2147 372 2553 
Q 372 3047 722 3315 
Q 1072 3584 1716 3584 
Q 2034 3584 2315 3537 
Q 2597 3491 2834 3397 
z
" transform="scale(0.015625)"/>
     </defs>
     <use xlink:href="#DejaVuSans-4d"/>
     <use xlink:href="#DejaVuSans-65" transform="translate(86.279297 0)"/>
     <use xlink:href="#DejaVuSans-73" transform="translate(147.802734 0)"/>
     <use xlink:href="#DejaVuSans-73" transform="translate(199.902344 0)"/>
     <use xlink:href="#DejaVuSans-65" transform="translate(252.001953 0)"/>
     <use xlink:href="#DejaVuSans-20" transform="translate(313.525391 0)"/>
     <use xlink:href="#DejaVuSans-4e" transform="translate(345.3125 0)"/>
     <use xlink:href="#DejaVuSans-61" transform="translate(420.117188 0)"/>
     <use xlink:href="#DejaVuSans-67" transform="translate(481.396484 0)"/>
     <use xlink:href="#DejaVuSans-6f" transform="translate(544.873047 0)"/>
     <use xlink:href="#DejaVuSans-79" transform="translate(606.054688 0)"/>
     <use xlink:href="#DejaVuSans-61" transform="translate(665.234375 0)"/>
     <use xlink:href="#DejaVuSans-20" transform="translate(726.513672 0)"/>
     <use xlink:href="#DejaVuSans-28" transform="translate(758.300781 0)"/>
     <use xlink:href="#DejaVuSans-4e" transform="translate(797.314453 0)"/>
     <use xlink:href="#DejaVuSans-6f" transform="translate(872.119141 0)"/>
     <use xlink:href="#DejaVuSans-76" transform="translate(933.300781 0)"/>
     <use xlink:href="#DejaVuSans-2e" transform="translate(984.730469 0)"/>
     <use xlink:href="#DejaVuSans-20" transform="translate(1016.517578 0)"/>
     <use xlink:href="#DejaVuSans-36" transform="translate(1048.304688 0)"/>
     <use xlink:href="#DejaVuSans-2d" transform="translate(1111.927734 0)"/>
     <use xlink:href="#DejaVuSans-39" transform="translate(1148.011719 0)"/>
     <use xlink:href="#DejaVuSans-29" transform="translate(1211.634766 0)"/>
    </g>
   </g>
   <g id="text_19">
    <!-- One OK rock concert (Nov. 12-13) -->
    <g transform="translate(351.669662 180.225835) rotate(-90) scale(0.1 -0.1)">
     <defs>
      <path id="DejaVuSans-6e" d="M 3513 2113 
L 3513 0 
L 2938 0 
L 2938 2094 
Q 2938 2591 2744 2837 
Q 2550 3084 2163 3084 
Q 1697 3084 1428 2787 
Q 1159 2491 1159 1978 
L 1159 0 
L 581 0 
L 581 3500 
L 1159 3500 
L 1159 2956 
Q 1366 3272 1645 3428 
Q 1925 3584 2291 3584 
Q 2894 3584 3203 3211 
Q 3513 2838 3513 2113 
z
" transform="scale(0.015625)"/>
      <path id="DejaVuSans-4b" d="M 628 4666 
L 1259 4666 
L 1259 2694 
L 3353 4666 
L 4166 4666 
L 1850 2491 
L 4331 0 
L 3500 0 
L 1259 2247 
L 1259 0 
L 628 0 
L 628 4666 
z
" transform="scale(0.015625)"/>
      <path id="DejaVuSans-6b" d="M 581 4863 
L 1159 4863 
L 1159 1991 
L 2875 3500 
L 3609 3500 
L 1753 1863 
L 3688 0 
L 2938 0 
L 1159 1709 
L 1159 0 
L 581 0 
L 581 4863 
z
" transform="scale(0.015625)"/>
     </defs>
     <use xlink:href="#DejaVuSans-4f"/>
     <use xlink:href="#DejaVuSans-6e" transform="translate(78.710938 0)"/>
     <use xlink:href="#DejaVuSans-65" transform="translate(142.089844 0)"/>
     <use xlink:href="#DejaVuSans-20" transform="translate(203.613281 0)"/>
     <use xlink:href="#DejaVuSans-4f" transform="translate(235.400391 0)"/>
     <use xlink:href="#DejaVuSans-4b" transform="translate(314.111328 0)"/>
     <use xlink:href="#DejaVuSans-20" transform="translate(379.6875 0)"/>
     <use xlink:href="#DejaVuSans-72" transform="translate(411.474609 0)"/>
     <use xlink:href="#DejaVuSans-6f" transform="translate(450.337891 0)"/>
     <use xlink:href="#DejaVuSans-63" transform="translate(511.519531 0)"/>
     <use xlink:href="#DejaVuSans-6b" transform="translate(566.5 0)"/>
     <use xlink:href="#DejaVuSans-20" transform="translate(624.410156 0)"/>
     <use xlink:href="#DejaVuSans-63" transform="translate(656.197266 0)"/>
     <use xlink:href="#DejaVuSans-6f" transform="translate(711.177734 0)"/>
     <use xlink:href="#DejaVuSans-6e" transform="translate(772.359375 0)"/>
     <use xlink:href="#DejaVuSans-63" transform="translate(835.738281 0)"/>
     <use xlink:href="#DejaVuSans-65" transform="translate(890.71875 0)"/>
     <use xlink:href="#DejaVuSans-72" transform="translate(952.242188 0)"/>
     <use xlink:href="#DejaVuSans-74" transform="translate(993.355469 0)"/>
     <use xlink:href="#DejaVuSans-20" transform="translate(1032.564453 0)"/>
     <use xlink:href="#DejaVuSans-28" transform="translate(1064.351562 0)"/>
     <use xlink:href="#DejaVuSans-4e" transform="translate(1103.365234 0)"/>
     <use xlink:href="#DejaVuSans-6f" transform="translate(1178.169922 0)"/>
     <use xlink:href="#DejaVuSans-76" transform="translate(1239.351562 0)"/>
     <use xlink:href="#DejaVuSans-2e" transform="translate(1290.78125 0)"/>
     <use xlink:href="#DejaVuSans-20" transform="translate(1322.568359 0)"/>
     <use xlink:href="#DejaVuSans-31" transform="translate(1354.355469 0)"/>
     <use xlink:href="#DejaVuSans-32" transform="translate(1417.978516 0)"/>
     <use xlink:href="#DejaVuSans-2d" transform="translate(1481.601562 0)"/>
     <use xlink:href="#DejaVuSans-31" transform="translate(1517.685547 0)"/>
     <use xlink:href="#DejaVuSans-33" transform="translate(1581.308594 0)"/>
     <use xlink:href="#DejaVuSans-29" transform="translate(1644.931641 0)"/>
    </g>
   </g>
   <g id="text_20">
    <!-- Mammoth Flea Market (Nov. 16-17) -->
    <g transform="translate(372.337913 189.118023) rotate(-90) scale(0.1 -0.1)">
     <defs>
      <path id="DejaVuSans-68" d="M 3513 2113 
L 3513 0 
L 2938 0 
L 2938 2094 
Q 2938 2591 2744 2837 
Q 2550 3084 2163 3084 
Q 1697 3084 1428 2787 
Q 1159 2491 1159 1978 
L 1159 0 
L 581 0 
L 581 4863 
L 1159 4863 
L 1159 2956 
Q 1366 3272 1645 3428 
Q 1925 3584 2291 3584 
Q 2894 3584 3203 3211 
Q 3513 2838 3513 2113 
z
" transform="scale(0.015625)"/>
      <path id="DejaVuSans-46" d="M 628 4666 
L 3309 4666 
L 3309 4134 
L 1259 4134 
L 1259 2759 
L 3109 2759 
L 3109 2228 
L 1259 2228 
L 1259 0 
L 628 0 
L 628 4666 
z
" transform="scale(0.015625)"/>
     </defs>
     <use xlink:href="#DejaVuSans-4d"/>
     <use xlink:href="#DejaVuSans-61" transform="translate(86.279297 0)"/>
     <use xlink:href="#DejaVuSans-6d" transform="translate(147.558594 0)"/>
     <use xlink:href="#DejaVuSans-6d" transform="translate(244.970703 0)"/>
     <use xlink:href="#DejaVuSans-6f" transform="translate(342.382812 0)"/>
     <use xlink:href="#DejaVuSans-74" transform="translate(403.564453 0)"/>
     <use xlink:href="#DejaVuSans-68" transform="translate(442.773438 0)"/>
     <use xlink:href="#DejaVuSans-20" transform="translate(506.152344 0)"/>
     <use xlink:href="#DejaVuSans-46" transform="translate(537.939453 0)"/>
     <use xlink:href="#DejaVuSans-6c" transform="translate(595.458984 0)"/>
     <use xlink:href="#DejaVuSans-65" transform="translate(623.242188 0)"/>
     <use xlink:href="#DejaVuSans-61" transform="translate(684.765625 0)"/>
     <use xlink:href="#DejaVuSans-20" transform="translate(746.044922 0)"/>
     <use xlink:href="#DejaVuSans-4d" transform="translate(777.832031 0)"/>
     <use xlink:href="#DejaVuSans-61" transform="translate(864.111328 0)"/>
     <use xlink:href="#DejaVuSans-72" transform="translate(925.390625 0)"/>
     <use xlink:href="#DejaVuSans-6b" transform="translate(966.503906 0)"/>
     <use xlink:href="#DejaVuSans-65" transform="translate(1020.789062 0)"/>
     <use xlink:href="#DejaVuSans-74" transform="translate(1082.3125 0)"/>
     <use xlink:href="#DejaVuSans-20" transform="translate(1121.521484 0)"/>
     <use xlink:href="#DejaVuSans-28" transform="translate(1153.308594 0)"/>
     <use xlink:href="#DejaVuSans-4e" transform="translate(1192.322266 0)"/>
     <use xlink:href="#DejaVuSans-6f" transform="translate(1267.126953 0)"/>
     <use xlink:href="#DejaVuSans-76" transform="translate(1328.308594 0)"/>
     <use xlink:href="#DejaVuSans-2e" transform="translate(1379.738281 0)"/>
     <use xlink:href="#DejaVuSans-20" transform="translate(1411.525391 0)"/>
     <use xlink:href="#DejaVuSans-31" transform="translate(1443.3125 0)"/>
     <use xlink:href="#DejaVuSans-36" transform="translate(1506.935547 0)"/>
     <use xlink:href="#DejaVuSans-2d" transform="translate(1570.558594 0)"/>
     <use xlink:href="#DejaVuSans-31" transform="translate(1606.642578 0)"/>
     <use xlink:href="#DejaVuSans-37" transform="translate(1670.265625 0)"/>
     <use xlink:href="#DejaVuSans-29" transform="translate(1733.888672 0)"/>
    </g>
   </g>
   <g id="text_21">
    <!-- Nagoya Motor Show (Nov. 21-24) -->
    <g transform="translate(405.923821 177.327398) rotate(-90) scale(0.1 -0.1)">
     <defs>
      <path id="DejaVuSans-77" d="M 269 3500 
L 844 3500 
L 1563 769 
L 2278 3500 
L 2956 3500 
L 3675 769 
L 4391 3500 
L 4966 3500 
L 4050 0 
L 3372 0 
L 2619 2869 
L 1863 0 
L 1184 0 
L 269 3500 
z
" transform="scale(0.015625)"/>
     </defs>
     <use xlink:href="#DejaVuSans-4e"/>
     <use xlink:href="#DejaVuSans-61" transform="translate(74.804688 0)"/>
     <use xlink:href="#DejaVuSans-67" transform="translate(136.083984 0)"/>
     <use xlink:href="#DejaVuSans-6f" transform="translate(199.560547 0)"/>
     <use xlink:href="#DejaVuSans-79" transform="translate(260.742188 0)"/>
     <use xlink:href="#DejaVuSans-61" transform="translate(319.921875 0)"/>
     <use xlink:href="#DejaVuSans-20" transform="translate(381.201172 0)"/>
     <use xlink:href="#DejaVuSans-4d" transform="translate(412.988281 0)"/>
     <use xlink:href="#DejaVuSans-6f" transform="translate(499.267578 0)"/>
     <use xlink:href="#DejaVuSans-74" transform="translate(560.449219 0)"/>
     <use xlink:href="#DejaVuSans-6f" transform="translate(599.658203 0)"/>
     <use xlink:href="#DejaVuSans-72" transform="translate(660.839844 0)"/>
     <use xlink:href="#DejaVuSans-20" transform="translate(701.953125 0)"/>
     <use xlink:href="#DejaVuSans-53" transform="translate(733.740234 0)"/>
     <use xlink:href="#DejaVuSans-68" transform="translate(797.216797 0)"/>
     <use xlink:href="#DejaVuSans-6f" transform="translate(860.595703 0)"/>
     <use xlink:href="#DejaVuSans-77" transform="translate(921.777344 0)"/>
     <use xlink:href="#DejaVuSans-20" transform="translate(1003.564453 0)"/>
     <use xlink:href="#DejaVuSans-28" transform="translate(1035.351562 0)"/>
     <use xlink:href="#DejaVuSans-4e" transform="translate(1074.365234 0)"/>
     <use xlink:href="#DejaVuSans-6f" transform="translate(1149.169922 0)"/>
     <use xlink:href="#DejaVuSans-76" transform="translate(1210.351562 0)"/>
     <use xlink:href="#DejaVuSans-2e" transform="translate(1261.78125 0)"/>
     <use xlink:href="#DejaVuSans-20" transform="translate(1293.568359 0)"/>
     <use xlink:href="#DejaVuSans-32" transform="translate(1325.355469 0)"/>
     <use xlink:href="#DejaVuSans-31" transform="translate(1388.978516 0)"/>
     <use xlink:href="#DejaVuSans-2d" transform="translate(1452.601562 0)"/>
     <use xlink:href="#DejaVuSans-32" transform="translate(1488.685547 0)"/>
     <use xlink:href="#DejaVuSans-34" transform="translate(1552.308594 0)"/>
     <use xlink:href="#DejaVuSans-29" transform="translate(1615.931641 0)"/>
    </g>
   </g>
  </g>
 </g>
 <defs>
  <clipPath id="p1e3842684e">
   <rect x="46.637115" y="3.00024" width="382.362645" height="247.77202"/>
  </clipPath>
 </defs>
</svg>
