<svg xmlns="http://www.w3.org/2000/svg" width="800" height="300"><rect width="800" height="300" x="0" y="0" fill="#eceff4" id="background"/><g id="viz"><g transform="translate(0,0)"><g transform="translate(50,20)"><g class="bars"><rect id="undefined - x" x="3.9769452449567666" y="70.9090909090909" height="0" width="19.449747838616716" fill="#5e81ac"/><rect id="undefined - y" x="23.426693083573483" y="70.9090909090909" height="0" width="19.449747838616716" fill="#a3be8c"/><rect id="undefined - x" x="46.85338616714697" y="70.9090909090909" height="0" width="19.449747838616716" fill="#5e81ac"/><rect id="undefined - y" x="66.3031340057637" y="70.9090909090909" height="0" width="19.449747838616716" fill="#a3be8c"/><rect id="undefined - x" x="89.72982708933718" y="70.9090909090909" height="0" width="19.449747838616716" fill="#5e81ac"/><rect id="undefined - y" x="109.1795749279539" y="70.9090909090909" height="0" width="19.449747838616716" fill="#a3be8c"/><rect id="undefined - x" x="132.6062680115274" y="70.9090909090909" height="0" width="19.449747838616716" fill="#5e81ac"/><rect id="undefined - y" x="152.0560158501441" y="70.43636363636362" height="0.4727272727272833" width="19.449747838616716" fill="#a3be8c"/><rect id="undefined - x" x="175.4827089337176" y="70.9090909090909" height="0" width="19.449747838616716" fill="#5e81ac"/><rect id="undefined - y" x="194.93245677233432" y="70.43636363636362" height="0.4727272727272833" width="19.449747838616716" fill="#a3be8c"/><rect id="undefined - x" x="218.3591498559078" y="70.9090909090909" height="0" width="19.449747838616716" fill="#5e81ac"/><rect id="undefined - y" x="237.8088976945245" y="70.43636363636362" height="0.4727272727272833" width="19.449747838616716" fill="#a3be8c"/><rect id="undefined - x" x="261.235590778098" y="70.9090909090909" height="0" width="19.449747838616716" fill="#5e81ac"/><rect id="undefined - y" x="280.6853386167147" y="70.43636363636362" height="0.4727272727272833" width="19.449747838616716" fill="#a3be8c"/><rect id="undefined - x" x="304.1120317002882" y="70.9090909090909" height="0" width="19.449747838616716" fill="#5e81ac"/><rect id="undefined - y" x="323.5617795389049" y="70.43636363636362" height="0.4727272727272833" width="19.449747838616716" fill="#a3be8c"/><rect id="undefined - x" x="346.9884726224784" y="70.9090909090909" height="0" width="19.449747838616716" fill="#5e81ac"/><rect id="undefined - y" x="366.4382204610951" y="70.43636363636362" height="0.4727272727272833" width="19.449747838616716" fill="#a3be8c"/><rect id="undefined - x" x="389.86491354466864" y="70.9090909090909" height="0" width="19.449747838616716" fill="#5e81ac"/><rect id="undefined - y" x="409.31466138328534" y="70.43636363636362" height="0.4727272727272833" width="19.449747838616716" fill="#a3be8c"/><rect id="undefined - x" x="432.7413544668588" y="70.9090909090909" height="107.78181818181818" width="19.449747838616716" fill="#5e81ac"/><rect id="undefined - y" x="452.1911023054755" y="50.10909090909092" height="20.79999999999999" width="19.449747838616716" fill="#a3be8c"/><rect id="undefined - x" x="475.61779538904904" y="70.9090909090909" height="107.78181818181818" width="19.449747838616716" fill="#5e81ac"/><rect id="undefined - y" x="495.06754322766574" y="49.63636363636364" height="21.272727272727266" width="19.449747838616716" fill="#a3be8c"/><rect id="undefined - x" x="518.4942363112393" y="40.18181818181818" height="30.727272727272727" width="19.449747838616716" fill="#5e81ac"/><rect id="undefined - y" x="537.9439841498561" y="0" height="70.9090909090909" width="19.449747838616716" fill="#a3be8c"/><rect id="undefined - x" x="561.3706772334294" y="42.072727272727285" height="28.83636363636362" width="19.449747838616716" fill="#5e81ac"/><rect id="undefined - y" x="580.8204250720462" y="0.47272727272727577" height="70.43636363636364" width="19.449747838616716" fill="#a3be8c"/><rect id="undefined - x" x="604.2471181556195" y="70.9090909090909" height="182.94545454545454" width="19.449747838616716" fill="#5e81ac"/><rect id="undefined - y" x="623.6968659942363" y="34.036363636363625" height="36.87272727272728" width="19.449747838616716" fill="#a3be8c"/><rect id="undefined - x" x="647.1235590778099" y="70.9090909090909" height="182.94545454545454" width="19.449747838616716" fill="#5e81ac"/><rect id="undefined - y" x="666.5733069164266" y="33.56363636363638" height="37.34545454545453" width="19.449747838616716" fill="#a3be8c"/></g><g id="xAxis" transform="translate(0,70.9090909090909)" fill="none" font-size="10" font-family="sans-serif" text-anchor="middle"><path class="domain" stroke="currentColor" d="M0,0H690"/><g class="tick" opacity="1" transform="translate(23.426693083573483,0)"><line stroke="currentColor" y2="6"/><text fill="currentColor" y="9" dy="0.71em">25</text></g><g class="tick" opacity="1" transform="translate(66.3031340057637,0)"><line stroke="currentColor" y2="6"/><text fill="currentColor" y="9" dy="0.71em">50</text></g><g class="tick" opacity="1" transform="translate(109.1795749279539,0)"><line stroke="currentColor" y2="6"/><text fill="currentColor" y="9" dy="0.71em">100</text></g><g class="tick" opacity="1" transform="translate(152.0560158501441,0)"><line stroke="currentColor" y2="6"/><text fill="currentColor" y="9" dy="0.71em">200</text></g><g class="tick" opacity="1" transform="translate(194.93245677233432,0)"><line stroke="currentColor" y2="6"/><text fill="currentColor" y="9" dy="0.71em">300</text></g><g class="tick" opacity="1" transform="translate(237.8088976945245,0)"><line stroke="currentColor" y2="6"/><text fill="currentColor" y="9" dy="0.71em">400</text></g><g class="tick" opacity="1" transform="translate(280.6853386167147,0)"><line stroke="currentColor" y2="6"/><text fill="currentColor" y="9" dy="0.71em">500</text></g><g class="tick" opacity="1" transform="translate(323.5617795389049,0)"><line stroke="currentColor" y2="6"/><text fill="currentColor" y="9" dy="0.71em">600</text></g><g class="tick" opacity="1" transform="translate(366.4382204610951,0)"><line stroke="currentColor" y2="6"/><text fill="currentColor" y="9" dy="0.71em">700</text></g><g class="tick" opacity="1" transform="translate(409.31466138328534,0)"><line stroke="currentColor" y2="6"/><text fill="currentColor" y="9" dy="0.71em">800</text></g><g class="tick" opacity="1" transform="translate(452.1911023054755,0)"><line stroke="currentColor" y2="6"/><text fill="currentColor" y="9" dy="0.71em">900</text></g><g class="tick" opacity="1" transform="translate(495.06754322766574,0)"><line stroke="currentColor" y2="6"/><text fill="currentColor" y="9" dy="0.71em">1000</text></g><g class="tick" opacity="1" transform="translate(537.9439841498561,0)"><line stroke="currentColor" y2="6"/><text fill="currentColor" y="9" dy="0.71em">2000</text></g><g class="tick" opacity="1" transform="translate(580.8204250720462,0)"><line stroke="currentColor" y2="6"/><text fill="currentColor" y="9" dy="0.71em">3000</text></g><g class="tick" opacity="1" transform="translate(623.6968659942363,0)"><line stroke="currentColor" y2="6"/><text fill="currentColor" y="9" dy="0.71em">4000</text></g><g class="tick" opacity="1" transform="translate(666.5733069164266,0)"><line stroke="currentColor" y2="6"/><text fill="currentColor" y="9" dy="0.71em">5000</text></g></g><g id="yAxis" fill="none" font-size="10" font-family="sans-serif" text-anchor="end"><path class="domain" stroke="currentColor" d="M0,260V0"/><g class="tick" opacity="1" transform="translate(0,260)"><line stroke="currentColor" x2="-6"/><text fill="currentColor" x="-9" dy="0.32em">−400</text></g><g class="tick" opacity="1" transform="translate(0,236.36363636363635)"><line stroke="currentColor" x2="-6"/><text fill="currentColor" x="-9" dy="0.32em">−350</text></g><g class="tick" opacity="1" transform="translate(0,212.72727272727272)"><line stroke="currentColor" x2="-6"/><text fill="currentColor" x="-9" dy="0.32em">−300</text></g><g class="tick" opacity="1" transform="translate(0,189.0909090909091)"><line stroke="currentColor" x2="-6"/><text fill="currentColor" x="-9" dy="0.32em">−250</text></g><g class="tick" opacity="1" transform="translate(0,165.45454545454544)"><line stroke="currentColor" x2="-6"/><text fill="currentColor" x="-9" dy="0.32em">−200</text></g><g class="tick" opacity="1" transform="translate(0,141.8181818181818)"><line stroke="currentColor" x2="-6"/><text fill="currentColor" x="-9" dy="0.32em">−150</text></g><g class="tick" opacity="1" transform="translate(0,118.18181818181819)"><line stroke="currentColor" x2="-6"/><text fill="currentColor" x="-9" dy="0.32em">−100</text></g><g class="tick" opacity="1" transform="translate(0,94.54545454545455)"><line stroke="currentColor" x2="-6"/><text fill="currentColor" x="-9" dy="0.32em">−50</text></g><g class="tick" opacity="1" transform="translate(0,70.9090909090909)"><line stroke="currentColor" x2="-6"/><text fill="currentColor" x="-9" dy="0.32em">0</text></g><g class="tick" opacity="1" transform="translate(0,47.27272727272726)"><line stroke="currentColor" x2="-6"/><text fill="currentColor" x="-9" dy="0.32em">50</text></g><g class="tick" opacity="1" transform="translate(0,23.636363636363644)"><line stroke="currentColor" x2="-6"/><text fill="currentColor" x="-9" dy="0.32em">100</text></g><g class="tick" opacity="1" transform="translate(0,0)"><line stroke="currentColor" x2="-6"/><text fill="currentColor" x="-9" dy="0.32em">150</text></g></g><text y="66.9090909090909" x="690" text-anchor="end" style="font-family: Arial, sans-serif; font-size: 12px; fill: rgb(123, 123, 123); font-weight: bold;">Sets</text><text y="0" x="4" dominant-baseline="hanging" text-anchor="start" style="font-family: Arial, sans-serif; font-size: 12px; fill: rgb(123, 123, 123); font-weight: bold;">Value</text></g><text x="4" y="4" style="font-family: Arial, sans-serif; font-size: 12px; fill: black; font-weight: bold; dominant-baseline: hanging;"/></g><g id="grid"><rect x="0" y="0" width="750" height="300" fill="none" stroke="#ccc"/></g></g><g id="legend" transform="translate(750,20)"><g transform="translate(5,0)"><g class="legendColor" transform="translate(0,0)"><g class="legendCells" transform="translate(0,15.833333015441895)"><g class="cell" transform="translate(0, 0)"><rect class="swatch" height="15" width="15" style="fill: rgb(94, 129, 172);"/><text class="label" transform="translate( 20, 12.5)" font-family="&quot;Arial&quot;, sans-serif" font-size="10px"><tspan x="0" dy="0em">x</tspan></text></g><g class="cell" transform="translate(0, 20.833333015441895)"><rect class="swatch" height="15" width="15" style="fill: rgb(163, 190, 140);"/><text class="label" transform="translate( 20, 12.5)" font-family="&quot;Arial&quot;, sans-serif" font-size="10px"><tspan x="0" dy="0em">y</tspan></text></g></g><text class="legendTitle" font-family="&quot;Arial&quot;, sans-serif" font-size="12px" font-weight="bold"><tspan x="0" dy="0em">Colors</tspan></text></g></g></g></svg>